<svg width="20" height="21" viewBox="0 0 20 21" fill="none" xmlns="http://www.w3.org/2000/svg">
<g id="dashboard_FILL1_wght200_GRAD0_opsz24 1">
<g id="Group">
<g id="Group_2">
<g id="Group_3">
<path id="Vector" d="M6.42058 3.72194L3.40888 8.63422C3.2042 8.97048 3.43812 9.39446 3.83286 9.39446H5.35332V11.3535C5.35332 13.912 7.41473 15.988 9.97321 15.988C10.2948 15.988 10.4703 15.5933 10.251 15.3594L9.69543 14.76C8.81824 13.8097 8.32116 12.5523 8.32116 11.2512V9.37984H9.84163C10.2217 9.37984 10.4703 8.95586 10.2656 8.6196L7.26853 3.72194C7.07847 3.4003 6.61063 3.4003 6.42058 3.72194Z" fill="white"/>
<path id="Vector_2" d="M10.3096 4.93502L10.8652 5.53444C11.7424 6.48473 12.2394 7.74204 12.2394 9.04321V10.8999H10.7043C10.3242 10.8999 10.0757 11.3239 10.2804 11.6602L13.2921 16.5724C13.4821 16.8941 13.95 16.8941 14.14 16.5724L17.1517 11.6455C17.3564 11.3093 17.1225 10.8853 16.7277 10.8853H15.2073V8.92625C15.2073 6.36777 13.1459 4.29175 10.5874 4.29175C10.2511 4.29175 10.0757 4.68648 10.3096 4.93502Z" fill="white"/>
</g>
</g>
</g>
</g>
</svg>
