<svg width="20" height="20" viewBox="0 0 20 20" fill="none" xmlns="http://www.w3.org/2000/svg">
<g id="deployed_code_history_24dp_FILL1_wght200_GRAD0_opsz24 1">
<path id="Vector" d="M9.99992 9.52261L4.64575 6.42803L4.32679 6.6122C4.27346 6.64428 4.23339 6.68706 4.20659 6.74053C4.17992 6.79386 4.16659 6.84727 4.16659 6.90074V7.10261L9.99992 10.4776L15.8333 7.10261V6.90074C15.8333 6.84727 15.8199 6.79386 15.7933 6.74053C15.7664 6.68706 15.7264 6.64428 15.673 6.6122L15.3541 6.42803L9.99992 9.52261ZM9.32679 17.2389L4.00638 14.1732C3.79582 14.0525 3.63103 13.8885 3.512 13.6812C3.39284 13.4739 3.33325 13.2496 3.33325 13.008V6.9922C3.33325 6.75067 3.39284 6.52629 3.512 6.31907C3.63103 6.11171 3.79582 5.94768 4.00638 5.82699L9.32679 2.76136C9.53735 2.64067 9.76172 2.58032 9.99992 2.58032C10.2381 2.58032 10.4625 2.64067 10.673 2.76136L15.9935 5.82699C16.204 5.94768 16.3688 6.11171 16.4878 6.31907C16.607 6.52629 16.6666 6.75067 16.6666 6.9922V10.5787C16.3984 10.4835 16.1273 10.4141 15.8533 10.3703C15.5792 10.3266 15.2948 10.3047 14.9999 10.3047C13.5277 10.3047 12.2729 10.8234 11.2355 11.8607C10.1982 12.8981 9.6795 14.1529 9.6795 15.6251C9.6795 15.9414 9.70589 16.2482 9.75867 16.5457C9.81159 16.8434 9.89096 17.1316 9.99679 17.4103C9.87818 17.4146 9.76304 17.4037 9.65138 17.3776C9.53971 17.3514 9.43152 17.3051 9.32679 17.2389ZM14.9999 18.9584C14.0714 18.9584 13.2838 18.635 12.637 17.988C11.9901 17.3412 11.6666 16.5536 11.6666 15.6251C11.6666 14.6966 11.9901 13.909 12.637 13.2622C13.2838 12.6153 14.0714 12.2918 14.9999 12.2918C15.9284 12.2918 16.716 12.6153 17.3628 13.2622C18.0098 13.909 18.3333 14.6966 18.3333 15.6251C18.3333 16.5536 18.0098 17.3412 17.3628 17.988C16.716 18.635 15.9284 18.9584 14.9999 18.9584ZM15.3203 15.5387V13.2693H14.6795V15.8078L16.3749 17.5032L16.8301 17.0482L15.3203 15.5387Z" fill="white"/>
</g>
</svg>
