<svg width="48" height="48" viewBox="0 0 48 48" fill="none" xmlns="http://www.w3.org/2000/svg">
<g id="swap_calls_FILL0_wght200_GRAD0_opsz24 1">
<rect x="0.5" y="0.5" width="47" height="47" rx="7.5" fill="url(#paint0_linear_1023_6619)" fill-opacity="0.1"/>
<rect x="0.5" y="0.5" width="47" height="47" rx="7.5" stroke="url(#paint1_linear_1023_6619)"/>
<path id="Vector" d="M16.4103 32.3077L12 27.8973L12.9437 26.9383L15.7437 29.7383V19.4617C15.7437 18.2172 16.1761 17.1624 17.041 16.2973C17.9059 15.4324 18.9606 15 20.205 15C21.4494 15 22.5042 15.4324 23.3693 16.2973C24.2342 17.1624 24.6667 18.2172 24.6667 19.4617V27.846C24.6667 28.7162 24.9706 29.4551 25.5783 30.0627C26.1859 30.6704 26.9248 30.9743 27.795 30.9743C28.665 30.9743 29.4039 30.6704 30.0117 30.0627C30.6192 29.4551 30.923 28.7162 30.923 27.846V17.5693L28.123 20.3693L27.1793 19.4103L31.5897 15L36 19.4103L35.0563 20.3693L32.2563 17.5693V27.846C32.2563 29.0904 31.8239 30.1452 30.959 31.0103C30.0941 31.8752 29.0394 32.3077 27.795 32.3077C26.5506 32.3077 25.4958 31.8752 24.6307 31.0103C23.7658 30.1452 23.3333 29.0904 23.3333 27.846V19.4617C23.3333 18.5914 23.0294 17.8526 22.4217 17.245C21.8141 16.6372 21.0752 16.3333 20.205 16.3333C19.335 16.3333 18.5961 16.6372 17.9883 17.245C17.3808 17.8526 17.077 18.5914 17.077 19.4617V29.7383L19.877 26.9383L20.8207 27.8973L16.4103 32.3077Z" fill="white"/>
</g>
<defs>
<linearGradient id="paint0_linear_1023_6619" x1="24" y1="0" x2="24" y2="48" gradientUnits="userSpaceOnUse">
<stop stop-color="#4453DF"/>
<stop offset="1" stop-color="#7F5CED"/>
</linearGradient>
<linearGradient id="paint1_linear_1023_6619" x1="24" y1="0" x2="24" y2="48" gradientUnits="userSpaceOnUse">
<stop stop-color="#4453DF"/>
<stop offset="1" stop-color="#7F5CED"/>
</linearGradient>
</defs>
</svg>
