<svg width="20" height="20" viewBox="0 0 20 20" fill="none" xmlns="http://www.w3.org/2000/svg">
<g id="info_24dp_FILL1_wght200_GRAD0_opsz24 1">
<path id="Vector" d="M9.58333 13.75H10.4167V9.16667H9.58333V13.75ZM10 7.98083C10.1453 7.98083 10.2671 7.93167 10.3654 7.83333C10.4638 7.735 10.5129 7.61319 10.5129 7.46792C10.5129 7.32264 10.4638 7.20083 10.3654 7.1025C10.2671 7.00431 10.1453 6.95521 10 6.95521C9.85472 6.95521 9.73292 7.00431 9.63458 7.1025C9.53625 7.20083 9.48708 7.32264 9.48708 7.46792C9.48708 7.61319 9.53625 7.735 9.63458 7.83333C9.73292 7.93167 9.85472 7.98083 10 7.98083ZM10.0027 17.5C8.96563 17.5 7.99056 17.3032 7.0775 16.9096C6.16458 16.516 5.37042 15.9818 4.695 15.3071C4.01958 14.6324 3.48493 13.8389 3.09104 12.9267C2.69701 12.0146 2.5 11.0399 2.5 10.0027C2.5 8.96563 2.69681 7.99056 3.09042 7.0775C3.48403 6.16458 4.01819 5.37042 4.69292 4.695C5.36764 4.01958 6.16111 3.48493 7.07333 3.09104C7.98542 2.69701 8.96007 2.5 9.99729 2.5C11.0344 2.5 12.0094 2.69681 12.9225 3.09042C13.8354 3.48403 14.6296 4.01819 15.305 4.69292C15.9804 5.36764 16.5151 6.16111 16.909 7.07333C17.303 7.98542 17.5 8.96007 17.5 9.99729C17.5 11.0344 17.3032 12.0094 16.9096 12.9225C16.516 13.8354 15.9818 14.6296 15.3071 15.305C14.6324 15.9804 13.8389 16.5151 12.9267 16.909C12.0146 17.303 11.0399 17.5 10.0027 17.5Z" fill="white" fill-opacity="0.5"/>
</g>
</svg>
