<svg width="16" height="12" viewBox="0 0 16 12" fill="none" xmlns="http://www.w3.org/2000/svg">
<g id="Group">
<path id="Vector" fill-rule="evenodd" clip-rule="evenodd" d="M5.64253 11.6345C7.13924 11.6463 8.59509 11.023 9.64035 9.97157H10.3123C10.3171 9.97157 10.3247 9.97175 10.3295 9.97157C11.355 9.93138 12.531 10.1353 13.6781 9.66974C13.6799 9.66901 13.6823 9.67047 13.6837 9.66974C15.4829 8.96246 16.3026 6.87437 15.899 5.09105C15.6158 3.54914 14.3369 2.26115 12.7498 2.07846C12.7463 2.07846 12.7419 2.07846 12.7385 2.07846C11.6832 1.98774 10.6484 2.04609 9.64044 2.0329C7.9388 0.276774 5.0962 -0.156452 2.95463 1.04766C0.753392 2.19959 -0.444084 4.85922 0.15274 7.27219C0.683942 9.74404 3.00414 11.6226 5.52872 11.6345C5.56553 11.6346 5.60003 11.635 5.63693 11.6345H5.64253ZM11.7418 9.24263C11.2814 9.2439 10.7985 9.2238 10.3067 9.24263H10.2497C10.261 9.22653 10.2672 9.2076 10.2782 9.19137C10.28 9.18906 10.2824 9.188 10.2838 9.18569C11.6262 7.29457 11.5845 4.63192 10.2553 2.76184C11.0777 2.75747 11.8836 2.73457 12.67 2.80172C13.9084 2.94653 14.9593 4.00216 15.1814 5.22772C15.1833 5.23319 15.1858 5.23939 15.1871 5.24485C15.519 6.69812 14.8187 8.44089 13.4103 8.99211C13.4085 8.99265 13.4121 8.99717 13.4103 8.99779C12.9006 9.20549 12.337 9.24102 11.7418 9.24263Z" fill="white" fill-opacity="0.5"/>
</g>
</svg>
