<svg width="20" height="21" viewBox="0 0 20 21" fill="none" xmlns="http://www.w3.org/2000/svg">
<g id="how_to_vote_24dp_FILL1_wght200_GRAD0_opsz24 1">
<path id="Vector" d="M4.48715 17.8399C4.10368 17.8399 3.78347 17.7114 3.52653 17.4544C3.26959 17.1975 3.14111 16.8773 3.14111 16.4938V13.8238L5.24049 11.4922L5.83507 12.0867L4.00799 14.1219H15.9922L14.1747 12.0963L14.7692 11.5017L16.859 13.8238V16.4938C16.859 16.8773 16.7306 17.1975 16.4736 17.4544C16.2167 17.7114 15.8965 17.8399 15.513 17.8399H4.48715ZM9.07382 11.7469L6.59466 9.22611C6.32854 8.96014 6.1982 8.64174 6.20361 8.2709C6.20889 7.90021 6.34459 7.58188 6.6107 7.31591L10.2613 3.66528C10.5273 3.39917 10.843 3.26611 11.2084 3.26611C11.5738 3.26611 11.8895 3.39917 12.1555 3.66528L14.6603 6.16049C14.9264 6.42646 15.0602 6.74132 15.0617 7.10507C15.0634 7.46882 14.9312 7.78375 14.6651 8.04986L10.9632 11.7517C10.6972 12.0177 10.3823 12.1499 10.0184 12.1484C9.65465 12.1467 9.33979 12.0129 9.07382 11.7469ZM14.0547 7.47132C14.1401 7.38577 14.1828 7.26292 14.1828 7.10278C14.1828 6.9425 14.1401 6.81959 14.0547 6.73403L11.5769 4.26611C11.4915 4.1807 11.3687 4.13799 11.2084 4.13799C11.0481 4.13799 10.9253 4.1807 10.8399 4.26611L7.17966 7.92632C7.0941 8.01188 7.05132 8.13479 7.05132 8.29507C7.05132 8.45535 7.0941 8.5782 7.17966 8.66361L9.65716 11.1315C9.74257 11.2169 9.86542 11.2597 10.0257 11.2597C10.186 11.2597 10.3088 11.2169 10.3942 11.1315L14.0547 7.47132Z" fill="white"/>
</g>
</svg>
