<svg width="20" height="21" viewBox="0 0 20 21" fill="none" xmlns="http://www.w3.org/2000/svg">
<g id="dashboard_FILL1_wght200_GRAD0_opsz24 1">
<path id="Vector" d="M5.53345 11.0868L9.93505 4.60626L9.11906 4.05267C9.10451 4.04274 9.08815 4.03578 9.0709 4.03219C9.05365 4.0286 9.03587 4.02845 9.01856 4.03175C9.00126 4.03506 8.98478 4.04175 8.97007 4.05144C8.95536 4.06113 8.94271 4.07363 8.93284 4.08823L6.56275 7.57057C6.4505 7.73535 6.27739 7.84879 6.0815 7.88594C5.88561 7.92308 5.68299 7.88089 5.51821 7.76864C5.35343 7.65639 5.23999 7.48329 5.20285 7.2874C5.1657 7.09151 5.20789 6.88889 5.32014 6.72411L7.675 3.24684C7.79576 3.06831 7.95058 2.91538 8.13059 2.79683C8.3106 2.67828 8.51225 2.59644 8.72397 2.55602C8.93568 2.51559 9.1533 2.51738 9.36432 2.56126C9.57535 2.60515 9.77563 2.69028 9.95367 2.81176L10.7697 3.36535L11.2471 2.66109C11.5734 2.22625 12.0545 1.93356 12.5907 1.84363C13.1269 1.75371 13.6771 1.87343 14.1274 2.17801C14.5778 2.4826 14.8938 2.94871 15.0099 3.47984C15.1261 4.01096 15.0335 4.56642 14.7514 5.03118L9.02934 13.4636C7.98698 15.0025 6.48847 16.176 4.74455 16.819C4.66197 16.8492 4.57338 16.8593 4.48613 16.8483C4.39888 16.8374 4.31552 16.8058 4.24297 16.7561C4.17043 16.7064 4.11081 16.6401 4.06907 16.5627C4.02734 16.4853 4.0047 16.399 4.00305 16.3111C3.95439 14.4525 4.48962 12.6254 5.53345 11.0868ZM13.2532 15.3733C12.4727 15.3733 12.0681 15.8371 11.799 16.1452C11.5636 16.4144 11.5078 16.4533 11.3639 16.4533C11.22 16.4533 11.1624 16.4127 10.9288 16.1435C10.6596 15.8354 10.2516 15.3716 9.47288 15.3716C8.69414 15.3716 8.29969 15.8219 8.03051 16.1283C7.96653 16.1913 7.91572 16.2664 7.88104 16.3492C7.84635 16.4321 7.82849 16.521 7.82849 16.6108C7.82849 16.7006 7.84635 16.7895 7.88104 16.8723C7.91572 16.9552 7.96653 17.0303 8.03051 17.0933C8.0934 17.1562 8.16809 17.2062 8.25029 17.2403C8.3325 17.2743 8.42062 17.2919 8.50961 17.2919C8.5986 17.2919 8.68672 17.2743 8.76893 17.2403C8.85113 17.2062 8.92582 17.1562 8.98871 17.0933L9.00902 17.073L9.03611 17.0425C9.27143 16.7733 9.32729 16.7327 9.47119 16.7327C9.61509 16.7327 9.67265 16.7733 9.90627 17.0425C10.1754 17.3506 10.5834 17.8145 11.3622 17.8145C12.1409 17.8145 12.5472 17.3506 12.8164 17.0425C13.0517 16.7733 13.1076 16.7327 13.2515 16.7327C13.3954 16.7327 13.4529 16.7733 13.6883 17.0425C13.9574 17.3506 14.3654 17.8145 15.1442 17.8145C15.9229 17.8145 16.3292 17.3506 16.5984 17.0442C16.6634 16.9786 16.7142 16.9004 16.7478 16.8144C16.7814 16.7284 16.7971 16.6364 16.7939 16.5442C16.7907 16.4519 16.7686 16.3613 16.7291 16.2778C16.6896 16.1944 16.6334 16.1199 16.564 16.059C16.4947 15.9981 16.4136 15.952 16.3257 15.9235C16.2379 15.8951 16.1452 15.8849 16.0533 15.8936C15.9613 15.9023 15.8722 15.9298 15.7913 15.9742C15.7103 16.0186 15.6393 16.0791 15.5826 16.152C15.3473 16.4195 15.2915 16.4601 15.1459 16.4601C15.0003 16.4601 14.9444 16.4195 14.7091 16.1503C14.4467 15.8388 14.0336 15.3733 13.2532 15.3733Z" fill="white"/>
</g>
</svg>
