<svg width="20" height="20" viewBox="0 0 20 20" fill="none" xmlns="http://www.w3.org/2000/svg">
<g id="settings_24dp_FILL1_wght200_GRAD0_opsz24 1">
<path id="Vector" d="M8.44547 17.5L8.14422 15.0898C7.87825 15.0097 7.59061 14.8835 7.2813 14.7115C6.972 14.5395 6.70894 14.3553 6.49214 14.1588L4.26922 15.1042L2.71484 12.3958L4.6363 10.9471C4.61172 10.7965 4.59144 10.6414 4.57547 10.4817C4.55936 10.3219 4.5513 10.1667 4.5513 10.016C4.5513 9.87604 4.55936 9.72889 4.57547 9.57458C4.59144 9.42014 4.61172 9.24625 4.6363 9.05292L2.71484 7.60417L4.26922 4.92792L6.47609 5.85729C6.72498 5.65007 6.99422 5.46312 7.2838 5.29646C7.57325 5.12979 7.8547 5.00104 8.12818 4.91021L8.44547 2.5H11.5546L11.8559 4.92625C12.1753 5.03847 12.4576 5.16722 12.7028 5.3125C12.9479 5.45778 13.2003 5.63938 13.4601 5.85729L15.7309 4.92792L17.2853 7.60417L15.2996 9.10104C15.3456 9.27299 15.3713 9.43083 15.3767 9.57458C15.382 9.71819 15.3846 9.86 15.3846 10C15.3846 10.1293 15.3793 10.2658 15.3686 10.4094C15.3579 10.5531 15.3333 10.727 15.2948 10.931L17.2484 12.3958L15.694 15.1042L13.4601 14.1427C13.2003 14.3606 12.9391 14.5476 12.6763 14.7035C12.4135 14.8595 12.1401 14.9829 11.8559 15.0737L11.5546 17.5H8.44547ZM9.97755 12.0833C10.5588 12.0833 11.0514 11.8814 11.4553 11.4775C11.859 11.0738 12.0609 10.5813 12.0609 10C12.0609 9.41875 11.859 8.92625 11.4553 8.5225C11.0514 8.11861 10.5588 7.91667 9.97755 7.91667C9.39325 7.91667 8.89991 8.11861 8.49755 8.5225C8.09533 8.92625 7.89422 9.41875 7.89422 10C7.89422 10.5813 8.09533 11.0738 8.49755 11.4775C8.89991 11.8814 9.39325 12.0833 9.97755 12.0833Z" fill="white"/>
</g>
</svg>
