<svg width="20" height="21" viewBox="0 0 20 21" fill="none" xmlns="http://www.w3.org/2000/svg">
<g id="description_24dp_FILL1_wght200_GRAD0_opsz24 1">
<path id="Vector" d="M7.08341 14.7308H12.9167V13.8975H7.08341V14.7308ZM7.08341 11.3975H12.9167V10.5641H7.08341V11.3975ZM5.513 17.6475C5.12939 17.6475 4.80911 17.519 4.55216 17.262C4.29522 17.0051 4.16675 16.6848 4.16675 16.3012V3.99371C4.16675 3.6101 4.29522 3.28982 4.55216 3.03288C4.80911 2.77593 5.12939 2.64746 5.513 2.64746H12.0834L15.8334 6.39746V16.3012C15.8334 16.6848 15.7049 17.0051 15.448 17.262C15.1911 17.519 14.8708 17.6475 14.4872 17.6475H5.513ZM11.6667 6.81413H15.0001L11.6667 3.48079V6.81413Z" fill="white"/>
</g>
</svg>
