<svg width="12" height="12" viewBox="0 0 12 12" fill="none" xmlns="http://www.w3.org/2000/svg">
<g id="hourglass_top_FILL0_wght200_GRAD0_opsz24 (1) 1">
<path id="Vector" d="M3.90387 10H8.09613V8.5C8.09613 7.9115 7.89388 7.40863 7.48938 6.99137C7.08496 6.57404 6.5885 6.36538 6 6.36538C5.4115 6.36538 4.91504 6.57404 4.51063 6.99137C4.10613 7.40863 3.90387 7.9115 3.90387 8.5V10ZM2.5 10.5V10H3.40387V8.5C3.40387 7.88267 3.59313 7.33508 3.97163 6.85725C4.35013 6.37933 4.83521 6.09358 5.42687 6C4.83521 5.9 4.35013 5.61267 3.97163 5.138C3.59313 4.66333 3.40387 4.11733 3.40387 3.5V2H2.5V1.5H9.5V2H8.59613V3.5C8.59613 4.11733 8.40688 4.66333 8.02838 5.138C7.64988 5.61267 7.16479 5.9 6.57312 6C7.16479 6.09358 7.64988 6.37933 8.02838 6.85725C8.40688 7.33508 8.59613 7.88267 8.59613 8.5V10H9.5V10.5H2.5Z" fill="#FFC13C"/>
</g>
</svg>
