<svg width="20" height="21" viewBox="0 0 20 21" fill="none" xmlns="http://www.w3.org/2000/svg">
<g id="note_stack_add_24dp_FILL1_wght200_GRAD0_opsz24 1">
<path id="Vector" d="M11.6667 15.1475H12.5001V12.6475H15.0001V11.8142H12.5001V9.31419H11.6667V11.8142H9.16673V12.6475H11.6667V15.1475ZM6.66673 16.3013V8.15544C6.66673 7.78197 6.79868 7.46502 7.06256 7.20461C7.32645 6.94433 7.64486 6.81419 8.01777 6.81419H16.1538C16.5241 6.81419 16.841 6.946 17.1046 7.20961C17.3683 7.47322 17.5001 7.79016 17.5001 8.16044V13.9617L13.8142 17.6475H8.01298C7.6427 17.6475 7.32576 17.5157 7.06215 17.2521C6.79854 16.9885 6.66673 16.6716 6.66673 16.3013ZM2.5209 5.6444C2.44826 5.27148 2.51958 4.93461 2.73486 4.63378C2.95013 4.3328 3.24472 4.14829 3.61861 4.08023L11.6346 2.66836C12.0076 2.59572 12.3444 2.66704 12.6453 2.88232C12.9461 3.09759 13.1306 3.39218 13.1988 3.76607L13.3751 4.82711H8.01298C7.09631 4.82711 6.31159 5.1535 5.65881 5.80627C5.00604 6.45905 4.67965 7.24377 4.67965 8.16044V14.6444C4.48937 14.5513 4.32777 14.4194 4.19486 14.2486C4.0618 14.0776 3.97444 13.8816 3.93277 13.6604L2.5209 5.6444Z" fill="white"/>
</g>
</svg>
