<svg width="16" height="16" viewBox="0 0 16 16" fill="none" xmlns="http://www.w3.org/2000/svg">
<g id="content_copy_FILL0_wght200_GRAD0_opsz24 (3) 1">
<path id="Vector" d="M6.07692 11.3333C5.77008 11.3333 5.51389 11.2306 5.30833 11.025C5.10278 10.8194 5 10.5632 5 10.2564V3.07692C5 2.77008 5.10278 2.51389 5.30833 2.30833C5.51389 2.10278 5.77008 2 6.07692 2H11.2564C11.5632 2 11.8194 2.10278 12.025 2.30833C12.2306 2.51389 12.3333 2.77008 12.3333 3.07692V10.2564C12.3333 10.5632 12.2306 10.8194 12.025 11.025C11.8194 11.2306 11.5632 11.3333 11.2564 11.3333H6.07692ZM6.07692 10.6667H11.2564C11.359 10.6667 11.453 10.6239 11.5385 10.5385C11.6239 10.453 11.6667 10.359 11.6667 10.2564V3.07692C11.6667 2.97436 11.6239 2.88034 11.5385 2.79487C11.453 2.7094 11.359 2.66667 11.2564 2.66667H6.07692C5.97436 2.66667 5.88034 2.7094 5.79487 2.79487C5.7094 2.88034 5.66667 2.97436 5.66667 3.07692V10.2564C5.66667 10.359 5.7094 10.453 5.79487 10.5385C5.88034 10.6239 5.97436 10.6667 6.07692 10.6667ZM4.07692 13.3333C3.77008 13.3333 3.51389 13.2306 3.30833 13.025C3.10278 12.8194 3 12.5632 3 12.2564V4.41025H3.66667V12.2564C3.66667 12.359 3.7094 12.453 3.79487 12.5385C3.88033 12.6239 3.97435 12.6667 4.07692 12.6667H9.92308V13.3333H4.07692Z" fill="white" fill-opacity="0.5"/>
</g>
</svg>
