<svg width="32" height="32" viewBox="0 0 32 32" fill="none" xmlns="http://www.w3.org/2000/svg">
<path id="Vector" d="M16.0058 32C13.7933 32 11.7132 31.5802 9.76533 30.7404C7.81778 29.9007 6.12356 28.7612 4.68267 27.3218C3.24178 25.8824 2.10119 24.1896 1.26089 22.2436C0.420296 20.2978 0 18.2185 0 16.0058C0 13.7933 0.419852 11.7132 1.25956 9.76533C2.09926 7.81778 3.23881 6.12356 4.67822 4.68267C6.11763 3.24178 7.81037 2.10119 9.75644 1.26089C11.7022 0.420296 13.7815 0 15.9942 0C18.2067 0 20.2868 0.419853 22.2347 1.25956C24.1822 2.09926 25.8764 3.23882 27.3173 4.67822C28.7582 6.11763 29.8988 7.81037 30.7391 9.75645C31.5797 11.7022 32 13.7815 32 15.9942C32 18.2067 31.5801 20.2868 30.7404 22.2347C29.9007 24.1822 28.7612 25.8764 27.3218 27.3173C25.8824 28.7582 24.1896 29.8988 22.2436 30.7391C20.2978 31.5797 18.2185 32 16.0058 32ZM14.2222 30.1333V26.6667C13.2444 26.6667 12.4074 26.3185 11.7111 25.6222C11.0148 24.9259 10.6667 24.0889 10.6667 23.1111V21.3333L2.13333 12.8C2.04444 13.3333 1.96296 13.8667 1.88889 14.4C1.81481 14.9333 1.77778 15.4667 1.77778 16C1.77778 19.5852 2.95556 22.7259 5.31111 25.4222C7.66667 28.1185 10.637 29.6889 14.2222 30.1333ZM26.4889 25.6C27.0815 24.9481 27.6148 24.2444 28.0889 23.4889C28.563 22.7333 28.9556 21.9481 29.2667 21.1333C29.5778 20.3185 29.8148 19.4815 29.9778 18.6222C30.1407 17.763 30.2222 16.8889 30.2222 16C30.2222 13.0791 29.4204 10.4116 27.8169 7.99733C26.2136 5.58311 24.0524 3.84267 21.3333 2.776V3.55556C21.3333 4.53333 20.9852 5.37037 20.2889 6.06667C19.5926 6.76296 18.7556 7.11111 17.7778 7.11111H14.2222V10.6667C14.2222 11.1704 14.0519 11.5926 13.7111 11.9333C13.3704 12.2741 12.9481 12.4444 12.4444 12.4444H8.88889V16H19.5556C20.0593 16 20.4815 16.1704 20.8222 16.5111C21.163 16.8519 21.3333 17.2741 21.3333 17.7778V23.1111H23.1111C23.8815 23.1111 24.5778 23.3407 25.2 23.8C25.8222 24.2593 26.2519 24.8593 26.4889 25.6Z" fill="url(#paint0_linear_2816_612)"/>
<defs>
<linearGradient id="paint0_linear_2816_612" x1="16" y1="0" x2="16" y2="32" gradientUnits="userSpaceOnUse">
<stop stop-color="#4453DF"/>
<stop offset="1" stop-color="#7F5CED"/>
</linearGradient>
</defs>
</svg>
