<svg width="21" height="20" viewBox="0 0 21 20" fill="none" xmlns="http://www.w3.org/2000/svg">
<g id="do_not_disturb_on_24dp_FILL1_wght200_GRAD0_opsz24 1">
<path id="Vector" d="M6.75 10.4167H14.25V9.58333H6.75V10.4167ZM10.5027 17.5C9.46563 17.5 8.49056 17.3032 7.5775 16.9096C6.66458 16.516 5.87042 15.9818 5.195 15.3071C4.51958 14.6324 3.98493 13.8389 3.59104 12.9267C3.19701 12.0146 3 11.0399 3 10.0027C3 8.96563 3.19681 7.99056 3.59042 7.0775C3.98403 6.16458 4.51819 5.37042 5.19292 4.695C5.86764 4.01958 6.66111 3.48493 7.57333 3.09104C8.48542 2.69701 9.46007 2.5 10.4973 2.5C11.5344 2.5 12.5094 2.69681 13.4225 3.09042C14.3354 3.48403 15.1296 4.01819 15.805 4.69292C16.4804 5.36764 17.0151 6.16111 17.409 7.07333C17.803 7.98542 18 8.96007 18 9.99729C18 11.0344 17.8032 12.0094 17.4096 12.9225C17.016 13.8354 16.4818 14.6296 15.8071 15.305C15.1324 15.9804 14.3389 16.5151 13.4267 16.909C12.5146 17.303 11.5399 17.5 10.5027 17.5Z" fill="white"/>
</g>
</svg>
