<svg width="24" height="24" viewBox="0 0 24 24" fill="none" xmlns="http://www.w3.org/2000/svg">
<g id="notifications_unread_FILL1_wght200_GRAD0_opsz24 2">
<path id="Vector" d="M11.9966 21.3846C11.5514 21.3846 11.1715 21.2265 10.8567 20.9101C10.542 20.5938 10.3846 20.2135 10.3846 19.7692H13.6154C13.6154 20.2167 13.4569 20.5978 13.1399 20.9125C12.8229 21.2273 12.4418 21.3846 11.9966 21.3846ZM5 18.7692V17.7692H6.61537V9.84615C6.61537 8.53975 7.02884 7.39072 7.85577 6.39905C8.68269 5.40737 9.73077 4.78973 11 4.54615V4C11 3.72222 11.097 3.4861 11.291 3.29165C11.485 3.09722 11.7206 3 11.9978 3C12.2749 3 12.5112 3.09722 12.7067 3.29165C12.9022 3.4861 13 3.72222 13 4V4.075C12.7051 4.48525 12.4776 4.93265 12.3173 5.4172C12.1571 5.90173 12.0769 6.39728 12.0769 6.90385C12.0769 8.2359 12.542 9.3766 13.4721 10.326C14.4023 11.2753 15.5269 11.7628 16.8462 11.7885H17.1154C17.2051 11.7885 17.2949 11.782 17.3846 11.7692V17.7692H19V18.7692H5ZM16.9638 9.40385C16.27 9.40385 15.6795 9.16101 15.1923 8.67533C14.7051 8.18966 14.4615 7.59992 14.4615 6.9061C14.4615 6.21228 14.7044 5.62178 15.1901 5.1346C15.6757 4.64743 16.2655 4.40385 16.9593 4.40385C17.6531 4.40385 18.2436 4.64668 18.7308 5.13235C19.218 5.61802 19.4615 6.20776 19.4615 6.90158C19.4615 7.59539 19.2187 8.18589 18.7331 8.67307C18.2474 9.16026 17.6576 9.40385 16.9638 9.40385Z" fill="white"/>
</g>
</svg>
