<svg width="17" height="16" viewBox="0 0 17 16" fill="none" xmlns="http://www.w3.org/2000/svg">
<g id="open_in_new_24dp_FILL0_wght200_GRAD0_opsz24 (1) 1">
<path id="Vector" d="M4.24375 13.3327C3.93686 13.3327 3.68064 13.2299 3.47508 13.0243C3.26953 12.8188 3.16675 12.5626 3.16675 12.2557V3.74302C3.16675 3.43613 3.26953 3.1799 3.47508 2.97435C3.68064 2.76879 3.93686 2.66602 4.24375 2.66602H7.98725V3.33268H4.24375C4.14108 3.33268 4.04703 3.3754 3.96158 3.46085C3.87614 3.54629 3.83341 3.64035 3.83341 3.74302V12.2557C3.83341 12.3583 3.87614 12.4524 3.96158 12.5378C4.04703 12.6233 4.14108 12.666 4.24375 12.666H12.7564C12.8591 12.666 12.9531 12.6233 13.0386 12.5378C13.124 12.4524 13.1667 12.3583 13.1667 12.2557V8.51218H13.8334V12.2557C13.8334 12.5626 13.7306 12.8188 13.5251 13.0243C13.3195 13.2299 13.0633 13.3327 12.7564 13.3327H4.24375ZM6.99241 9.97885L6.52058 9.50702L12.6949 3.33268H9.83341V2.66602H13.8334V6.66602H13.1667V3.80452L6.99241 9.97885Z" fill="#2BA472"/>
</g>
</svg>
