<svg width="33" height="33" viewBox="0 0 33 33" fill="none" xmlns="http://www.w3.org/2000/svg">
<g id="open_in_new_24dp_FILL0_wght200_GRAD0_opsz24 1">
<path id="Vector" d="M7.98701 27.2697C7.37323 27.2697 6.86079 27.0642 6.44967 26.6531C6.03856 26.242 5.83301 25.7295 5.83301 25.1157V8.0904C5.83301 7.47662 6.03856 6.96418 6.44967 6.55307C6.86079 6.14196 7.37323 5.9364 7.98701 5.9364H15.474V7.26973H7.98701C7.78167 7.26973 7.59356 7.35518 7.42267 7.52607C7.25179 7.69696 7.16634 7.88507 7.16634 8.0904V25.1157C7.16634 25.3211 7.25179 25.5092 7.42267 25.6801C7.59356 25.851 7.78167 25.9364 7.98701 25.9364H25.0123C25.2177 25.9364 25.4058 25.851 25.5767 25.6801C25.7476 25.5092 25.833 25.3211 25.833 25.1157V17.6287H27.1663V25.1157C27.1663 25.7295 26.9608 26.242 26.5497 26.6531C26.1386 27.0642 25.6261 27.2697 25.0123 27.2697H7.98701ZM13.4843 20.5621L12.5407 19.6184L24.8893 7.26973H19.1663V5.9364H27.1663V13.9364H25.833V8.2134L13.4843 20.5621Z" fill="white" fill-opacity="0.5"/>
</g>
</svg>
