<svg width="24" height="25" viewBox="0 0 24 25" fill="none" xmlns="http://www.w3.org/2000/svg">
<g id="do_not_disturb_on_24dp_FILL0_wght200_GRAD0_opsz24 1">
<path id="Vector" d="M7.5 13.166H16.5V12.166H7.5V13.166ZM12.0033 21.666C10.7588 21.666 9.58867 21.4298 8.493 20.9575C7.3975 20.4852 6.4445 19.8442 5.634 19.0345C4.8235 18.2248 4.18192 17.2727 3.70925 16.178C3.23642 15.0835 3 13.9139 3 12.6693C3 11.4248 3.23617 10.2547 3.7085 9.15902C4.18083 8.06352 4.82183 7.11052 5.6315 6.30002C6.44117 5.48952 7.39333 4.84793 8.488 4.37527C9.5825 3.90243 10.7521 3.66602 11.9967 3.66602C13.2413 3.66602 14.4113 3.90218 15.507 4.37452C16.6025 4.84685 17.5555 5.48785 18.366 6.29752C19.1765 7.10718 19.8181 8.05935 20.2908 9.15402C20.7636 10.2485 21 11.4181 21 12.6628C21 13.9073 20.7638 15.0773 20.2915 16.173C19.8192 17.2685 19.1782 18.2215 18.3685 19.032C17.5588 19.8425 16.6067 20.4841 15.512 20.9568C14.4175 21.4296 13.2479 21.666 12.0033 21.666ZM12 20.666C14.2333 20.666 16.125 19.891 17.675 18.341C19.225 16.791 20 14.8993 20 12.666C20 10.4327 19.225 8.54102 17.675 6.99102C16.125 5.44102 14.2333 4.66602 12 4.66602C9.76667 4.66602 7.875 5.44102 6.325 6.99102C4.775 8.54102 4 10.4327 4 12.666C4 14.8993 4.775 16.791 6.325 18.341C7.875 19.891 9.76667 20.666 12 20.666Z" fill="white" fill-opacity="0.5"/>
</g>
</svg>
