<svg width="16" height="16" viewBox="0 0 16 16" fill="none" xmlns="http://www.w3.org/2000/svg">
<g id="do_not_disturb_on_FILL0_wght200_GRAD0_opsz24 1">
<path id="Vector" d="M5 8.33333H11V7.66667H5V8.33333ZM8.00223 14C7.17253 14 6.39248 13.8426 5.66207 13.5277C4.93166 13.2128 4.29629 12.7854 3.75598 12.2456C3.21568 11.7058 2.78794 11.0711 2.47277 10.3414C2.15759 9.61163 2 8.83192 2 8.00223C2 7.17253 2.15744 6.39248 2.47232 5.66207C2.78721 4.93166 3.21455 4.29629 3.75435 3.75598C4.29415 3.21568 4.92891 2.78794 5.65863 2.47277C6.38837 2.15759 7.16808 2 7.99777 2C8.82747 2 9.60752 2.15744 10.3379 2.47232C11.0683 2.78721 11.7037 3.21455 12.244 3.75435C12.7843 4.29415 13.2121 4.92891 13.5272 5.65863C13.8424 6.38837 14 7.16808 14 7.99777C14 8.82747 13.8426 9.60752 13.5277 10.3379C13.2128 11.0683 12.7854 11.7037 12.2456 12.244C11.7058 12.7843 11.0711 13.2121 10.3414 13.5272C9.61163 13.8424 8.83192 14 8.00223 14ZM8 13.3333C9.48889 13.3333 10.75 12.8167 11.7833 11.7833C12.8167 10.75 13.3333 9.48889 13.3333 8C13.3333 6.51111 12.8167 5.25 11.7833 4.21667C10.75 3.18333 9.48889 2.66667 8 2.66667C6.51111 2.66667 5.25 3.18333 4.21667 4.21667C3.18333 5.25 2.66667 6.51111 2.66667 8C2.66667 9.48889 3.18333 10.75 4.21667 11.7833C5.25 12.8167 6.51111 13.3333 8 13.3333Z" fill="white"/>
</g>
</svg>
