<svg width="24" height="24" viewBox="0 0 24 24" fill="none" xmlns="http://www.w3.org/2000/svg">
<g id="route_24dp_FILL1_wght200_GRAD0_opsz24 1">
<rect x="0.5" y="0.5" width="23" height="23" rx="11.5" stroke="url(#paint0_linear_1319_79196)"/>
<path id="Vector" d="M9.88235 18C9.19635 18 8.61312 17.7597 8.13265 17.2791C7.65206 16.7986 7.41176 16.2154 7.41176 15.5294V9.51441C7 9.36147 6.66176 9.12824 6.39706 8.81471C6.13235 8.50118 6 8.15271 6 7.76929C6 7.27788 6.17141 6.86012 6.51424 6.516C6.85706 6.172 7.27335 6 7.76312 6C8.25288 6 8.66971 6.172 9.01359 6.516C9.35747 6.86012 9.52941 7.27788 9.52941 7.76929C9.52941 8.15271 9.39706 8.50118 9.13235 8.81471C8.86765 9.12824 8.52941 9.36147 8.11765 9.51441V15.5294C8.11765 16.0147 8.29071 16.4301 8.63682 16.7756C8.98294 17.1213 9.399 17.2941 9.885 17.2941C10.371 17.2941 10.7862 17.1213 11.1305 16.7756C11.4749 16.4301 11.6471 16.0147 11.6471 15.5294V8.47059C11.6471 7.78459 11.8874 7.20135 12.3679 6.72088C12.8484 6.24029 13.4316 6 14.1176 6C14.8036 6 15.3869 6.24029 15.8674 6.72088C16.3479 7.20135 16.5882 7.78459 16.5882 8.47059V14.4856C17 14.6385 17.3382 14.8718 17.6029 15.1853C17.8676 15.4988 18 15.8473 18 16.2307C18 16.7221 17.8286 17.1399 17.4858 17.484C17.1429 17.828 16.7266 18 16.2369 18C15.7471 18 15.3303 17.828 14.9864 17.484C14.6425 17.1399 14.4706 16.7221 14.4706 16.2307C14.4706 15.8473 14.6029 15.4959 14.8676 15.1765C15.1324 14.8571 15.4706 14.6268 15.8824 14.4856V8.47059C15.8824 7.98529 15.7093 7.56988 15.3632 7.22435C15.0171 6.87871 14.601 6.70588 14.115 6.70588C13.629 6.70588 13.2138 6.87871 12.8695 7.22435C12.5251 7.56988 12.3529 7.98529 12.3529 8.47059V15.5294C12.3529 16.2154 12.1126 16.7986 11.6321 17.2791C11.1516 17.7597 10.5684 18 9.88235 18Z" fill="white"/>
</g>
<defs>
<linearGradient id="paint0_linear_1319_79196" x1="12" y1="0" x2="12" y2="24" gradientUnits="userSpaceOnUse">
<stop stop-color="#4453DF"/>
<stop offset="1" stop-color="#7F5CED"/>
</linearGradient>
</defs>
</svg>
