<svg width="24" height="24" viewBox="0 0 24 24" fill="none" xmlns="http://www.w3.org/2000/svg">
<g id="noun-search-3549244 1">
<path id="Vector" d="M11.654 17.36C13.1984 17.361 14.6974 16.8376 15.9057 15.8754L20.0573 20.0284L21.1749 18.9104L17.0234 14.7574C17.986 13.54 18.5072 12.0319 18.5016 10.4797C18.4961 8.92751 17.9641 7.42314 16.9928 6.21267C16.0215 5.00219 14.6684 4.15727 13.1546 3.8161C11.6409 3.47493 10.0563 3.65771 8.65991 4.33454C7.26354 5.01137 6.13809 6.14219 5.46766 7.54202C4.79723 8.94186 4.62151 10.5279 4.96923 12.0406C5.31696 13.5533 6.16755 14.9032 7.38187 15.8695C8.59619 16.8358 10.1024 17.3613 11.654 17.36ZM11.654 5.23054C12.6967 5.23054 13.7159 5.53984 14.5829 6.11931C15.4498 6.69879 16.1255 7.52242 16.5245 8.48606C16.9236 9.4497 17.028 10.5101 16.8245 11.533C16.6211 12.556 16.119 13.4957 15.3818 14.2332C14.6445 14.9708 13.7051 15.473 12.6825 15.6765C11.6599 15.88 10.5999 15.7756 9.63659 15.3764C8.67329 14.9773 7.84994 14.3013 7.27067 13.4341C6.69139 12.5668 6.38221 11.5472 6.38221 10.5042C6.38221 9.10554 6.93763 7.76416 7.92629 6.77516C8.91494 5.78616 10.2558 5.23054 11.654 5.23054Z" fill="white" fill-opacity="0.5"/>
</g>
</svg>
