<svg width="24" height="24" viewBox="0 0 24 24" fill="none" xmlns="http://www.w3.org/2000/svg">
<g id="settings_24dp_FILL1_wght200_GRAD0_opsz24 (1) 1">
<rect x="0.5" y="0.5" width="23" height="23" rx="11.5" stroke="url(#paint0_linear_1319_79198)"/>
<path id="Vector" d="M10.7197 18L10.4716 16.0718C10.2525 16.0077 10.0156 15.9068 9.76087 15.7692C9.50613 15.6316 9.28948 15.4842 9.11093 15.327L7.28016 16.0833L6 13.9167L7.58249 12.7577C7.56224 12.6372 7.54554 12.5131 7.53239 12.3853C7.51912 12.2576 7.51248 12.1334 7.51248 12.0128C7.51248 11.9008 7.51912 11.7831 7.53239 11.6597C7.54554 11.5361 7.56224 11.397 7.58249 11.2423L6 10.0833L7.28016 7.94233L9.09772 8.68583C9.3027 8.52006 9.52444 8.3705 9.76293 8.23717C10.0013 8.10383 10.2331 8.00083 10.4583 7.92817L10.7197 6H13.2803L13.5284 7.941C13.7915 8.03078 14.024 8.13378 14.2259 8.25C14.4278 8.36622 14.6357 8.5115 14.8496 8.68583L16.7198 7.94233L18 10.0833L16.3647 11.2808C16.4025 11.4184 16.4237 11.5447 16.4282 11.6597C16.4325 11.7746 16.4347 11.888 16.4347 12C16.4347 12.1034 16.4303 12.2126 16.4215 12.3275C16.4127 12.4425 16.3924 12.5816 16.3607 12.7448L17.9696 13.9167L16.6895 16.0833L14.8496 15.3142C14.6357 15.4885 14.4205 15.6381 14.2041 15.7628C13.9877 15.8876 13.7625 15.9863 13.5284 16.059L13.2803 18H10.7197ZM11.9815 13.6667C12.4602 13.6667 12.8659 13.5051 13.1985 13.182C13.531 12.859 13.6973 12.465 13.6973 12C13.6973 11.535 13.531 11.141 13.1985 10.818C12.8659 10.4949 12.4602 10.3333 11.9815 10.3333C11.5002 10.3333 11.0939 10.4949 10.7626 10.818C10.4313 11.141 10.2657 11.535 10.2657 12C10.2657 12.465 10.4313 12.859 10.7626 13.182C11.0939 13.5051 11.5002 13.6667 11.9815 13.6667Z" fill="white"/>
</g>
<defs>
<linearGradient id="paint0_linear_1319_79198" x1="12" y1="0" x2="12" y2="24" gradientUnits="userSpaceOnUse">
<stop stop-color="#4453DF"/>
<stop offset="1" stop-color="#7F5CED"/>
</linearGradient>
</defs>
</svg>
