<svg width="33" height="33" viewBox="0 0 33 33" fill="none" xmlns="http://www.w3.org/2000/svg">
<g id="share_24dp_FILL0_wght200_GRAD0_opsz24 1">
<path id="Vector" d="M22.6492 25.7189C21.9962 25.7189 21.4404 25.4902 20.9819 25.0326C20.5234 24.5752 20.2941 24.0197 20.2941 23.366C20.2941 23.2408 20.3049 23.1112 20.3266 22.9771C20.3484 22.8429 20.381 22.7168 20.4245 22.5985L13.1376 18.3053C12.9071 18.5648 12.6391 18.7672 12.3339 18.9126C12.0286 19.058 11.7016 19.1307 11.3529 19.1307C10.6993 19.1307 10.1438 18.9022 9.68635 18.4451C9.22878 17.988 9 17.4329 9 16.7799C9 16.1269 9.22878 15.5711 9.68635 15.1126C10.1438 14.6541 10.6993 14.4248 11.3529 14.4248C11.7016 14.4248 12.0286 14.4975 12.3339 14.6429C12.6391 14.7884 12.9071 14.9908 13.1376 15.2502L20.4245 10.9571C20.381 10.8388 20.3484 10.7126 20.3266 10.5785C20.3049 10.4444 20.2941 10.3147 20.2941 10.1895C20.2941 9.53589 20.5227 8.98036 20.9798 8.52295C21.4369 8.06538 21.9919 7.83659 22.6449 7.83659C23.298 7.83659 23.8537 8.06514 24.3122 8.52224C24.7707 8.97934 25 9.5344 25 10.1874C25 10.8404 24.7712 11.3962 24.3136 11.8547C23.8562 12.3132 23.3007 12.5425 22.6471 12.5425C22.2984 12.5425 21.9714 12.4698 21.6661 12.3244C21.3609 12.1789 21.0929 11.9765 20.8624 11.7171L13.5755 16.0102C13.619 16.1285 13.6516 16.2543 13.6734 16.3877C13.6951 16.5208 13.7059 16.6496 13.7059 16.774C13.7059 16.8984 13.6951 17.0284 13.6734 17.1641C13.6516 17.3 13.619 17.427 13.5755 17.5453L20.8624 21.8385C21.0929 21.579 21.3609 21.3766 21.6661 21.2312C21.9714 21.0858 22.2984 21.0131 22.6471 21.0131C23.3007 21.0131 23.8562 21.2416 24.3136 21.6987C24.7712 22.1558 25 22.7109 25 23.3639C25 24.0169 24.7715 24.5727 24.3144 25.0312C23.8573 25.4897 23.3022 25.7189 22.6492 25.7189ZM22.6471 11.6013C23.0344 11.6013 23.3665 11.4629 23.6435 11.186C23.9204 10.909 24.0588 10.5768 24.0588 10.1895C24.0588 9.80224 23.9204 9.47008 23.6435 9.19306C23.3665 8.9162 23.0344 8.77777 22.6471 8.77777C22.2598 8.77777 21.9276 8.9162 21.6506 9.19306C21.3737 9.47008 21.2353 9.80224 21.2353 10.1895C21.2353 10.5768 21.3737 10.909 21.6506 11.186C21.9276 11.4629 22.2598 11.6013 22.6471 11.6013ZM11.3529 18.1895C11.7402 18.1895 12.0724 18.0511 12.3494 17.7742C12.6263 17.4972 12.7647 17.1651 12.7647 16.7778C12.7647 16.3905 12.6263 16.0583 12.3494 15.7813C12.0724 15.5044 11.7402 15.366 11.3529 15.366C10.9656 15.366 10.6335 15.5044 10.3565 15.7813C10.0796 16.0583 9.94118 16.3905 9.94118 16.7778C9.94118 17.1651 10.0796 17.4972 10.3565 17.7742C10.6335 18.0511 10.9656 18.1895 11.3529 18.1895ZM22.6471 24.7778C23.0344 24.7778 23.3665 24.6393 23.6435 24.3625C23.9204 24.0855 24.0588 23.7533 24.0588 23.366C24.0588 22.9787 23.9204 22.6466 23.6435 22.3695C23.3665 22.0927 23.0344 21.9542 22.6471 21.9542C22.2598 21.9542 21.9276 22.0927 21.6506 22.3695C21.3737 22.6466 21.2353 22.9787 21.2353 23.366C21.2353 23.7533 21.3737 24.0855 21.6506 24.3625C21.9276 24.6393 22.2598 24.7778 22.6471 24.7778Z" fill="white" fill-opacity="0.5"/>
</g>
</svg>
