<svg width="88" height="89" viewBox="0 0 88 89" fill="none" xmlns="http://www.w3.org/2000/svg">
<g filter="url(#filter0_f_2816_650)">
<circle cx="44" cy="44.5" r="30" fill="url(#paint0_linear_2816_650)"/>
</g>
<circle cx="43.7856" cy="44.2846" r="27.2143" fill="#09090A"/>
<rect x="32" y="32.5" width="24" height="24" rx="12" fill="url(#paint1_linear_2816_650)"/>
<path d="M41.8824 50.5C41.1964 50.5 40.6131 50.2597 40.1326 49.7791C39.6521 49.2986 39.4118 48.7154 39.4118 48.0294V42.0144C39 41.8615 38.6618 41.6282 38.3971 41.3147C38.1324 41.0012 38 40.6527 38 40.2693C38 39.7779 38.1714 39.3601 38.5142 39.016C38.8571 38.672 39.2734 38.5 39.7631 38.5C40.2529 38.5 40.6697 38.672 41.0136 39.016C41.3575 39.3601 41.5294 39.7779 41.5294 40.2693C41.5294 40.6527 41.3971 41.0012 41.1324 41.3147C40.8676 41.6282 40.5294 41.8615 40.1176 42.0144V48.0294C40.1176 48.5147 40.2907 48.9301 40.6368 49.2756C40.9829 49.6213 41.399 49.7941 41.885 49.7941C42.371 49.7941 42.7862 49.6213 43.1305 49.2756C43.4749 48.9301 43.6471 48.5147 43.6471 48.0294V40.9706C43.6471 40.2846 43.8874 39.7014 44.3679 39.2209C44.8484 38.7403 45.4316 38.5 46.1176 38.5C46.8036 38.5 47.3869 38.7403 47.8674 39.2209C48.3479 39.7014 48.5882 40.2846 48.5882 40.9706V46.9856C49 47.1385 49.3382 47.3718 49.6029 47.6853C49.8676 47.9988 50 48.3473 50 48.7307C50 49.2221 49.8286 49.6399 49.4858 49.984C49.1429 50.328 48.7266 50.5 48.2369 50.5C47.7471 50.5 47.3303 50.328 46.9864 49.984C46.6425 49.6399 46.4706 49.2221 46.4706 48.7307C46.4706 48.3473 46.6029 47.9959 46.8676 47.6765C47.1324 47.3571 47.4706 47.1268 47.8824 46.9856V40.9706C47.8824 40.4853 47.7093 40.0699 47.3632 39.7244C47.0171 39.3787 46.601 39.2059 46.115 39.2059C45.629 39.2059 45.2138 39.3787 44.8695 39.7244C44.5251 40.0699 44.3529 40.4853 44.3529 40.9706V48.0294C44.3529 48.7154 44.1126 49.2986 43.6321 49.7791C43.1516 50.2597 42.5684 50.5 41.8824 50.5Z" fill="white"/>
<defs>
<filter id="filter0_f_2816_650" x="0" y="0.5" width="88" height="88" filterUnits="userSpaceOnUse" color-interpolation-filters="sRGB">
<feFlood flood-opacity="0" result="BackgroundImageFix"/>
<feBlend mode="normal" in="SourceGraphic" in2="BackgroundImageFix" result="shape"/>
<feGaussianBlur stdDeviation="7" result="effect1_foregroundBlur_2816_650"/>
</filter>
<linearGradient id="paint0_linear_2816_650" x1="44" y1="14.5" x2="44" y2="74.5" gradientUnits="userSpaceOnUse">
<stop stop-color="#7F5CED" stop-opacity="0.5"/>
<stop offset="1" stop-color="#4453DF" stop-opacity="0.5"/>
</linearGradient>
<linearGradient id="paint1_linear_2816_650" x1="44" y1="32.5" x2="44" y2="56.5" gradientUnits="userSpaceOnUse">
<stop stop-color="#4453DF"/>
<stop offset="1" stop-color="#7F5CED"/>
</linearGradient>
</defs>
</svg>
