<svg width="24" height="25" viewBox="0 0 24 25" fill="none" xmlns="http://www.w3.org/2000/svg">
<g id="route_24dp_FILL1_wght200_GRAD0_opsz24 1">
<rect y="0.5" width="24" height="24" rx="12" fill="url(#paint0_linear_2816_640)"/>
<g id="Group 44">
<path id="Vector" d="M9.88235 18.5C9.19635 18.5 8.61312 18.2597 8.13265 17.7791C7.65206 17.2986 7.41176 16.7154 7.41176 16.0294V10.0144C7 9.86147 6.66176 9.62824 6.39706 9.31471C6.13235 9.00118 6 8.65271 6 8.26929C6 7.77788 6.17141 7.36012 6.51424 7.016C6.85706 6.672 7.27335 6.5 7.76312 6.5C8.25288 6.5 8.66971 6.672 9.01359 7.016C9.35747 7.36012 9.52941 7.77788 9.52941 8.26929C9.52941 8.65271 9.39706 9.00118 9.13235 9.31471C8.86765 9.62824 8.52941 9.86147 8.11765 10.0144V16.0294C8.11765 16.5147 8.29071 16.9301 8.63682 17.2756C8.98294 17.6213 9.399 17.7941 9.885 17.7941C10.371 17.7941 10.7862 17.6213 11.1305 17.2756C11.4749 16.9301 11.6471 16.5147 11.6471 16.0294V8.97059C11.6471 8.28459 11.8874 7.70135 12.3679 7.22088C12.8484 6.74029 13.4316 6.5 14.1176 6.5C14.8036 6.5 15.3869 6.74029 15.8674 7.22088C16.3479 7.70135 16.5882 8.28459 16.5882 8.97059V14.9856C17 15.1385 17.3382 15.3718 17.6029 15.6853C17.8676 15.9988 18 16.3473 18 16.7307C18 17.2221 17.8286 17.6399 17.4858 17.984C17.1429 18.328 16.7266 18.5 16.2369 18.5C15.7471 18.5 15.3303 18.328 14.9864 17.984C14.6425 17.6399 14.4706 17.2221 14.4706 16.7307C14.4706 16.3473 14.6029 15.9959 14.8676 15.6765C15.1324 15.3571 15.4706 15.1268 15.8824 14.9856V8.97059C15.8824 8.48529 15.7093 8.06988 15.3632 7.72435C15.0171 7.37871 14.601 7.20588 14.115 7.20588C13.629 7.20588 13.2138 7.37871 12.8695 7.72435C12.5251 8.06988 12.3529 8.48529 12.3529 8.97059V16.0294C12.3529 16.7154 12.1126 17.2986 11.6321 17.7791C11.1516 18.2597 10.5684 18.5 9.88235 18.5Z" fill="white"/>
</g>
</g>
<defs>
<linearGradient id="paint0_linear_2816_640" x1="12" y1="0.5" x2="12" y2="24.5" gradientUnits="userSpaceOnUse">
<stop stop-color="#4453DF"/>
<stop offset="1" stop-color="#7F5CED"/>
</linearGradient>
</defs>
</svg>
