<svg width="16" height="17" viewBox="0 0 16 17" fill="none" xmlns="http://www.w3.org/2000/svg">
<g id="check_circle_24dp_E8EAED_FILL1_wght200_GRAD0_opsz24 1">
<path id="Vector" d="M7.041 11.1052L11.3052 6.841L10.8333 6.36917L7.041 10.1615L5.141 8.2615L4.66917 8.73333L7.041 11.1052ZM8.00217 14.5C7.1725 14.5 6.39244 14.3426 5.662 14.0277C4.93167 13.7128 4.29633 13.2854 3.756 12.7457C3.21567 12.2059 2.78794 11.5711 2.47283 10.8413C2.15761 10.1117 2 9.33194 2 8.50217C2 7.6725 2.15744 6.89244 2.47233 6.162C2.78722 5.43167 3.21456 4.79633 3.75433 4.256C4.29411 3.71567 4.92889 3.28794 5.65867 2.97283C6.38833 2.65761 7.16806 2.5 7.99783 2.5C8.8275 2.5 9.60756 2.65744 10.338 2.97233C11.0683 3.28722 11.7037 3.71456 12.244 4.25433C12.7843 4.79411 13.2121 5.42889 13.5272 6.15867C13.8424 6.88833 14 7.66806 14 8.49783C14 9.3275 13.8426 10.1076 13.5277 10.838C13.2128 11.5683 12.7854 12.2037 12.2457 12.744C11.7059 13.2843 11.0711 13.7121 10.3413 14.0272C9.61167 14.3424 8.83194 14.5 8.00217 14.5Z" fill="#2BA472"/>
</g>
</svg>
