<svg width="16" height="17" viewBox="0 0 16 17" fill="none" xmlns="http://www.w3.org/2000/svg">
<g id="hourglass_top_FILL0_wght200_GRAD0_opsz24 (1) 1">
<path id="Vector" d="M5.20521 13.8333H10.7949V11.8333C10.7949 11.0487 10.5252 10.3782 9.98587 9.82183C9.44665 9.26539 8.78471 8.98717 8.00004 8.98717C7.21537 8.98717 6.55343 9.26539 6.01421 9.82183C5.47487 10.3782 5.20521 11.0487 5.20521 11.8333V13.8333ZM3.33337 14.5V13.8333H4.53854V11.8333C4.53854 11.0102 4.79087 10.2801 5.29554 9.643C5.80021 9.00578 6.44698 8.62478 7.23587 8.5C6.44698 8.36667 5.80021 7.98356 5.29554 7.35067C4.79087 6.71778 4.53854 5.98978 4.53854 5.16667V3.16667H3.33337V2.5H12.6667V3.16667H11.4615V5.16667C11.4615 5.98978 11.2092 6.71778 10.7045 7.35067C10.1999 7.98356 9.5531 8.36667 8.76421 8.5C9.5531 8.62478 10.1999 9.00578 10.7045 9.643C11.2092 10.2801 11.4615 11.0102 11.4615 11.8333V13.8333H12.6667V14.5H3.33337Z" fill="white" fill-opacity="0.25"/>
</g>
</svg>
