<svg width="16" height="12" viewBox="0 0 16 12" fill="none" xmlns="http://www.w3.org/2000/svg">
<g id="Group">
<path id="Vector" fill-rule="evenodd" clip-rule="evenodd" d="M10.3575 0.365518C8.86076 0.353709 7.40491 0.97701 6.35965 2.02843H5.68766C5.68292 2.02843 5.67526 2.02825 5.67053 2.02843C4.64495 2.06862 3.46902 1.86471 2.32193 2.33026C2.32011 2.33099 2.31774 2.32953 2.31628 2.33026C0.517056 3.03754 -0.302572 5.12563 0.100973 6.90895C0.384187 8.45086 1.66307 9.73885 3.25024 9.92154C3.2537 9.92154 3.25808 9.92154 3.26154 9.92154C4.31676 10.0123 5.35159 9.95391 6.35956 9.9671C8.0612 11.7232 10.9038 12.1565 13.0454 10.9523C15.2466 9.80041 16.4441 7.14078 15.8473 4.72781C15.3161 2.25596 12.9959 0.3774 10.4713 0.365518C10.4345 0.365354 10.4 0.364971 10.3631 0.365518H10.3575ZM4.25823 2.75737C4.71863 2.7561 5.20154 2.7762 5.69334 2.75737H5.75031C5.73901 2.77347 5.73282 2.7924 5.72183 2.80863C5.72 2.81094 5.71763 2.812 5.71618 2.81431C4.3738 4.70543 4.41554 7.36808 5.74466 9.23816C4.92228 9.24253 4.11645 9.26543 3.33002 9.19828C2.09162 9.05347 1.04071 7.99784 0.818567 6.77228C0.816744 6.76681 0.814193 6.76061 0.812917 6.75515C0.480992 5.30188 1.18133 3.55911 2.58972 3.00789C2.59155 3.00735 2.5879 3.00283 2.58972 3.00221C3.09942 2.79451 3.66295 2.75898 4.25823 2.75737Z" fill="url(#paint0_linear_1523_22135)"/>
</g>
<defs>
<linearGradient id="paint0_linear_1523_22135" x1="8" y1="0.365234" x2="8" y2="11.633" gradientUnits="userSpaceOnUse">
<stop stop-color="#4453DF"/>
<stop offset="1" stop-color="#7F5CED"/>
</linearGradient>
</defs>
</svg>
