<svg width="24" height="24" viewBox="0 0 24 24" fill="none" xmlns="http://www.w3.org/2000/svg">
<g id="cloud_upload_24dp_FILL1_wght200_GRAD0_opsz24 1">
<path id="Vector" d="M11.5 19H6.5C5.2525 19 4.19067 18.5648 3.3145 17.6943C2.43817 16.8238 2 15.7648 2 14.5173C2 13.3711 2.39167 12.3538 3.175 11.4655C3.95833 10.577 4.93208 10.1 6.09625 10.0345C6.32058 8.57817 6.99042 7.375 8.10575 6.425C9.22108 5.475 10.5192 5 12 5C13.668 5 15.085 5.583 16.251 6.749C17.417 7.915 18 9.332 18 11V12H18.6155C19.5732 12.0308 20.3767 12.3824 21.026 13.0548C21.6753 13.7273 22 14.5423 22 15.5C22 16.4808 21.6618 17.3093 20.9855 17.9855C20.3093 18.6618 19.4808 19 18.5 19H12.5V11.5808L14.6 13.6692L15.3077 12.9808L12 9.673L8.69225 12.9808L9.4 13.6692L11.5 11.5808V19Z" fill="white"/>
</g>
</svg>
