<svg xmlns="http://www.w3.org/2000/svg" width="24" height="24" viewBox="0 0 24 24" fill="none">
  <path d="M9.02312 21.2307L7.35389 18.4153L4.17697 17.7307L4.48849 14.4538L2.34619 11.9999L4.48849 9.54609L4.17697 6.26917L7.35389 5.58454L9.02312 2.76917L12 4.02687L14.977 2.76917L16.6462 5.58454L19.8231 6.26917L19.5116 9.54609L21.6539 11.9999L19.5116 14.4538L19.8231 17.7307L16.6462 18.4153L14.977 21.2307L12 19.973L9.02312 21.2307ZM9.45004 19.9499L12 18.8884L14.5616 19.9499L16 17.5499L18.75 16.9384L18.5 14.0999L20.35 11.9999L18.5 9.88839L18.75 7.04994L16 6.44994L14.55 4.04994L12 5.11149L9.43849 4.04994L8.00004 6.44994L5.25004 7.04994L5.50004 9.88839L3.65004 11.9999L5.50004 14.0999L5.25004 16.9499L8.00004 17.5499L9.45004 19.9499ZM10.95 14.8576L15.9077 9.89994L15.2 9.18072L10.95 13.4307L8.80004 11.2922L8.09234 11.9999L10.95 14.8576Z" fill="#2DC5A4"/>
</svg>