<svg width="40" height="41" viewBox="0 0 40 41" fill="none" xmlns="http://www.w3.org/2000/svg">
<g id="public_FILL1_wght200_GRAD0_opsz24 1">
<path id="Vector" d="M20.0037 30C18.6209 30 17.3208 29.7376 16.1034 29.2128C14.8861 28.688 13.8272 27.9757 12.9266 27.0761C12.0261 26.1764 11.3132 25.1185 10.7879 23.9023C10.2626 22.6861 10 21.3865 10 20.0037C10 18.6209 10.2624 17.3208 10.7872 16.1034C11.312 14.8861 12.0242 13.8272 12.9239 12.9266C13.8236 12.0261 14.8815 11.3132 16.0977 10.7879C17.3139 10.2626 18.6135 10 19.9963 10C21.3791 10 22.6792 10.2624 23.8966 10.7872C25.1139 11.312 26.1728 12.0242 27.0734 12.9239C27.9739 13.8236 28.6868 14.8815 29.2121 16.0977C29.7374 17.3139 30 18.6135 30 19.9963C30 21.3791 29.7376 22.6792 29.2128 23.8966C28.688 25.1139 27.9757 26.1728 27.0761 27.0734C26.1764 27.9739 25.1185 28.6868 23.9023 29.2121C22.6861 29.7374 21.3865 30 20.0037 30ZM18.8889 28.8333V26.6667C18.2778 26.6667 17.7546 26.4491 17.3194 26.0139C16.8843 25.5787 16.6667 25.0556 16.6667 24.4444V23.3333L11.3333 18C11.2778 18.3333 11.2269 18.6667 11.1806 19C11.1343 19.3333 11.1111 19.6667 11.1111 20C11.1111 22.2407 11.8472 24.2037 13.3194 25.8889C14.7917 27.5741 16.6481 28.5556 18.8889 28.8333ZM26.5556 26C26.9259 25.5926 27.2593 25.1528 27.5556 24.6806C27.8519 24.2083 28.0972 23.7176 28.2917 23.2083C28.4861 22.6991 28.6343 22.1759 28.7361 21.6389C28.838 21.1019 28.8889 20.5556 28.8889 20C28.8889 18.1744 28.3878 16.5072 27.3857 14.9984C26.3835 13.4895 25.0328 12.4017 23.3333 11.7351V12.2222C23.3333 12.8333 23.1157 13.3565 22.6806 13.7917C22.2454 14.2269 21.7222 14.4444 21.1111 14.4444H18.8889V16.6667C18.8889 16.9815 18.7824 17.2454 18.5694 17.4583C18.3565 17.6713 18.0926 17.7778 17.7778 17.7778H15.5556V20H22.2222C22.537 20 22.8009 20.1065 23.0139 20.3194C23.2269 20.5324 23.3333 20.7963 23.3333 21.1111V24.4444H24.4444C24.9259 24.4444 25.3611 24.588 25.75 24.875C26.1389 25.162 26.4074 25.537 26.5556 26Z" fill="url(#paint0_linear_32_35799)"/>
</g>
<defs>
<linearGradient id="paint0_linear_32_35799" x1="20" y1="10" x2="20" y2="30" gradientUnits="userSpaceOnUse">
<stop stop-color="#4AA29C"/>
<stop offset="1" stop-color="#8B3DA7"/>
</linearGradient>
</defs>
</svg>
