<svg width="16" height="17" viewBox="0 0 16 17" fill="none" xmlns="http://www.w3.org/2000/svg">
<g id="public_FILL0_wght200_GRAD0_opsz24 1">
<path id="Vector" d="M8.00217 14.166C7.1725 14.166 6.39244 14.0086 5.662 13.6937C4.93167 13.3788 4.29633 12.9515 3.756 12.4117C3.21567 11.8719 2.78794 11.2371 2.47283 10.5073C2.15761 9.77768 2 8.99796 2 8.16818C2 7.33852 2.15744 6.55846 2.47233 5.82802C2.78722 5.09768 3.21456 4.46235 3.75433 3.92202C4.29411 3.38168 4.92889 2.95396 5.65867 2.63885C6.38833 2.32363 7.16806 2.16602 7.99783 2.16602C8.8275 2.16602 9.60756 2.32346 10.338 2.63835C11.0683 2.95324 11.7037 3.38057 12.244 3.92035C12.7843 4.46013 13.2121 5.0949 13.5272 5.82468C13.8424 6.55435 14 7.33407 14 8.16385C14 8.99352 13.8426 9.77357 13.5277 10.504C13.2128 11.2343 12.7854 11.8697 12.2457 12.41C11.7059 12.9503 11.0711 13.3781 10.3413 13.6932C9.61167 14.0084 8.83194 14.166 8.00217 14.166ZM7.33333 13.466V12.166C6.96667 12.166 6.65278 12.0355 6.39167 11.7743C6.13056 11.5132 6 11.1993 6 10.8327V10.166L2.8 6.96602C2.76667 7.16602 2.73611 7.36602 2.70833 7.56602C2.68056 7.76602 2.66667 7.96602 2.66667 8.16602C2.66667 9.51046 3.10833 10.6882 3.99167 11.6993C4.875 12.7105 5.98889 13.2993 7.33333 13.466ZM11.9333 11.766C12.1556 11.5216 12.3556 11.2577 12.5333 10.9743C12.7111 10.691 12.8583 10.3966 12.975 10.091C13.0917 9.78546 13.1806 9.47157 13.2417 9.14935C13.3028 8.82713 13.3333 8.49935 13.3333 8.16602C13.3333 7.07068 13.0327 6.07035 12.4313 5.16502C11.8301 4.25968 11.0197 3.60702 10 3.20702V3.49935C10 3.86602 9.86944 4.1799 9.60833 4.44102C9.34722 4.70213 9.03333 4.83268 8.66667 4.83268H7.33333V6.16602C7.33333 6.3549 7.26944 6.51324 7.14167 6.64102C7.01389 6.76879 6.85556 6.83268 6.66667 6.83268H5.33333V8.16602H9.33333C9.52222 8.16602 9.68056 8.2299 9.80833 8.35768C9.93611 8.48546 10 8.64379 10 8.83268V10.8327H10.6667C10.9556 10.8327 11.2167 10.9188 11.45 11.091C11.6833 11.2632 11.8444 11.4882 11.9333 11.766Z" fill="white" fill-opacity="0.25"/>
</g>
</svg>
