<svg width="24" height="24" viewBox="0 0 24 24" fill="none" xmlns="http://www.w3.org/2000/svg">
<g id="check_box_24dp_FILL1_wght200_GRAD0_opsz24 1">
<path id="Vector" d="M10.6 15.5078L16.9962 9.1115L16.2885 8.40375L10.6 14.0922L7.75 11.2422L7.04225 11.95L10.6 15.5078ZM5.6155 20C5.15517 20 4.77083 19.8458 4.4625 19.5375C4.15417 19.2292 4 18.8448 4 18.3845V5.6155C4 5.15517 4.15417 4.77083 4.4625 4.4625C4.77083 4.15417 5.15517 4 5.6155 4H18.3845C18.8448 4 19.2292 4.15417 19.5375 4.4625C19.8458 4.77083 20 5.15517 20 5.6155V18.3845C20 18.8448 19.8458 19.2292 19.5375 19.5375C19.2292 19.8458 18.8448 20 18.3845 20H5.6155Z" fill="white"/>
</g>
</svg>
