<svg width="32" height="32" viewBox="0 0 32 32" fill="none" xmlns="http://www.w3.org/2000/svg">
  <path d="M16.1422 17.1726C14.6644 17.1726 13.418 16.6761 12.403 15.6832C11.3881 14.6903 10.8806 13.4711 10.8806 12.0254C10.8806 10.5797 11.3881 9.3604 12.403 8.36751C13.418 7.37462 14.6644 6.87818 16.1422 6.87818C17.62 6.87818 18.8664 7.37462 19.8813 8.36751C20.8963 9.3604 21.4038 10.5797 21.4038 12.0254C21.4038 13.4711 20.8963 14.6903 19.8813 15.6832C18.8664 16.6761 17.62 17.1726 16.1422 17.1726ZM16.1422 14.797C16.9475 14.797 17.6211 14.532 18.1628 14.0021C18.7045 13.4721 18.9754 12.8132 18.9754 12.0254C18.9754 11.2376 18.7045 10.5787 18.1628 10.0487C17.6211 9.51872 16.9475 9.25374 16.1422 9.25374C15.3369 9.25374 14.6633 9.51872 14.1216 10.0487C13.5798 10.5787 13.309 11.2376 13.309 12.0254C13.309 12.8132 13.5798 13.4721 14.1216 14.0021C14.6633 14.532 15.3369 14.797 16.1422 14.797ZM16.1422 31C12.6407 30.066 9.74158 28.0498 7.44495 24.9513C5.14832 21.8528 4 18.3888 4 14.5594V5.44669L16.1422 1L28.2844 5.44669V14.5594C28.2844 18.3888 27.136 21.8528 24.8394 24.9513C22.5428 28.0498 19.6437 30.066 16.1422 31ZM16.1422 3.52789L6.4284 7.07611V14.5594C6.4284 16.066 6.64893 17.5229 7.08999 18.93C7.53108 20.3371 8.14391 21.6498 8.92849 22.8681C10.0202 22.3239 11.1634 21.8985 12.3579 21.5919C13.5524 21.2853 14.8138 21.132 16.1422 21.132C17.4706 21.132 18.732 21.2853 19.9265 21.5919C21.121 21.8985 22.2641 22.3239 23.3559 22.8681C24.1405 21.6498 24.7533 20.3371 25.1944 18.93C25.6354 17.5229 25.856 16.066 25.856 14.5594V7.07611L16.1422 3.52789ZM16.1422 23.5076C15.0981 23.5076 14.0941 23.6183 13.13 23.8396C12.1659 24.0609 11.2552 24.3716 10.3979 24.7716C11.2012 25.6447 12.0849 26.3995 13.049 27.0361C14.0131 27.6726 15.0442 28.1595 16.1422 28.4965C17.2402 28.1595 18.2687 27.6726 19.2276 27.0361C20.1865 26.3995 21.0676 25.6447 21.8708 24.7716C21.0136 24.3716 20.1056 24.0609 19.1466 23.8396C18.1877 23.6183 17.1862 23.5076 16.1422 23.5076Z" fill="url(#paint0_linear_1502_49778)"/>
  <defs>
    <linearGradient id="paint0_linear_1502_49778" x1="16.1422" y1="1" x2="16.1422" y2="31" gradientUnits="userSpaceOnUse">
      <stop stop-color="#4AA29C"/>
      <stop offset="0.9998" stop-color="#8B3DA7"/>
      <stop offset="0.9999" stop-color="#010202" stop-opacity="0.0104167"/>
      <stop offset="1" stop-opacity="0"/>
    </linearGradient>
  </defs>
</svg>