<svg width="41" height="41" viewBox="0 0 41 41" fill="none" xmlns="http://www.w3.org/2000/svg">
<g id="shield_person_FILL0_wght300_GRAD0_opsz24 2">
<path id="Vector" d="M20 21.4874C18.9046 21.4874 17.9808 21.1194 17.2285 20.3835C16.4762 19.6475 16.1 18.7438 16.1 17.6722C16.1 16.6006 16.4762 15.6969 17.2285 14.9609C17.9808 14.225 18.9046 13.857 20 13.857C21.0954 13.857 22.0192 14.225 22.7715 14.9609C23.5238 15.6969 23.9 16.6006 23.9 17.6722C23.9 18.7438 23.5238 19.6475 22.7715 20.3835C22.0192 21.1194 21.0954 21.4874 20 21.4874ZM20 19.7266C20.5969 19.7266 21.0962 19.5302 21.4977 19.1374C21.8993 18.7445 22.1 18.2561 22.1 17.6722C22.1 17.0883 21.8993 16.5999 21.4977 16.207C21.0962 15.8142 20.5969 15.6178 20 15.6178C19.4031 15.6178 18.9038 15.8142 18.5023 16.207C18.1007 16.5999 17.9 17.0883 17.9 17.6722C17.9 18.2561 18.1007 18.7445 18.5023 19.1374C18.9038 19.5302 19.4031 19.7266 20 19.7266ZM20 31.7365C17.4046 31.0442 15.2558 29.5498 13.5535 27.2531C11.8512 24.9565 11 22.3889 11 19.5505V12.796L20 9.5L29 12.796V19.5505C29 22.3889 28.1488 24.9565 26.4465 27.2531C24.7442 29.5498 22.5954 31.0442 20 31.7365ZM20 11.3737L12.8 14.0037V19.5505C12.8 20.6672 12.9634 21.747 13.2904 22.79C13.6173 23.833 14.0715 24.806 14.6531 25.709C15.4623 25.3057 16.3096 24.9904 17.195 24.7631C18.0804 24.5359 19.0154 24.4222 20 24.4222C20.9846 24.4222 21.9196 24.5359 22.805 24.7631C23.6904 24.9904 24.5377 25.3057 25.3469 25.709C25.9285 24.806 26.3827 23.833 26.7096 22.79C27.0366 21.747 27.2 20.6672 27.2 19.5505V14.0037L20 11.3737ZM20 26.183C19.2261 26.183 18.4819 26.2651 17.7673 26.4291C17.0527 26.5932 16.3777 26.8234 15.7423 27.1199C16.3377 27.7671 16.9927 28.3266 17.7073 28.7984C18.4219 29.2702 19.1861 29.6311 20 29.8809C20.8139 29.6311 21.5762 29.2702 22.2869 28.7984C22.9977 28.3266 23.6508 27.7671 24.2462 27.1199C23.6108 26.8234 22.9377 26.5932 22.2269 26.4291C21.5162 26.2651 20.7739 26.183 20 26.183Z" fill="url(#paint0_linear_1418_49720)" fill-opacity="0.6"/>
</g>
<defs>
<linearGradient id="paint0_linear_1418_49720" x1="20" y1="9.5" x2="20" y2="31.7365" gradientUnits="userSpaceOnUse">
<stop stop-color="#fff"/>
</linearGradient>
</defs>
</svg>
