<svg width="24" height="24" viewBox="0 0 24 24" fill="none" xmlns="http://www.w3.org/2000/svg">
<g id="verified_user_FILL0_wght200_GRAD0_opsz24 1">
<path id="Vector" d="M10.95 14.8577L15.9077 9.90001L15.1942 9.18653L10.95 13.4308L8.81155 11.2923L8.09808 12.0058L10.95 14.8577ZM12 20.9616C9.99102 20.3654 8.32211 19.1484 6.99327 17.3106C5.66442 15.4728 5 13.4026 5 11.1V5.69231L12 3.07693L19 5.69231V11.1C19 13.4026 18.3356 15.4728 17.0067 17.3106C15.6779 19.1484 14.009 20.3654 12 20.9616ZM12 19.9C13.7333 19.35 15.1667 18.25 16.3 16.6C17.4333 14.95 18 13.1167 18 11.1V6.37501L12 4.14423L6 6.37501V11.1C6 13.1167 6.56667 14.95 7.7 16.6C8.83333 18.25 10.2667 19.35 12 19.9Z" fill="white"/>
</g>
</svg>
