<svg width="32" height="18" viewBox="0 0 32 18" fill="none" xmlns="http://www.w3.org/2000/svg">
  <path d="M23.6191 0.618992C25.9471 0.618992 27.9259 1.43347 29.5555 3.06243C31.1852 4.69138 32 6.66939 32 8.99646C32 11.3235 31.1852 13.3027 29.5555 14.934C27.9259 16.5652 25.9471 17.3809 23.6191 17.3809L8.38094 17.3809C6.0529 17.3809 4.07408 16.5664 2.44447 14.9374C0.814825 13.3085 1.90735e-06 11.3305 1.90735e-06 9.00339C1.90735e-06 6.6763 0.814825 4.69713 2.44447 3.06589C4.07408 1.43462 6.0529 0.618992 8.38094 0.618992L23.6191 0.618992ZM23.6208 4.80948C22.4572 4.80948 21.4677 5.21672 20.6521 6.03119C19.8364 6.84567 19.4286 7.83468 19.4286 8.99821C19.4286 10.1617 19.8359 11.1513 20.6503 11.9669C21.4648 12.7826 22.4538 13.1904 23.6174 13.1904C24.7809 13.1904 25.7705 12.7831 26.5861 11.9687C27.4017 11.1542 27.8095 10.1652 27.8095 9.00164C27.8095 7.83811 27.4023 6.84853 26.5878 6.03291C25.7733 5.21729 24.7843 4.80948 23.6208 4.80948Z" fill="url(#paint0_linear_1502_49783)"/>
  <defs>
    <linearGradient id="paint0_linear_1502_49783" x1="16" y1="17.3809" x2="16" y2="0.618992" gradientUnits="userSpaceOnUse">
      <stop stop-color="#8B3DA7"/>
      <stop offset="1" stop-color="#4AA29C"/>
    </linearGradient>
  </defs>
</svg>