<svg width="32" height="18" viewBox="0 0 32 18" fill="none" xmlns="http://www.w3.org/2000/svg">
<path d="M8.38093 17.381C6.0529 17.381 4.07408 16.5665 2.44446 14.9376C0.814821 13.3086 0 11.3306 0 9.00354C0 6.67645 0.814821 4.69728 2.44446 3.06604C4.07408 1.43477 6.0529 0.619141 8.38093 0.619141H23.6191C25.9471 0.619141 27.9259 1.43362 29.5555 3.06258C31.1852 4.69153 32 6.66954 32 8.99661C32 11.3237 31.1852 13.3029 29.5555 14.9341C27.9259 16.5654 25.9471 17.381 23.6191 17.381H8.38093ZM8.37922 13.1905C9.54275 13.1905 10.5323 12.7833 11.3479 11.9688C12.1636 11.1543 12.5714 10.1653 12.5714 9.00179C12.5714 7.83826 12.1641 6.84868 11.3497 6.03306C10.5352 5.21744 9.54618 4.80963 8.38265 4.80963C7.21912 4.80963 6.22954 5.21687 5.41392 6.03134C4.5983 6.84582 4.19049 7.83483 4.19049 8.99836C4.19049 10.1619 4.59772 11.1515 5.4122 11.9671C6.22668 12.7827 7.21569 13.1905 8.37922 13.1905Z" fill="white" fill-opacity="0.5"/>
</svg> 