<svg width="40" height="41" viewBox="0 0 40 41" fill="none" xmlns="http://www.w3.org/2000/svg">
<g id="person_FILL1_wght400_GRAD0_opsz24 1">
<path id="Vector" d="M20 20.5C18.625 20.5 17.4479 20.0104 16.4687 19.0312C15.4896 18.0521 15 16.875 15 15.5C15 14.125 15.4896 12.9479 16.4687 11.9688C17.4479 10.9896 18.625 10.5 20 10.5C21.375 10.5 22.5521 10.9896 23.5313 11.9688C24.5104 12.9479 25 14.125 25 15.5C25 16.875 24.5104 18.0521 23.5313 19.0312C22.5521 20.0104 21.375 20.5 20 20.5ZM10 30.5V27C10 26.2917 10.1823 25.6406 10.5469 25.0469C10.9115 24.4531 11.3958 24 12 23.6875C13.2917 23.0417 14.6042 22.5573 15.9375 22.2344C17.2708 21.9115 18.625 21.75 20 21.75C21.375 21.75 22.7292 21.9115 24.0625 22.2344C25.3958 22.5573 26.7083 23.0417 28 23.6875C28.6042 24 29.0885 24.4531 29.4531 25.0469C29.8177 25.6406 30 26.2917 30 27V30.5H10Z" fill="url(#paint0_linear_32_45517)"/>
</g>
<defs>
<linearGradient id="paint0_linear_32_45517" x1="20" y1="10.5" x2="20" y2="30.5" gradientUnits="userSpaceOnUse">
<stop stop-color="#4AA29C"/>
<stop offset="1" stop-color="#8B3DA7"/>
</linearGradient>
</defs>
</svg>
