<svg width="20" height="20" viewBox="0 0 20 20" fill="none" xmlns="http://www.w3.org/2000/svg">
<g id="forum_24dp_E8EAED_FILL1_wght200_GRAD0_opsz24 1">
<path id="Vector" d="M6.02552 13.5256C5.84385 13.5256 5.69163 13.4642 5.56885 13.3415C5.44594 13.2185 5.38448 13.0662 5.38448 12.8846V12.0513H15.1761L15.7051 12.5802V5H16.5384C16.72 5 16.8722 5.06146 16.9951 5.18437C17.118 5.30715 17.1795 5.45938 17.1795 5.64104V16.0898L14.6153 13.5256H6.02552ZM2.82031 12.9488V3.14104C2.82031 2.95938 2.88177 2.80715 3.00469 2.68437C3.1276 2.56146 3.27983 2.5 3.46135 2.5H13.3974C13.5789 2.5 13.7311 2.56146 13.8541 2.68437C13.977 2.80715 14.0384 2.95938 14.0384 3.14104V9.74354C14.0384 9.92521 13.977 10.0775 13.8541 10.2004C13.7311 10.3232 13.5789 10.3846 13.3974 10.3846H5.38448L2.82031 12.9488Z" fill="white"/>
</g>
</svg>
