<svg width="16" height="17" viewBox="0 0 16 17" fill="none" xmlns="http://www.w3.org/2000/svg">
<g id="check_circle_FILL0_wght200_GRAD0_opsz24 (1) 1">
<path id="Vector" d="M6.88121 11.1824L11.856 6.2076L11.3056 5.65717L6.88121 10.0815L4.66454 7.86486L4.11411 8.41529L6.88121 11.1824ZM8.00261 15.1431C7.03462 15.1431 6.12456 14.9594 5.27241 14.592C4.42026 14.2247 3.67901 13.7261 3.04865 13.0963C2.4183 12.4666 1.91927 11.726 1.55156 10.8747C1.18385 10.0233 1 9.11364 1 8.14567C1 7.17769 1.18368 6.26762 1.55104 5.41548C1.91841 4.56333 2.41698 3.82208 3.04674 3.19171C3.67651 2.56136 4.41706 2.06234 5.26841 1.69463C6.11976 1.32692 7.02942 1.14307 7.99739 1.14307C8.96538 1.14307 9.87544 1.32674 10.7276 1.6941C11.5797 2.06147 12.321 2.56004 12.9514 3.18981C13.5817 3.81957 14.0807 4.56013 14.4484 5.41147C14.8161 6.26283 15 7.17249 15 8.14046C15 9.10844 14.8163 10.0185 14.449 10.8707C14.0816 11.7228 13.583 12.4641 12.9533 13.0944C12.3235 13.7248 11.5829 14.2238 10.7316 14.5915C9.88024 14.9592 8.97058 15.1431 8.00261 15.1431ZM8 14.3653C9.73704 14.3653 11.2083 13.7625 12.4139 12.557C13.6194 11.3514 14.2222 9.8801 14.2222 8.14307C14.2222 6.40603 13.6194 4.93473 12.4139 3.72918C11.2083 2.52362 9.73704 1.92084 8 1.92084C6.26296 1.92084 4.79167 2.52362 3.58611 3.72918C2.38056 4.93473 1.77778 6.40603 1.77778 8.14307C1.77778 9.8801 2.38056 11.3514 3.58611 12.557C4.79167 13.7625 6.26296 14.3653 8 14.3653Z" fill="#4AA29C"/>
</g>
</svg>
