<svg width="38" height="38" viewBox="0 0 38 38" fill="none" xmlns="http://www.w3.org/2000/svg">
<g id="content_copy_FILL0_wght200_GRAD0_opsz24 (3) 1">
<path id="Vector" d="M14.4327 26.9167C13.7039 26.9167 13.0955 26.6726 12.6073 26.1844C12.1191 25.6962 11.875 25.0877 11.875 24.359V7.30768C11.875 6.57895 12.1191 5.97049 12.6073 5.48229C13.0955 4.9941 13.7039 4.75 14.4327 4.75H26.734C27.4627 4.75 28.0712 4.9941 28.5594 5.48229C29.0476 5.97049 29.2917 6.57895 29.2917 7.30768V24.359C29.2917 25.0877 29.0476 25.6962 28.5594 26.1844C28.0712 26.6726 27.4627 26.9167 26.734 26.9167H14.4327ZM14.4327 25.3333H26.734C26.9776 25.3333 27.2009 25.2318 27.4039 25.0289C27.6068 24.8258 27.7083 24.6026 27.7083 24.359V7.30768C27.7083 7.06411 27.6068 6.84082 27.4039 6.63781C27.2009 6.43483 26.9776 6.33333 26.734 6.33333H14.4327C14.1891 6.33333 13.9658 6.43483 13.7628 6.63781C13.5598 6.84082 13.4583 7.06411 13.4583 7.30768V24.359C13.4583 24.6026 13.5598 24.8258 13.7628 25.0289C13.9658 25.2318 14.1891 25.3333 14.4327 25.3333ZM9.68268 31.6667C8.95395 31.6667 8.34549 31.4226 7.85729 30.9344C7.3691 30.4462 7.125 29.8377 7.125 29.109V10.4743H8.70833V29.109C8.70833 29.3526 8.80983 29.5759 9.01281 29.7789C9.21579 29.9818 9.43908 30.0833 9.68268 30.0833H23.5673V31.6667H9.68268Z" fill="#B0B0B0"/>
</g>
</svg>
