<svg width="30" height="31" viewBox="0 0 30 31" fill="none" xmlns="http://www.w3.org/2000/svg">
<g id="content_copy_FILL0_wght200_GRAD0_opsz24 (3) 1">
<path id="Vector" d="M11.3942 21.75C10.8189 21.75 10.3385 21.5573 9.95312 21.1719C9.56771 20.7865 9.375 20.3061 9.375 19.7308V6.26922C9.375 5.69391 9.56771 5.21354 9.95312 4.82812C10.3385 4.44271 10.8189 4.25 11.3942 4.25H21.1058C21.6811 4.25 22.1615 4.44271 22.5469 4.82812C22.9323 5.21354 23.125 5.69391 23.125 6.26922V19.7308C23.125 20.3061 22.9323 20.7865 22.5469 21.1719C22.1615 21.5573 21.6811 21.75 21.1058 21.75H11.3942ZM11.3942 20.5H21.1058C21.2981 20.5 21.4744 20.4199 21.6346 20.2596C21.7949 20.0994 21.875 19.9231 21.875 19.7308V6.26922C21.875 6.07693 21.7949 5.90065 21.6346 5.74038C21.4744 5.58013 21.2981 5.5 21.1058 5.5H11.3942C11.2019 5.5 11.0256 5.58013 10.8654 5.74038C10.7051 5.90065 10.625 6.07693 10.625 6.26922V19.7308C10.625 19.9231 10.7051 20.0994 10.8654 20.2596C11.0256 20.4199 11.2019 20.5 11.3942 20.5ZM7.64422 25.5C7.06891 25.5 6.58854 25.3073 6.20312 24.9219C5.81771 24.5365 5.625 24.0561 5.625 23.4808V8.76922H6.875V23.4808C6.875 23.6731 6.95513 23.8494 7.11538 24.0096C7.27563 24.1699 7.45191 24.25 7.64422 24.25H18.6058V25.5H7.64422Z" fill="white"/>
</g>
</svg>
