<svg width="2" height="2" viewBox="0 0 25 25" fill="none" xmlns="http://www.w3.org/2000/svg">
<g id="description_FILL0_wght200_GRAD0_opsz24 (1) 1">
<path id="Vector" d="M9 18H16V17H9V18ZM9 14H16V13H9V14ZM7.11537 21.5C6.65512 21.5 6.27083 21.3458 5.9625 21.0375C5.65417 20.7292 5.5 20.3449 5.5 19.8846V5.11537C5.5 4.65512 5.65417 4.27083 5.9625 3.9625C6.27083 3.65417 6.65512 3.5 7.11537 3.5H15L19.5 8V19.8846C19.5 20.3449 19.3458 20.7292 19.0375 21.0375C18.7292 21.3458 18.3449 21.5 17.8846 21.5H7.11537ZM14.5 8.5V4.5H7.11537C6.96154 4.5 6.82052 4.5641 6.6923 4.6923C6.5641 4.82052 6.5 4.96154 6.5 5.11537V19.8846C6.5 20.0385 6.5641 20.1795 6.6923 20.3077C6.82052 20.4359 6.96154 20.5 7.11537 20.5H17.8846C18.0385 20.5 18.1795 20.4359 18.3077 20.3077C18.4359 20.1795 18.5 20.0385 18.5 19.8846V8.5H14.5Z" fill="white"/>
</g>
</svg>
