<svg width="16" height="17" viewBox="0 0 16 17" fill="none" xmlns="http://www.w3.org/2000/svg">
<g id="delete_FILL0_wght200_GRAD0_opsz24 1">
<path id="Vector" d="M3.61537 16.5002C3.16794 16.5002 2.78685 16.3428 2.4721 16.0281C2.15737 15.7134 2 15.3323 2 14.8848V2.50021H1V1.50021H5V0.730957H11V1.50021H15V2.50021H14V14.8848C14 15.3451 13.8458 15.7294 13.5375 16.0377C13.2292 16.346 12.8449 16.5002 12.3846 16.5002H3.61537ZM13 2.50021H3V14.8848C3 15.0643 3.05769 15.2118 3.17308 15.3271C3.28846 15.4425 3.43589 15.5002 3.61537 15.5002H12.3846C12.5385 15.5002 12.6795 15.4361 12.8077 15.3079C12.9359 15.1797 13 15.0387 13 14.8848V2.50021ZM5.80768 13.5002H6.8077V4.50021H5.80768V13.5002ZM9.1923 13.5002H10.1923V4.50021H9.1923V13.5002Z" fill="white"/>
</g>
</svg>
