<svg width="24" height="24" viewBox="0 0 24 24" fill="none" xmlns="http://www.w3.org/2000/svg">
<g id="delete_forever_FILL0_wght200_GRAD0_opsz24 1">
<path id="Vector" d="M9.4 15.8077L12 13.2077L14.6 15.8077L15.3077 15.1L12.7077 12.5L15.3077 9.89996L14.6 9.19226L12 11.7923L9.4 9.19226L8.6923 9.89996L11.2923 12.5L8.6923 15.1L9.4 15.8077ZM7.61537 20C7.15512 20 6.77083 19.8458 6.4625 19.5375C6.15417 19.2291 6 18.8448 6 18.3846V5.99996H5V4.99996H9V4.23071H15V4.99996H19V5.99996H18V18.3846C18 18.8448 17.8458 19.2291 17.5375 19.5375C17.2292 19.8458 16.8449 20 16.3846 20H7.61537ZM17 5.99996H7V18.3846C7 18.5384 7.0641 18.6794 7.1923 18.8077C7.32052 18.9359 7.46154 19 7.61537 19H16.3846C16.5385 19 16.6795 18.9359 16.8077 18.8077C16.9359 18.6794 17 18.5384 17 18.3846V5.99996Z" fill="#E57575"/>
</g>
</svg>
