<svg width="18" height="18" viewBox="0 0 18 18" fill="none" xmlns="http://www.w3.org/2000/svg">
<g id="Group 26">
<path id="Vector" d="M15.8698 0.5H5.8802C5.11911 0.5 4.5 1.03542 4.5 1.69422V3.62406H5.72659V1.76173C5.75684 1.74544 5.81038 1.72681 5.8802 1.72681H15.8698C15.9396 1.72681 15.9932 1.74544 16.0234 1.76173V11.9883C15.9932 12.0046 15.9396 12.0232 15.8698 12.0232H13.7913V13.25H15.8698C16.6309 13.25 17.25 12.7146 17.25 12.0558V1.69422C17.25 1.03542 16.6286 0.5 15.8698 0.5Z" fill="white"/>
<path id="Vector_2" d="M13 16.8878V5.36457C13 5.02469 12.7254 4.75 12.3855 4.75H0.864458C0.526972 4.75 0.25 5.02469 0.25 5.36457V16.8878C0.25 17.2276 0.524644 17.5 0.864458 17.5H12.3855C12.7254 17.5 13 17.2253 13 16.8878ZM11.7734 16.2732H1.47892V5.97681H11.7734V16.2732Z" fill="white"/>
<path id="Vector_3" d="M3.20165 14.3125L9.39322 8.59524V14.1761H9.8125V8.12888C9.8125 8.07829 9.79106 8.02989 9.75294 7.99249C9.71244 7.9573 9.66003 7.9375 9.60286 7.9375H3.05395V8.32466L9.09781 8.32246L2.90625 14.0397L3.20165 14.3125Z" fill="white"/>
</g>
</svg>
