<svg width="100" height="100" viewBox="0 0 24 25" fill="none" xmlns="http://www.w3.org/2000/svg">
<g id="lock_FILL0_wght200_GRAD0_opsz24 1">
<path id="Vector" d="M7.43589 20.7002C7.03817 20.7002 6.69942 20.5603 6.41964 20.2806C6.13988 20.0008 6 19.662 6 19.2643V11.4694C6 11.0717 6.13988 10.733 6.41964 10.4532C6.69942 10.1734 7.03817 10.0335 7.43589 10.0335H8.66667V8.25575C8.66667 7.26544 9.01168 6.42527 9.70171 5.73524C10.3917 5.04521 11.2319 4.7002 12.2222 4.7002C13.2125 4.7002 14.0527 5.04521 14.7427 5.73524C15.4328 6.42527 15.7778 7.26544 15.7778 8.25575V10.0335H17.0086C17.4063 10.0335 17.745 10.1734 18.0248 10.4532C18.3046 10.733 18.4444 11.0717 18.4444 11.4694V19.2643C18.4444 19.662 18.3046 20.0008 18.0248 20.2806C17.745 20.5603 17.4063 20.7002 17.0086 20.7002H7.43589ZM7.43589 19.8113H17.0086C17.1681 19.8113 17.2991 19.76 17.4017 19.6575C17.5043 19.5549 17.5556 19.4238 17.5556 19.2643V11.4694C17.5556 11.3099 17.5043 11.1788 17.4017 11.0763C17.2991 10.9737 17.1681 10.9224 17.0086 10.9224H7.43589C7.27635 10.9224 7.1453 10.9737 7.04273 11.0763C6.94017 11.1788 6.88889 11.3099 6.88889 11.4694V19.2643C6.88889 19.4238 6.94017 19.5549 7.04273 19.6575C7.1453 19.76 7.27635 19.8113 7.43589 19.8113ZM12.2222 16.7002C12.5972 16.7002 12.9131 16.5717 13.1701 16.3147C13.4271 16.0578 13.5556 15.7418 13.5556 15.3669C13.5556 14.9919 13.4271 14.676 13.1701 14.419C12.9131 14.162 12.5972 14.0335 12.2222 14.0335C11.8473 14.0335 11.5313 14.162 11.2744 14.419C11.0174 14.676 10.8889 14.9919 10.8889 15.3669C10.8889 15.7418 11.0174 16.0578 11.2744 16.3147C11.5313 16.5717 11.8473 16.7002 12.2222 16.7002ZM9.55556 10.0335H14.8889V8.25575C14.8889 7.51501 14.6296 6.88538 14.1111 6.36686C13.5926 5.84834 12.963 5.58908 12.2222 5.58908C11.4815 5.58908 10.8519 5.84834 10.3333 6.36686C9.81481 6.88538 9.55556 7.51501 9.55556 8.25575V10.0335Z" fill="#444257"/>
</g>
</svg>
