<svg width="16" height="16" viewBox="0 0 16 16" fill="none" xmlns="http://www.w3.org/2000/svg">
<g id="task_alt_FILL0_wght400_GRAD0_opsz24 1">
<path id="Vector" d="M8.00016 14.6666C7.07794 14.6666 6.21127 14.4916 5.40016 14.1416C4.58905 13.7916 3.8835 13.3166 3.2835 12.7166C2.6835 12.1166 2.2085 11.4111 1.8585 10.6C1.5085 9.78887 1.3335 8.9222 1.3335 7.99998C1.3335 7.07776 1.5085 6.21109 1.8585 5.39998C2.2085 4.58887 2.6835 3.88331 3.2835 3.28331C3.8835 2.68331 4.58905 2.20831 5.40016 1.85831C6.21127 1.50831 7.07794 1.33331 8.00016 1.33331C8.72238 1.33331 9.40572 1.43887 10.0502 1.64998C10.6946 1.86109 11.2891 2.15554 11.8335 2.53331L10.8668 3.51665C10.4446 3.24998 9.99461 3.04165 9.51683 2.89165C9.03905 2.74165 8.5335 2.66665 8.00016 2.66665C6.52238 2.66665 5.26405 3.18609 4.22516 4.22498C3.18627 5.26387 2.66683 6.5222 2.66683 7.99998C2.66683 9.47776 3.18627 10.7361 4.22516 11.775C5.26405 12.8139 6.52238 13.3333 8.00016 13.3333C9.47794 13.3333 10.7363 12.8139 11.7752 11.775C12.8141 10.7361 13.3335 9.47776 13.3335 7.99998C13.3335 7.79998 13.3224 7.59998 13.3002 7.39998C13.2779 7.19998 13.2446 7.00553 13.2002 6.81665L14.2835 5.73331C14.4057 6.08887 14.5002 6.45553 14.5668 6.83331C14.6335 7.21109 14.6668 7.59998 14.6668 7.99998C14.6668 8.9222 14.4918 9.78887 14.1418 10.6C13.7918 11.4111 13.3168 12.1166 12.7168 12.7166C12.1168 13.3166 11.4113 13.7916 10.6002 14.1416C9.78905 14.4916 8.92238 14.6666 8.00016 14.6666ZM7.06683 11.0666L4.2335 8.23331L5.16683 7.29998L7.06683 9.19998L13.7335 2.51665L14.6668 3.44998L7.06683 11.0666Z" fill="#2DC5A4"/>
</g>
</svg>
