<svg width="14" height="14" viewBox="0 0 14 14" fill="none" xmlns="http://www.w3.org/2000/svg">
  <path d="M7 10.5769L3.46152 7.03845L4.16923 6.31923L6.5 8.65V0H7.5V8.65L9.83078 6.31923L10.5385 7.03845L7 10.5769ZM1.61537 14C1.15512 14 0.770833 13.8458 0.4625 13.5375C0.154167 13.2292 0 12.8449 0 12.3846V9.96155H1V12.3846C1 12.5385 1.0641 12.6795 1.1923 12.8077C1.32052 12.9359 1.46154 13 1.61537 13H12.3846C12.5385 13 12.6795 12.9359 12.8077 12.8077C12.9359 12.6795 13 12.5385 13 12.3846V9.96155H14V12.3846C14 12.8449 13.8458 13.2292 13.5375 13.5375C13.2292 13.8458 12.8449 14 12.3846 14H1.61537Z" fill="white"/>
</svg>