<svg width="24" height="25" viewBox="0 0 24 25" fill="none" xmlns="http://www.w3.org/2000/svg">
<g id="paid_24dp_FILL1_wght200_GRAD0_opsz24 1">
<path id="Vector" d="M11.4845 18.7835H12.4655V17.6102C13.1833 17.5501 13.8711 17.2924 14.5288 16.8372C15.1866 16.3821 15.5155 15.6756 15.5155 14.718C15.5155 14.018 15.3027 13.4211 14.877 12.9275C14.4513 12.434 13.6385 11.9706 12.4385 11.5372C11.3358 11.1526 10.6313 10.8224 10.325 10.5467C10.0187 10.2712 9.8655 9.8783 9.8655 9.36797C9.8655 8.85764 10.0645 8.43264 10.4625 8.09297C10.8605 7.7533 11.3897 7.58347 12.05 7.58347C12.5577 7.58347 12.9808 7.6998 13.3193 7.93247C13.6578 8.16514 13.9321 8.4603 14.1423 8.81797L15.0115 8.47572C14.7768 7.99489 14.4329 7.5923 13.9798 7.26797C13.5266 6.94364 13.0385 6.76289 12.5155 6.72572V5.55247H11.5345V6.72572C10.6628 6.87055 10.0033 7.19555 9.55575 7.70072C9.10825 8.20589 8.8845 8.76164 8.8845 9.36797C8.8845 10.0871 9.1105 10.6628 9.5625 11.095C10.0145 11.527 10.777 11.9372 11.85 12.3257C12.9257 12.7219 13.6484 13.0796 14.0182 13.3987C14.3881 13.7179 14.573 14.1576 14.573 14.718C14.573 15.4218 14.3163 15.9286 13.803 16.2382C13.2895 16.5477 12.7385 16.7025 12.15 16.7025C11.5743 16.7025 11.0548 16.5349 10.5912 16.1997C10.1279 15.8644 9.75775 15.3871 9.48075 14.768L8.6 15.1487C8.88467 15.8334 9.26642 16.3671 9.74525 16.7497C10.2241 17.1324 10.8038 17.4026 11.4845 17.5602V18.7835ZM12 21.168C10.7577 21.168 9.58908 20.9311 8.49425 20.4575C7.39942 19.9836 6.44683 19.3416 5.6365 18.5315C4.82633 17.7211 4.18433 16.7686 3.7105 15.6737C3.23683 14.5789 3 13.4103 3 12.168C3 10.9256 3.23683 9.75705 3.7105 8.66222C4.18433 7.56739 4.82633 6.6148 5.6365 5.80447C6.44683 4.9943 7.39942 4.3523 8.49425 3.87847C9.58908 3.4048 10.7577 3.16797 12 3.16797C13.2423 3.16797 14.4109 3.4048 15.5057 3.87847C16.6006 4.3523 17.5532 4.9943 18.3635 5.80447C19.1737 6.6148 19.8157 7.56739 20.2895 8.66222C20.7632 9.75705 21 10.9256 21 12.168C21 13.4103 20.7632 14.5789 20.2895 15.6737C19.8157 16.7686 19.1737 17.7211 18.3635 18.5315C17.5532 19.3416 16.6006 19.9836 15.5057 20.4575C14.4109 20.9311 13.2423 21.168 12 21.168Z" fill="#E8EAED"/>
</g>
</svg>
