<svg width="24" height="25" viewBox="0 0 24 25" fill="none" xmlns="http://www.w3.org/2000/svg">
<g id="database_24dp_FILL1_wght200_GRAD0_opsz24 1">
<path id="Vector" d="M12.0192 11.6016C14.2501 11.6016 16.1411 11.2611 17.6923 10.5803C19.2436 9.89964 20.0193 9.0734 20.0193 8.10156C20.0193 7.12973 19.2436 6.30348 17.6923 5.62281C16.1411 4.94198 14.2501 4.60156 12.0192 4.60156C9.78842 4.60156 7.89417 4.94198 6.3365 5.62281C4.77883 6.30348 4 7.12973 4 8.10156C4 9.0734 4.77883 9.89964 6.3365 10.5803C7.89417 11.2611 9.78842 11.6016 12.0192 11.6016ZM12 13.1401C12.8115 13.1401 13.6368 13.0756 14.476 12.9468C15.315 12.818 16.1038 12.6272 16.8422 12.3746C17.5808 12.1221 18.2308 11.809 18.7923 11.4353C19.3538 11.0615 19.7628 10.6297 20.0193 10.1401V13.1016C19.7628 13.5912 19.3538 14.023 18.7923 14.3968C18.2308 14.7705 17.5808 15.0836 16.8422 15.3361C16.1038 15.5887 15.315 15.7795 14.476 15.9083C13.6368 16.0371 12.8115 16.1016 12 16.1016C11.1885 16.1016 10.3632 16.0371 9.524 15.9083C8.685 15.7795 7.89942 15.5887 7.16725 15.3361C6.43525 15.0836 5.7885 14.7705 5.227 14.3968C4.66533 14.023 4.25633 13.5912 4 13.1016V10.1401C4.25633 10.6297 4.66533 11.0615 5.227 11.4353C5.7885 11.809 6.43525 12.1221 7.16725 12.3746C7.89942 12.6272 8.685 12.818 9.524 12.9468C10.3632 13.0756 11.1885 13.1401 12 13.1401ZM12 17.6401C12.8115 17.6401 13.6368 17.5756 14.476 17.4468C15.315 17.318 16.1038 17.1272 16.8422 16.8746C17.5808 16.6221 18.2308 16.309 18.7923 15.9353C19.3538 15.5615 19.7628 15.1297 20.0193 14.6401V17.5823C19.7628 18.072 19.3538 18.5037 18.7923 18.8776C18.2308 19.2512 17.5808 19.5643 16.8422 19.8168C16.1038 20.0695 15.315 20.2602 14.476 20.3891C13.6368 20.5179 12.8115 20.5823 12 20.5823C11.1885 20.5823 10.3632 20.5179 9.524 20.3891C8.685 20.2602 7.89942 20.0695 7.16725 19.8168C6.43525 19.5643 5.7885 19.2512 5.227 18.8776C4.66533 18.5037 4.25633 18.072 4 17.5823V14.6401C4.25633 15.1297 4.66533 15.5615 5.227 15.9353C5.7885 16.309 6.43525 16.6221 7.16725 16.8746C7.89942 17.1272 8.685 17.318 9.524 17.4468C10.3632 17.5756 11.1885 17.6401 12 17.6401Z" fill="#E8EAED"/>
</g>
</svg>
