<svg width="41" height="41" viewBox="0 0 41 41" fill="none" xmlns="http://www.w3.org/2000/svg">
<g id="diversity_1_FILL1_wght400_GRAD0_opsz24 1">
<path id="Vector" d="M11.8 20.6737C11.5474 20.1684 11.3509 19.6561 11.2105 19.1368C11.0702 18.6175 11 18.0912 11 17.5579C11 15.986 11.5333 14.6667 12.6 13.6C13.6667 12.5333 14.986 12 16.5579 12C17.4421 12 18.2842 12.186 19.0842 12.5579C19.8842 12.9298 20.5579 13.4456 21.1053 14.1053C21.6526 13.4456 22.3263 12.9298 23.1263 12.5579C23.9263 12.186 24.7684 12 25.6526 12C27.2246 12 28.5439 12.5333 29.6105 13.6C30.6772 14.6667 31.2105 15.986 31.2105 17.5579C31.2105 18.0912 31.1404 18.6175 31 19.1368C30.8596 19.6561 30.6632 20.1684 30.4105 20.6737C30.2561 20.407 30.0737 20.1684 29.8632 19.9579C29.6526 19.7474 29.407 19.5789 29.1263 19.4526C29.2526 19.1298 29.3509 18.814 29.4211 18.5053C29.4912 18.1965 29.5263 17.8807 29.5263 17.5579C29.5263 16.4632 29.1544 15.5439 28.4105 14.8C27.6667 14.0561 26.7474 13.6842 25.6526 13.6842C24.5158 13.6842 23.6421 13.9965 23.0316 14.6211C22.4211 15.2456 21.7789 15.9439 21.1053 16.7158C20.4316 15.9298 19.7895 15.2281 19.1789 14.6105C18.5684 13.993 17.6947 13.6842 16.5579 13.6842C15.4632 13.6842 14.5439 14.0561 13.8 14.8C13.0561 15.5439 12.6842 16.4632 12.6842 17.5579C12.6842 17.8807 12.7193 18.1965 12.7895 18.5053C12.8596 18.814 12.9579 19.1298 13.0842 19.4526C12.8035 19.5789 12.5579 19.7474 12.3474 19.9579C12.1368 20.1684 11.9544 20.407 11.8 20.6737ZM11 28V26.6737C11 26.0561 11.3123 25.5614 11.9368 25.1895C12.5614 24.8175 13.3719 24.6316 14.3684 24.6316C14.5509 24.6316 14.7263 24.6351 14.8947 24.6421C15.0632 24.6491 15.2246 24.6667 15.3789 24.6947C15.1825 24.9754 15.0351 25.2772 14.9368 25.6C14.8386 25.9228 14.7895 26.2667 14.7895 26.6316V28H11ZM16.0526 28V26.6316C16.0526 25.7193 16.5193 24.9825 17.4526 24.4211C18.386 23.8596 19.6035 23.5789 21.1053 23.5789C22.6211 23.5789 23.8421 23.8596 24.7684 24.4211C25.6947 24.9825 26.1579 25.7193 26.1579 26.6316V28H16.0526ZM27.4211 28V26.6316C27.4211 26.2667 27.3754 25.9228 27.2842 25.6C27.193 25.2772 27.0561 24.9754 26.8737 24.6947C27.0281 24.6667 27.186 24.6491 27.3474 24.6421C27.5088 24.6351 27.6737 24.6316 27.8421 24.6316C28.8526 24.6316 29.6667 24.8175 30.2842 25.1895C30.9018 25.5614 31.2105 26.0561 31.2105 26.6737V28H27.4211ZM14.3684 23.7895C13.9053 23.7895 13.5088 23.6246 13.1789 23.2947C12.8491 22.9649 12.6842 22.5684 12.6842 22.1053C12.6842 21.6281 12.8491 21.2281 13.1789 20.9053C13.5088 20.5825 13.9053 20.4211 14.3684 20.4211C14.8456 20.4211 15.2456 20.5825 15.5684 20.9053C15.8912 21.2281 16.0526 21.6281 16.0526 22.1053C16.0526 22.5684 15.8912 22.9649 15.5684 23.2947C15.2456 23.6246 14.8456 23.7895 14.3684 23.7895ZM27.8421 23.7895C27.3789 23.7895 26.9825 23.6246 26.6526 23.2947C26.3228 22.9649 26.1579 22.5684 26.1579 22.1053C26.1579 21.6281 26.3228 21.2281 26.6526 20.9053C26.9825 20.5825 27.3789 20.4211 27.8421 20.4211C28.3193 20.4211 28.7193 20.5825 29.0421 20.9053C29.3649 21.2281 29.5263 21.6281 29.5263 22.1053C29.5263 22.5684 29.3649 22.9649 29.0421 23.2947C28.7193 23.6246 28.3193 23.7895 27.8421 23.7895ZM21.1053 22.9474C20.4035 22.9474 19.807 22.7018 19.3158 22.2105C18.8246 21.7193 18.5789 21.1228 18.5789 20.4211C18.5789 19.7053 18.8246 19.1053 19.3158 18.6211C19.807 18.1368 20.4035 17.8947 21.1053 17.8947C21.8211 17.8947 22.4211 18.1368 22.9053 18.6211C23.3895 19.1053 23.6316 19.7053 23.6316 20.4211C23.6316 21.1228 23.3895 21.7193 22.9053 22.2105C22.4211 22.7018 21.8211 22.9474 21.1053 22.9474Z" fill="url(#paint0_linear_114_5060)" fill-opacity="0.6"/>
</g>
<defs>
<linearGradient id="paint0_linear_114_5060" x1="21.1053" y1="12" x2="21.1053" y2="28" gradientUnits="userSpaceOnUse">
<stop stop-color="#fff"/>
</linearGradient>
</defs>
</svg>
