<svg width="24" height="24" viewBox="0 0 24 24" fill="none" xmlns="http://www.w3.org/2000/svg">
<g id="diversity_1_FILL0_wght200_GRAD0_opsz24 1">
<path id="Vector" d="M2.1423 13.4346C1.76538 12.809 1.48077 12.1718 1.28845 11.5231C1.09615 10.8744 1 10.2333 1 9.6C1 8.04102 1.54359 6.71794 2.63078 5.63078C3.71794 4.54359 5.04102 4 6.6 4C7.61153 4 8.58268 4.2625 9.51345 4.7875C10.4442 5.3125 11.2731 6.06923 12 7.05768C12.7269 6.06923 13.5558 5.3125 14.4865 4.7875C15.4173 4.2625 16.3885 4 17.4 4C18.959 4 20.2821 4.54359 21.3692 5.63078C22.4564 6.71794 23 8.04102 23 9.6C23 10.2077 22.9039 10.8295 22.7115 11.4654C22.5192 12.1013 22.2346 12.7513 21.8577 13.4154C21.7535 13.2777 21.6303 13.1545 21.4882 13.0457C21.3461 12.937 21.1981 12.8461 21.0442 12.7731C21.3609 12.2103 21.5994 11.6654 21.7596 11.1385C21.9199 10.6115 22 10.0987 22 9.6C22 8.31282 21.5551 7.22436 20.6654 6.33463C19.7756 5.44488 18.6872 5 17.4 5C16.3705 5 15.4356 5.30993 14.5952 5.9298C13.7548 6.54968 12.8898 7.43975 12 8.6C11.1103 7.4359 10.2452 6.54488 9.4048 5.92693C8.56442 5.30898 7.62948 5 6.6 5C5.31282 5 4.22436 5.44488 3.33463 6.33463C2.44487 7.22436 2 8.31282 2 9.6C2 10.1244 2.08012 10.6532 2.24037 11.1865C2.40064 11.7199 2.63269 12.2551 2.93652 12.7923C2.78269 12.8782 2.63847 12.9724 2.50385 13.075C2.36923 13.1776 2.24872 13.2974 2.1423 13.4346ZM1 21.0385V20.175C1 19.557 1.32631 19.0465 1.97892 18.6433C2.63156 18.2401 3.47851 18.0384 4.51978 18.0384C4.71044 18.0384 4.89295 18.0458 5.0673 18.0606C5.24167 18.0753 5.40769 18.0994 5.56538 18.1327C5.42179 18.3891 5.3109 18.6584 5.2327 18.9406C5.15448 19.2227 5.11538 19.5233 5.11538 19.8423V21.0385H1ZM7 21.0385V19.9135C7 19.0865 7.46229 18.4295 8.38688 17.9423C9.31148 17.4551 10.5176 17.2115 12.0053 17.2115C13.5069 17.2115 14.7148 17.4551 15.6288 17.9423C16.5429 18.4295 17 19.0865 17 19.9135V21.0385H7ZM18.8846 21.0385V19.8423C18.8846 19.5233 18.8497 19.2227 18.7798 18.9406C18.7099 18.6584 18.6051 18.3891 18.4654 18.1327C18.6231 18.0994 18.7893 18.0753 18.9641 18.0606C19.139 18.0458 19.3176 18.0384 19.5 18.0384C20.55 18.0384 21.3958 18.2401 22.0375 18.6433C22.6792 19.0465 23 19.557 23 20.175V21.0385H18.8846ZM11.9977 18.2116C10.8697 18.2116 9.93398 18.3622 9.19038 18.6635C8.44679 18.9647 8.05962 19.3526 8.02885 19.8269V20.0385H15.9769V19.8269C15.9423 19.3526 15.5574 18.9647 14.8221 18.6635C14.0869 18.3622 13.1454 18.2116 11.9977 18.2116ZM4.51922 17.0962C4.12787 17.0962 3.79286 16.9568 3.51418 16.6781C3.23549 16.3994 3.09615 16.0644 3.09615 15.6731C3.09615 15.2859 3.23549 14.9551 3.51418 14.6808C3.79286 14.4064 4.12787 14.2692 4.51922 14.2692C4.90641 14.2692 5.24038 14.4064 5.52115 14.6808C5.80192 14.9551 5.9423 15.2859 5.9423 15.6731C5.9423 16.0644 5.80192 16.3994 5.52115 16.6781C5.24038 16.9568 4.90641 17.0962 4.51922 17.0962ZM19.5 17.0962C19.1167 17.0962 18.7837 16.9568 18.501 16.6781C18.2183 16.3994 18.0769 16.0644 18.0769 15.6731C18.0769 15.2859 18.2183 14.9551 18.501 14.6808C18.7837 14.4064 19.1179 14.2692 19.5037 14.2692C19.9012 14.2692 20.2372 14.4064 20.5115 14.6808C20.7859 14.9551 20.9231 15.2859 20.9231 15.6731C20.9231 16.0644 20.7867 16.3994 20.514 16.6781C20.2412 16.9568 19.9032 17.0962 19.5 17.0962ZM12.0068 16.4615C11.3997 16.4615 10.8814 16.2484 10.4519 15.8221C10.0224 15.3958 9.80768 14.8782 9.80768 14.2692C9.80768 13.6481 10.0208 13.1274 10.4471 12.7072C10.8734 12.287 11.391 12.0769 12 12.0769C12.6212 12.0769 13.1418 12.2864 13.562 12.7052C13.9822 13.1242 14.1923 13.6432 14.1923 14.2624C14.1923 14.8695 13.9829 15.3878 13.564 15.8173C13.1451 16.2468 12.626 16.4615 12.0068 16.4615ZM12 13.0769C11.6782 13.0769 11.399 13.1912 11.1625 13.4197C10.926 13.6482 10.8077 13.9314 10.8077 14.2692C10.8077 14.591 10.926 14.8702 11.1625 15.1067C11.399 15.3433 11.6814 15.4615 12.0096 15.4615C12.3378 15.4615 12.617 15.3433 12.8471 15.1067C13.0772 14.8702 13.1923 14.5878 13.1923 14.2596C13.1923 13.9314 13.078 13.6522 12.8495 13.4221C12.621 13.192 12.3378 13.0769 12 13.0769Z" fill="white"/>
</g>
</svg>
