<svg width="33" height="32" viewBox="0 0 33 32" fill="none" xmlns="http://www.w3.org/2000/svg">
<g id="help_FILL0_wght200_GRAD0_opsz24 1">
<path id="Vector" d="M16.5296 21.0214C16.7629 21.0214 16.9598 20.9408 17.1201 20.7797C17.2805 20.6185 17.3607 20.4213 17.3607 20.188C17.3607 19.9546 17.2801 19.7578 17.119 19.5974C16.9579 19.437 16.7606 19.3568 16.5273 19.3568C16.2939 19.3568 16.0971 19.4374 15.9367 19.5985C15.7763 19.7597 15.6961 19.9569 15.6961 20.1903C15.6961 20.4236 15.7767 20.6205 15.9378 20.7808C16.099 20.9412 16.2962 21.0214 16.5296 21.0214ZM15.9844 17.5258H17.0034C17.0305 17.0671 17.1168 16.6943 17.2622 16.4074C17.4077 16.1205 17.7071 15.7544 18.1605 15.3092C18.6314 14.8382 18.9819 14.4164 19.212 14.0435C19.442 13.6707 19.557 13.2392 19.557 12.7489C19.557 11.917 19.2648 11.2541 18.6802 10.7601C18.0956 10.2662 17.404 10.0192 16.6056 10.0192C15.8464 10.0192 15.2019 10.2256 14.6721 10.6383C14.1422 11.0511 13.7542 11.5254 13.5079 12.0613L14.4782 12.4632C14.6474 12.0789 14.8893 11.7392 15.2039 11.4442C15.5185 11.1492 15.9722 11.0017 16.565 11.0017C17.2497 11.0017 17.7498 11.1895 18.0651 11.565C18.3804 11.9406 18.538 12.3536 18.538 12.8043C18.538 13.1697 18.4392 13.4961 18.2417 13.7837C18.0441 14.0713 17.787 14.3605 17.4703 14.6515C16.8586 15.2158 16.458 15.6942 16.2686 16.0867C16.0791 16.4791 15.9844 16.9588 15.9844 17.5258ZM16.5035 25C15.1898 25 13.9548 24.7507 12.7983 24.2522C11.6418 23.7536 10.6358 23.077 9.78031 22.2223C8.92483 21.3676 8.24758 20.3626 7.74855 19.2072C7.24952 18.0518 7 16.8172 7 15.5035C7 14.1898 7.24928 12.9548 7.74783 11.7983C8.24641 10.6418 8.92304 9.6358 9.77772 8.78031C10.6324 7.92483 11.6374 7.24758 12.7928 6.74855C13.9482 6.24952 15.1828 6 16.4965 6C17.8102 6 19.0452 6.24928 20.2017 6.74783C21.3582 7.24641 22.3642 7.92304 23.2197 8.77772C24.0752 9.6324 24.7524 10.6374 25.2515 11.7928C25.7505 12.9482 26 14.1828 26 15.4965C26 16.8102 25.7507 18.0452 25.2522 19.2017C24.7536 20.3582 24.077 21.3642 23.2223 22.2197C22.3676 23.0752 21.3626 23.7524 20.2072 24.2515C19.0518 24.7505 17.8172 25 16.5035 25ZM16.5 23.9444C18.8574 23.9444 20.8542 23.1264 22.4903 21.4903C24.1264 19.8542 24.9444 17.8574 24.9444 15.5C24.9444 13.1426 24.1264 11.1458 22.4903 9.50972C20.8542 7.87361 18.8574 7.05556 16.5 7.05556C14.1426 7.05556 12.1458 7.87361 10.5097 9.50972C8.87361 11.1458 8.05556 13.1426 8.05556 15.5C8.05556 17.8574 8.87361 19.8542 10.5097 21.4903C12.1458 23.1264 14.1426 23.9444 16.5 23.9444Z" fill="url(#paint0_linear_1274_15975)"/>
</g>
<defs>
<linearGradient id="paint0_linear_1274_15975" x1="16.5" y1="6" x2="16.5" y2="25" gradientUnits="userSpaceOnUse">
<stop stop-color="#4AA29C"/>
<stop offset="1" stop-color="#8B3DA7"/>
</linearGradient>
</defs>
</svg>
