<svg width="33" height="32" viewBox="0 0 33 32" fill="none" xmlns="http://www.w3.org/2000/svg">
<g id="deployed_code_history_FILL0_wght200_GRAD0_opsz24 1">
<path id="Vector" d="M15.3457 8.19172C15.5685 8.06391 15.8061 8 16.0583 8C16.3106 8 16.5481 8.06391 16.7709 8.19172L22.404 11.4375C22.6269 11.5653 22.8013 11.739 22.9275 11.9584C23.0536 12.1779 23.1166 12.4154 23.1166 12.671V15.1313C22.9764 15.0532 22.8356 14.984 22.6942 14.9234C22.5528 14.8629 22.3995 14.8095 22.2344 14.7631V12.7881L18.9393 14.6867C18.2516 14.87 17.6241 15.1598 17.0568 15.5563C16.4896 15.9528 16.0097 16.4304 15.6172 16.9892V16.1086L9.88229 12.7881V19.0354C9.88229 19.1259 9.90491 19.2107 9.95016 19.2899C9.99541 19.3691 10.0633 19.437 10.1538 19.4935L14.762 22.176C14.8209 22.409 14.8972 22.635 14.9911 22.8539C15.085 23.0727 15.1947 23.2885 15.3202 23.5012C15.3135 23.4978 15.3092 23.4952 15.3075 23.4935C15.3058 23.4918 15.3016 23.4893 15.2948 23.4859L9.7126 20.274C9.48978 20.1462 9.31531 19.9726 9.18918 19.7531C9.06306 19.5337 9 19.2961 9 19.0405V12.671C9 12.4154 9.06306 12.1779 9.18918 11.9584C9.31531 11.739 9.48978 11.5653 9.7126 11.4375L15.3457 8.19172ZM15.7868 8.95016L10.3896 12.0738L16.0583 15.3502L21.727 12.0738L16.3298 8.95016C16.2393 8.8936 16.1488 8.86533 16.0583 8.86533C15.9678 8.86533 15.8773 8.8936 15.7868 8.95016ZM20.4698 24C19.4868 24 18.6529 23.6575 17.968 22.9726C17.2831 22.2877 16.9406 21.4538 16.9406 20.4708C16.9406 19.4879 17.2831 18.6539 17.968 17.969C18.6529 17.2841 19.4868 16.9417 20.4698 16.9417C21.4527 16.9417 22.2867 17.2841 22.9716 17.969C23.6565 18.6539 23.9989 19.4879 23.9989 20.4708C23.9989 21.4538 23.6565 22.2877 22.9716 22.9726C22.2867 23.6575 21.4527 24 20.4698 24ZM20.8091 20.3283V17.9258H20.1304V20.6134L21.9256 22.4085L22.4074 21.9266L20.8091 20.3283Z" fill="url(#paint0_linear_42_49325)"/>
</g>
<defs>
<linearGradient id="paint0_linear_42_49325" x1="16.4995" y1="8" x2="16.4995" y2="24" gradientUnits="userSpaceOnUse">
<stop stop-color="#4AA29C"/>
<stop offset="1" stop-color="#8B3DA7"/>
</linearGradient>
</defs>
</svg>
