<svg width="32" height="32" viewBox="0 0 32 32" fill="none" xmlns="http://www.w3.org/2000/svg">
<g id="deployed_code_history_FILL0_wght200_GRAD0_opsz24 1">
<path id="Vector" d="M14.9231 4.41794C15.2598 4.22478 15.6188 4.1282 16 4.1282C16.3812 4.1282 16.7402 4.22478 17.0769 4.41794L25.5898 9.32307C25.9265 9.51623 26.1902 9.77863 26.3808 10.1103C26.5714 10.4419 26.6667 10.8009 26.6667 11.1872V14.9051C26.4547 14.7872 26.2419 14.6825 26.0282 14.591C25.8145 14.4996 25.5829 14.4188 25.3333 14.3487V11.3641L20.3538 14.2333C19.3145 14.5103 18.3662 14.9483 17.509 15.5474C16.6517 16.1466 15.9265 16.8684 15.3333 17.7128V16.3821L6.66666 11.3641V20.8051C6.66666 20.9419 6.70085 21.0701 6.76923 21.1897C6.83761 21.3094 6.94017 21.412 7.07693 21.4974L14.041 25.5513C14.1299 25.9034 14.2453 26.2449 14.3872 26.5756C14.5291 26.9064 14.6949 27.2325 14.8846 27.5539C14.8744 27.5487 14.868 27.5449 14.8654 27.5423C14.8628 27.5398 14.8564 27.5359 14.8462 27.5308L6.41023 22.6769C6.0735 22.4838 5.80983 22.2214 5.61923 21.8897C5.42863 21.5581 5.33333 21.1992 5.33333 20.8128V11.1872C5.33333 10.8009 5.42863 10.4419 5.61923 10.1103C5.80983 9.77863 6.0735 9.51623 6.41023 9.32307L14.9231 4.41794ZM15.5897 5.5641L7.43333 10.2846L16 15.2359L24.5667 10.2846L16.4103 5.5641C16.2735 5.47864 16.1368 5.4359 16 5.4359C15.8632 5.4359 15.7265 5.47864 15.5897 5.5641ZM22.6667 28.3077C21.1812 28.3077 19.9209 27.7902 18.8859 26.7551C17.8509 25.7201 17.3333 24.4598 17.3333 22.9744C17.3333 21.4889 17.8509 20.2286 18.8859 19.1936C19.9209 18.1586 21.1812 17.641 22.6667 17.641C24.1521 17.641 25.4124 18.1586 26.4474 19.1936C27.4825 20.2286 28 21.4889 28 22.9744C28 24.4598 27.4825 25.7201 26.4474 26.7551C25.4124 27.7902 24.1521 28.3077 22.6667 28.3077ZM23.1795 22.759V19.1282H22.1538V23.1898L24.8667 25.9026L25.5949 25.1744L23.1795 22.759Z" fill="url(#paint0_linear_114_5074)"/>
</g>
<defs>
<linearGradient id="paint0_linear_114_5074" x1="16.6667" y1="4.1282" x2="16.6667" y2="28.3077" gradientUnits="userSpaceOnUse">
<stop stop-color="#4AA29C"/>
<stop offset="1" stop-color="#8B3DA7"/>
</linearGradient>
</defs>
</svg>

<svg width="33" height="32" viewBox="0 0 33 32" fill="none" xmlns="http://www.w3.org/2000/svg">
<g id="deployed_code_history_FILL0_wght200_GRAD0_opsz24 1">
<path id="Vector" d="M15.3457 8.19172C15.5685 8.06391 15.8061 8 16.0583 8C16.3106 8 16.5481 8.06391 16.7709 8.19172L22.404 11.4375C22.6269 11.5653 22.8013 11.739 22.9275 11.9584C23.0536 12.1779 23.1166 12.4154 23.1166 12.671V15.1313C22.9764 15.0532 22.8356 14.984 22.6942 14.9234C22.5528 14.8629 22.3995 14.8095 22.2344 14.7631V12.7881L18.9393 14.6867C18.2516 14.87 17.6241 15.1598 17.0568 15.5563C16.4896 15.9528 16.0097 16.4304 15.6172 16.9892V16.1086L9.88229 12.7881V19.0354C9.88229 19.1259 9.90491 19.2107 9.95016 19.2899C9.99541 19.3691 10.0633 19.437 10.1538 19.4935L14.762 22.176C14.8209 22.409 14.8972 22.635 14.9911 22.8539C15.085 23.0727 15.1947 23.2885 15.3202 23.5012C15.3135 23.4978 15.3092 23.4952 15.3075 23.4935C15.3058 23.4918 15.3016 23.4893 15.2948 23.4859L9.7126 20.274C9.48978 20.1462 9.31531 19.9726 9.18918 19.7531C9.06306 19.5337 9 19.2961 9 19.0405V12.671C9 12.4154 9.06306 12.1779 9.18918 11.9584C9.31531 11.739 9.48978 11.5653 9.7126 11.4375L15.3457 8.19172ZM15.7868 8.95016L10.3896 12.0738L16.0583 15.3502L21.727 12.0738L16.3298 8.95016C16.2393 8.8936 16.1488 8.86533 16.0583 8.86533C15.9678 8.86533 15.8773 8.8936 15.7868 8.95016ZM20.4698 24C19.4868 24 18.6529 23.6575 17.968 22.9726C17.2831 22.2877 16.9406 21.4538 16.9406 20.4708C16.9406 19.4879 17.2831 18.6539 17.968 17.969C18.6529 17.2841 19.4868 16.9417 20.4698 16.9417C21.4527 16.9417 22.2867 17.2841 22.9716 17.969C23.6565 18.6539 23.9989 19.4879 23.9989 20.4708C23.9989 21.4538 23.6565 22.2877 22.9716 22.9726C22.2867 23.6575 21.4527 24 20.4698 24ZM20.8091 20.3283V17.9258H20.1304V20.6134L21.9256 22.4085L22.4074 21.9266L20.8091 20.3283Z" fill="url(#paint0_linear_42_49325)"/>
</g>
<defs>
<linearGradient id="paint0_linear_42_49325" x1="16.4995" y1="8" x2="16.4995" y2="24" gradientUnits="userSpaceOnUse">
<stop stop-color="#4AA29C"/>
<stop offset="1" stop-color="#8B3DA7"/>
</linearGradient>
</defs>
</svg>
