<svg width="17" height="17" viewBox="0 0 17 17" fill="none" xmlns="http://www.w3.org/2000/svg">
<g id="info_24dp_FILL0_wght200_GRAD0_opsz24 1">
<path id="Vector" d="M8.16667 11.75H8.83333V8.08333H8.16667V11.75ZM8.5 7.13467C8.61622 7.13467 8.71367 7.09533 8.79233 7.01667C8.871 6.938 8.91033 6.84056 8.91033 6.72433C8.91033 6.60811 8.871 6.51067 8.79233 6.432C8.71367 6.35344 8.61622 6.31417 8.5 6.31417C8.38378 6.31417 8.28633 6.35344 8.20767 6.432C8.129 6.51067 8.08967 6.60811 8.08967 6.72433C8.08967 6.84056 8.129 6.938 8.20767 7.01667C8.28633 7.09533 8.38378 7.13467 8.5 7.13467ZM8.50217 14.75C7.6725 14.75 6.89244 14.5926 6.162 14.2777C5.43167 13.9628 4.79633 13.5354 4.256 12.9957C3.71567 12.4559 3.28794 11.8211 2.97283 11.0913C2.65761 10.3617 2.5 9.58194 2.5 8.75217C2.5 7.9225 2.65744 7.14244 2.97233 6.412C3.28722 5.68167 3.71456 5.04633 4.25433 4.506C4.79411 3.96567 5.42889 3.53794 6.15867 3.22283C6.88833 2.90761 7.66806 2.75 8.49783 2.75C9.3275 2.75 10.1076 2.90744 10.838 3.22233C11.5683 3.53722 12.2037 3.96456 12.744 4.50433C13.2843 5.04411 13.7121 5.67889 14.0272 6.40867C14.3424 7.13833 14.5 7.91806 14.5 8.74783C14.5 9.5775 14.3426 10.3576 14.0277 11.088C13.7128 11.8183 13.2854 12.4537 12.7457 12.994C12.2059 13.5343 11.5711 13.9621 10.8413 14.2772C10.1117 14.5924 9.33194 14.75 8.50217 14.75ZM8.5 14.0833C9.98889 14.0833 11.25 13.5667 12.2833 12.5333C13.3167 11.5 13.8333 10.2389 13.8333 8.75C13.8333 7.26111 13.3167 6 12.2833 4.96667C11.25 3.93333 9.98889 3.41667 8.5 3.41667C7.01111 3.41667 5.75 3.93333 4.71667 4.96667C3.68333 6 3.16667 7.26111 3.16667 8.75C3.16667 10.2389 3.68333 11.5 4.71667 12.5333C5.75 13.5667 7.01111 14.0833 8.5 14.0833Z" fill="white" fill-opacity="0.5"/>
</g>
</svg>
