<svg width="24" height="24" viewBox="0 0 24 24" fill="none" xmlns="http://www.w3.org/2000/svg">
<g id="report_24dp_FILL1_wght200_GRAD0_opsz24 1">
<path id="Vector" d="M12 16.423C12.1743 16.423 12.3205 16.3641 12.4385 16.2463C12.5565 16.1283 12.6155 15.9821 12.6155 15.8077C12.6155 15.6334 12.5565 15.4873 12.4385 15.3693C12.3205 15.2513 12.1743 15.1923 12 15.1923C11.8257 15.1923 11.6795 15.2513 11.5615 15.3693C11.4435 15.4873 11.3845 15.6334 11.3845 15.8077C11.3845 15.9821 11.4435 16.1283 11.5615 16.2463C11.6795 16.3641 11.8257 16.423 12 16.423ZM11.5 13.4615H12.5V7.3845H11.5V13.4615ZM8.673 20L4 15.336V8.673L8.664 4H15.327L20 8.664V15.327L15.336 20H8.673Z" fill="#1C1C1D"/>
</g>
</svg>
