<svg width="24" height="25" viewBox="0 0 24 25" fill="none" xmlns="http://www.w3.org/2000/svg">
<g id="report_24dp_FILL1_wght200_GRAD0_opsz24 1">
<path id="Vector" d="M12 17.048C12.1743 17.048 12.3205 16.9891 12.4385 16.8713C12.5565 16.7533 12.6155 16.6071 12.6155 16.4327C12.6155 16.2584 12.5565 16.1123 12.4385 15.9943C12.3205 15.8763 12.1743 15.8173 12 15.8173C11.8257 15.8173 11.6795 15.8763 11.5615 15.9943C11.4435 16.1123 11.3845 16.2584 11.3845 16.4327C11.3845 16.6071 11.4435 16.7533 11.5615 16.8713C11.6795 16.9891 11.8257 17.048 12 17.048ZM11.5 14.0865H12.5V8.0095H11.5V14.0865ZM8.673 20.625L4 15.961V9.298L8.664 4.625H15.327L20 9.289V15.952L15.336 20.625H8.673Z" fill="#FFC13C"/>
</g>
</svg>
