<svg width="40" height="40" viewBox="0 0 40 40" fill="none" xmlns="http://www.w3.org/2000/svg">
<g id="key_FILL1_wght400_GRAD0_opsz24 1">
<path id="Vector" d="M14.5455 22.8182C15.4545 22.8182 16.2273 22.5 16.8636 21.8636C17.5 21.2273 17.8182 20.4545 17.8182 19.5455C17.8182 18.6364 17.5 17.8636 16.8636 17.2273C16.2273 16.5909 15.4545 16.2727 14.5455 16.2727C13.6364 16.2727 12.8636 16.5909 12.2273 17.2273C11.5909 17.8636 11.2727 18.6364 11.2727 19.5455C11.2727 20.4545 11.5909 21.2273 12.2273 21.8636C12.8636 22.5 13.6364 22.8182 14.5455 22.8182ZM14.5455 26.0909C12.7273 26.0909 11.1818 25.4545 9.90909 24.1818C8.63636 22.9091 8 21.3636 8 19.5455C8 17.7273 8.63636 16.1818 9.90909 14.9091C11.1818 13.6364 12.7273 13 14.5455 13C16.0182 13 17.3045 13.4182 18.4045 14.2545C19.5045 15.0909 20.2727 16.1273 20.7091 17.3636H29.8455L32 19.5182L28.1818 23.8818L25.4545 21.7273L23.2727 23.9091L21.0909 21.7273H20.7091C20.2545 23.0364 19.4636 24.0909 18.3364 24.8909C17.2091 25.6909 15.9455 26.0909 14.5455 26.0909Z" fill="url(#paint0_linear_32_45507)"/>
</g>
<defs>
<linearGradient id="paint0_linear_32_45507" x1="20" y1="13" x2="20" y2="26.0909" gradientUnits="userSpaceOnUse">
<stop stop-color="#4AA29C"/>
<stop offset="1" stop-color="#8B3DA7"/>
</linearGradient>
</defs>
</svg>
