<svg width="24" height="24" viewBox="0 0 24 24" fill="none" xmlns="http://www.w3.org/2000/svg">
<path d="M5.61538 20C5.15513 20 4.77083 19.8458 4.4625 19.5375C4.15417 19.2292 4 18.8449 4 18.3846V5.61537C4 5.15512 4.15417 4.77083 4.4625 4.4625C4.77083 4.15417 5.15513 4 5.61538 4H11.2308V5H5.61538C5.46154 5 5.32052 5.0641 5.1923 5.1923C5.0641 5.32052 5 5.46154 5 5.61537V18.3846C5 18.5385 5.0641 18.6795 5.1923 18.8077C5.32052 18.9359 5.46154 19 5.61538 19H18.3846C18.5385 19 18.6795 18.9359 18.8077 18.8077C18.9359 18.6795 19 18.5385 19 18.3846V12.7692H20V18.3846C20 18.8449 19.8458 19.2292 19.5375 19.5375C19.2292 19.8458 18.8449 20 18.3846 20H5.61538ZM9.73845 14.9692L9.03077 14.2615L18.2923 5H14V4H20V10H19V5.7077L9.73845 14.9692Z" fill="url(#paint0_linear_1927_3236)"/>
<defs>
<linearGradient id="paint0_linear_1927_3236" x1="12" y1="4" x2="12" y2="20" gradientUnits="userSpaceOnUse">
<stop stop-color="#4AA29C"/>
<stop offset="1" stop-color="#8B3DA7"/>
</linearGradient>
</defs>
</svg>
