<svg width="40" height="40" viewBox="0 0 40 40" fill="none" xmlns="http://www.w3.org/2000/svg">
<g id="edit_note_FILL0_wght200_GRAD0_opsz24 1">
<path id="Vector" d="M11 21.7857V20.6429H19V21.7857H11ZM11 17.2143V16.0714H23.5714V17.2143H11ZM11 12.6429V11.5H23.5714V12.6429H11ZM20.4066 27.5V24.9747L26.5011 18.9088C26.6139 18.796 26.7303 18.7198 26.8503 18.6802C26.9703 18.6407 27.0903 18.6209 27.2103 18.6209C27.3412 18.6209 27.4698 18.6454 27.5961 18.6945C27.7224 18.7436 27.8373 18.8172 27.9407 18.9154L28.9978 19.9945C29.0916 20.1073 29.163 20.2245 29.2121 20.3461C29.2612 20.4678 29.2857 20.5894 29.2857 20.711C29.2857 20.8326 29.2623 20.9553 29.2154 21.0791C29.1685 21.2029 29.096 21.3212 28.9978 21.4341L22.9319 27.5H20.4066ZM21.4176 26.489H22.5033L26.4659 22.5198L25.9297 21.9769L25.4088 21.4187L21.4176 25.4033V26.489ZM25.9297 21.9769L25.4088 21.4187L26.4659 22.5198L25.9297 21.9769Z" fill="url(#paint0_linear_32_35840)"/>
</g>
<defs>
<linearGradient id="paint0_linear_32_35840" x1="20.1429" y1="11.5" x2="20.1429" y2="27.5" gradientUnits="userSpaceOnUse">
<stop stop-color="#4AA29C"/>
<stop offset="1" stop-color="#8B3DA7"/>
</linearGradient>
</defs>
</svg>
