<svg width="32" height="32" viewBox="0 0 32 32" fill="none" xmlns="http://www.w3.org/2000/svg">
<g id="logout_FILL0_wght200_GRAD0_opsz24 1">
<path id="Vector" d="M7.48721 26.6667C6.87354 26.6667 6.36115 26.4612 5.95004 26.05C5.53893 25.6389 5.33337 25.1265 5.33337 24.5129V7.48721C5.33337 6.87354 5.53893 6.36115 5.95004 5.95004C6.36115 5.53893 6.87354 5.33337 7.48721 5.33337H16.0257V6.66671H7.48721C7.2821 6.66671 7.09406 6.75217 6.92311 6.92311C6.75217 7.09406 6.66671 7.2821 6.66671 7.48721V24.5129C6.66671 24.718 6.75217 24.906 6.92311 25.077C7.09406 25.2479 7.2821 25.3334 7.48721 25.3334H16.0257V26.6667H7.48721ZM21.9487 20.718L21.0128 19.759L24.1052 16.6667H12.2564V15.3334H24.1052L21.0128 12.2411L21.9487 11.2821L26.6667 16L21.9487 20.718Z" fill="url(#paint0_linear_1_33)"/>
</g>
<defs>
<linearGradient id="paint0_linear_1_33" x1="16" y1="5.33337" x2="16" y2="26.6667" gradientUnits="userSpaceOnUse">
<stop stop-color="#4AA29C"/>
<stop offset="1" stop-color="#8B3DA7"/>
</linearGradient>
</defs>
</svg>
