<svg xmlns="http://www.w3.org/2000/svg" width="40" height="40" viewBox="0 0 40 40" fill="none">
  <path d="M9.3588 33.3332C8.59171 33.3332 7.95123 33.0762 7.43734 32.5623C6.92345 32.0484 6.6665 31.408 6.6665 30.6409V9.35879C6.6665 8.59171 6.92345 7.95123 7.43734 7.43734C7.95123 6.92345 8.59171 6.6665 9.3588 6.6665H20.0319V8.33317H9.3588C9.10241 8.33317 8.86736 8.44 8.65367 8.65367C8.44 8.86737 8.33317 9.10241 8.33317 9.35879V30.6409C8.33317 30.8973 8.44 31.1323 8.65367 31.346C8.86736 31.5597 9.10241 31.6665 9.3588 31.6665H20.0319V33.3332H9.3588ZM27.4357 25.8973L26.2658 24.6985L30.1313 20.8332H15.3203V19.1665H30.1313L26.2658 15.3011L27.4357 14.1024L33.3332 19.9998L27.4357 25.8973Z" fill="white"/>
</svg>