<svg width="33" height="32" viewBox="0 0 33 32" fill="none" xmlns="http://www.w3.org/2000/svg">
<g id="logout_FILL0_wght200_GRAD0_opsz24 1">
<path id="Vector" d="M9.61538 24C9.15513 24 8.77083 23.8458 8.4625 23.5375C8.15417 23.2292 8 22.8449 8 22.3846V9.61537C8 9.15512 8.15417 8.77083 8.4625 8.4625C8.77083 8.15417 9.15513 8 9.61538 8H16.0192V9H9.61538C9.46154 9 9.32052 9.0641 9.1923 9.1923C9.0641 9.32052 9 9.46154 9 9.61537V22.3846C9 22.5385 9.0641 22.6795 9.1923 22.8077C9.32052 22.9359 9.46154 23 9.61538 23H16.0192V24H9.61538ZM20.4615 19.5385L19.7596 18.8192L22.0788 16.5H13.1923V15.5H22.0788L19.7596 13.1808L20.4615 12.4615L24 16L20.4615 19.5385Z" fill="url(#paint0_linear_42_49327)"/>
</g>
<defs>
<linearGradient id="paint0_linear_42_49327" x1="16" y1="8" x2="16" y2="24" gradientUnits="userSpaceOnUse">
<stop stop-color="#4AA29C"/>
<stop offset="1" stop-color="#8B3DA7"/>
</linearGradient>
</defs>
</svg>
