<svg width="32" height="32" viewBox="0 0 32 32" fill="none" xmlns="http://www.w3.org/2000/svg">
<g id="logout_FILL0_wght200_GRAD0_opsz24 1">
<path id="Vector" d="M7.48716 26.6667C6.87349 26.6667 6.36111 26.4611 5.94999 26.05C5.53888 25.6389 5.33333 25.1265 5.33333 24.5128V7.48718C5.33333 6.87351 5.53888 6.36112 5.94999 5.95001C6.36111 5.5389 6.87349 5.33334 7.48716 5.33334H16.0256V6.66668H7.48716C7.28205 6.66668 7.09402 6.75214 6.92306 6.92308C6.75213 7.09403 6.66666 7.28207 6.66666 7.48718V24.5128C6.66666 24.718 6.75213 24.906 6.92306 25.0769C7.09402 25.2479 7.28205 25.3333 7.48716 25.3333H16.0256V26.6667H7.48716ZM21.9487 20.718L21.0128 19.759L24.1051 16.6667H12.2564V15.3333H24.1051L21.0128 12.241L21.9487 11.282L26.6667 16L21.9487 20.718Z" fill="url(#paint0_linear_114_5076)"/>
</g>
<defs>
<linearGradient id="paint0_linear_114_5076" x1="16" y1="5.33334" x2="16" y2="26.6667" gradientUnits="userSpaceOnUse">
<stop stop-color="#4AA29C"/>
<stop offset="1" stop-color="#8B3DA7"/>
</linearGradient>
</defs>
</svg>
