<svg width="24" height="25" viewBox="0 0 24 25" fill="none" xmlns="http://www.w3.org/2000/svg">
<g id="note_alt_24dp_FILL1_wght200_GRAD0_opsz24 1">
<path id="Vector" d="M7.76925 16.9808H8.79225L14.7155 11.1077L13.6423 10.0345L7.76925 15.9078V16.9808ZM15.2615 10.5615L16.0807 9.73075C16.1807 9.63075 16.2308 9.51408 16.2308 9.38075C16.2308 9.24742 16.1807 9.13075 16.0807 9.03075L15.7193 8.66925C15.6193 8.56925 15.5026 8.51925 15.3693 8.51925C15.2359 8.51925 15.1193 8.56925 15.0193 8.66925L14.1885 9.4885L15.2615 10.5615ZM5.6155 20.75C5.17117 20.75 4.79083 20.5918 4.4745 20.2755C4.15817 19.9592 4 19.5788 4 19.1345V6.3655C4 5.92117 4.15817 5.54083 4.4745 5.2245C4.79083 4.90817 5.17117 4.75 5.6155 4.75H10.3155C10.2243 4.23967 10.3464 3.77875 10.6817 3.36725C11.0169 2.95575 11.4595 2.75 12.0095 2.75C12.5595 2.75 13.0022 2.95575 13.3375 3.36725C13.6728 3.77875 13.7885 4.23967 13.6845 4.75H18.3845C18.8288 4.75 19.2092 4.90817 19.5255 5.2245C19.8418 5.54083 20 5.92117 20 6.3655V19.1345C20 19.5788 19.8418 19.9592 19.5255 20.2755C19.2092 20.5918 18.8288 20.75 18.3845 20.75H5.6155ZM12 5.19225C12.2167 5.19225 12.3958 5.12142 12.5375 4.97975C12.6792 4.83808 12.75 4.65892 12.75 4.44225C12.75 4.22558 12.6792 4.04642 12.5375 3.90475C12.3958 3.76308 12.2167 3.69225 12 3.69225C11.7833 3.69225 11.6042 3.76308 11.4625 3.90475C11.3208 4.04642 11.25 4.22558 11.25 4.44225C11.25 4.65892 11.3208 4.83808 11.4625 4.97975C11.6042 5.12142 11.7833 5.19225 12 5.19225Z" fill="#E8EAED"/>
</g>
</svg>
