<svg width="33" height="32" viewBox="0 0 33 32" fill="none" xmlns="http://www.w3.org/2000/svg">
<g id="more_horiz_FILL0_wght200_GRAD0_opsz24 1">
<rect x="1" y="0.5" width="31" height="31" rx="15.5" stroke="url(#paint0_linear_288_11018)"/>
<path id="Vector" d="M9.11538 17.3332C8.74871 17.3332 8.43482 17.2026 8.17371 16.9415C7.9126 16.6804 7.78204 16.3665 7.78204 15.9998C7.78204 15.6332 7.9126 15.3193 8.17371 15.0582C8.43482 14.7971 8.74871 14.6665 9.11538 14.6665C9.48207 14.6665 9.79597 14.7971 10.0571 15.0582C10.3182 15.3193 10.4487 15.6332 10.4487 15.9998C10.4487 16.3665 10.3182 16.6804 10.0571 16.9415C9.79597 17.2026 9.48207 17.3332 9.11538 17.3332ZM16.5 17.3332C16.1333 17.3332 15.8195 17.2026 15.5583 16.9415C15.2972 16.6804 15.1667 16.3665 15.1667 15.9998C15.1667 15.6332 15.2972 15.3193 15.5583 15.0582C15.8195 14.7971 16.1333 14.6665 16.5 14.6665C16.8667 14.6665 17.1806 14.7971 17.4417 15.0582C17.7028 15.3193 17.8333 15.6332 17.8333 15.9998C17.8333 16.3665 17.7028 16.6804 17.4417 16.9415C17.1806 17.2026 16.8667 17.3332 16.5 17.3332ZM23.8846 17.3332C23.518 17.3332 23.2041 17.2026 22.9429 16.9415C22.6818 16.6804 22.5513 16.3665 22.5513 15.9998C22.5513 15.6332 22.6818 15.3193 22.9429 15.0582C23.2041 14.7971 23.518 14.6665 23.8846 14.6665C24.2513 14.6665 24.5652 14.7971 24.8263 15.0582C25.0874 15.3193 25.218 15.6332 25.218 15.9998C25.218 16.3665 25.0874 16.6804 24.8263 16.9415C24.5652 17.2026 24.2513 17.3332 23.8846 17.3332Z" fill="white"/>
</g>
<defs>
<linearGradient id="paint0_linear_288_11018" x1="16.5" y1="0" x2="16.5" y2="32" gradientUnits="userSpaceOnUse">
<stop stop-color="#4AA29C"/>
<stop offset="0.994792" stop-color="#8B3DA7"/>
</linearGradient>
</defs>
</svg>
