<svg width="210" height="210" fill="none" xmlns="http://www.w3.org/2000/svg"><path d="m178.344 14.965-63.405 48.591 11.725-28.668 51.68-19.923z" fill="#E2761B" stroke="#E2761B" stroke-width=".639" stroke-linecap="round" stroke-linejoin="round"/><path d="m31.972 14.965 62.895 49.052-11.152-29.129-51.743-19.923zM155.531 127.6l-16.887 26.696 36.131 10.257 10.387-36.361-29.631-.592zm-130.25.592 10.323 36.361 36.131-10.257L54.85 127.6l-29.568.592z" fill="#E4761B" stroke="#E4761B" stroke-width=".639" stroke-linecap="round" stroke-linejoin="round"/><path d="M69.697 82.493 59.63 98.208l35.876 1.644-1.274-39.78-24.534 22.421zm70.924 0-24.852-22.882-.829 40.241 35.813-1.644-10.132-15.715zm-68.885 71.803 21.539-10.85-18.608-14.991-2.93 25.841zm45.307-10.85 21.602 10.85-2.995-25.841-18.607 14.991z" fill="#E4761B" stroke="#E4761B" stroke-width=".639" stroke-linecap="round" stroke-linejoin="round"/><path d="m138.643 154.297-21.602-10.85 1.721 14.532-.191 6.115 20.072-9.797zm-66.909 0 20.073 9.797-.127-6.115 1.593-14.532-21.539 10.85z" fill="#D7C1B3" stroke="#D7C1B3" stroke-width=".639" stroke-linecap="round" stroke-linejoin="round"/><path d="m92.126 118.855-17.97-5.457 12.681-5.984 5.29 11.441zm26.063 0 5.289-11.441 12.744 5.984-18.033 5.457z" fill="#233447" stroke="#233447" stroke-width=".639" stroke-linecap="round" stroke-linejoin="round"/><path d="m71.736 154.294 3.059-26.695-19.945.591 16.886 26.104zm63.851-26.695 3.058 26.695 16.887-26.104-19.945-.591zm15.166-29.392-35.813 1.644 3.314 19.002 5.289-11.441 12.745 5.984 14.465-15.189zm-76.595 15.189 12.744-5.984 5.225 11.441 3.378-19.002-35.876-1.644 14.529 15.189z" fill="#CD6116" stroke="#CD6116" stroke-width=".639" stroke-linecap="round" stroke-linejoin="round"/><path d="m59.629 98.209 15.039 30.246-.51-15.057-14.53-15.189zm76.659 15.189-.638 15.057 15.103-30.246-14.465 15.189zM95.505 99.853l-3.377 19.002 4.205 22.422.956-29.523-1.784-11.901zm19.435 0-1.72 11.835.765 29.589 4.269-22.422-3.314-19.002z" fill="#E4751F" stroke="#E4751F" stroke-width=".639" stroke-linecap="round" stroke-linejoin="round"/><path d="m118.253 118.854-4.27 22.422 3.059 2.17 18.607-14.992.637-15.058-18.033 5.458zm-44.097-5.458.51 15.058 18.607 14.992 3.059-2.17-4.206-22.422-17.97-5.458z" fill="#F6851B" stroke="#F6851B" stroke-width=".639" stroke-linecap="round" stroke-linejoin="round"/><path d="m118.571 164.094.191-6.115-1.593-1.447H93.145l-1.465 1.447.127 6.115-20.073-9.797 7.01 5.918 14.21 10.191h24.406l14.274-10.191 7.009-5.918-20.072 9.797z" fill="#C0AD9E" stroke="#C0AD9E" stroke-width=".639" stroke-linecap="round" stroke-linejoin="round"/><path d="m117.041 143.447-3.058-2.17H96.332l-3.06 2.17-1.592 14.532 1.465-1.447h24.024l1.593 1.447-1.721-14.532z" fill="#161616" stroke="#161616" stroke-width=".639" stroke-linecap="round" stroke-linejoin="round"/><path d="m181.02 66.713 5.417-26.828-8.093-24.92-61.301 46.947 23.577 20.581 33.327 10.06 7.392-8.876-3.186-2.367 5.098-4.8-3.951-3.156 5.098-4.011-3.378-2.63zM23.943 39.885l5.417 26.828-3.441 2.63 5.098 4.01-3.887 3.157 5.097 4.8-3.186 2.367 7.328 8.876 33.327-10.06 23.578-20.58-61.302-46.948-8.029 24.92z" fill="#763D16" stroke="#763D16" stroke-width=".639" stroke-linecap="round" stroke-linejoin="round"/><path d="m173.947 92.552-33.327-10.06 10.132 15.715-15.103 30.246 19.882-.263h29.631l-11.215-35.638zm-104.25-10.06-33.328 10.06-11.088 35.638H54.85l19.818.263-15.04-30.246 10.07-15.715zm45.242 17.359 2.103-37.94 9.686-27.024H83.715l9.559 27.024 2.23 37.94.765 11.967.063 29.457h17.652l.127-29.457.828-11.967z" fill="#F6851B" stroke="#F6851B" stroke-width=".639" stroke-linecap="round" stroke-linejoin="round"/><circle cx="160.25" cy="152.75" r="42.75" fill="#053318"/><path d="M183.726 159.98c0 8.392-10.241 11.803-22.957 11.803-12.716 0-23.107-3.411-23.107-11.803 0-8.392 10.316-15.183 23.032-15.183s23.032 6.806 23.032 15.183z" fill="#24A95A"/><path d="M181.391 141.688c0-4.418-3.607-8.006-8.05-8.006-2.31 0-4.391.971-5.858 2.517a.961.961 0 0 1-.886.292 29.626 29.626 0 0 0-5.853-.585 28.9 28.9 0 0 0-5.852.582.963.963 0 0 1-.888-.288 8.092 8.092 0 0 0-5.856-2.518c-4.443 0-8.05 3.588-8.05 8.006a7.94 7.94 0 0 0 .841 3.569.987.987 0 0 1 .03.825 10.06 10.06 0 0 0-.797 3.91c0 7.784 9.213 14.086 20.572 14.086 11.36 0 20.573-6.302 20.573-14.086a10.06 10.06 0 0 0-.797-3.91.987.987 0 0 1 .03-.825 7.953 7.953 0 0 0 .841-3.569z" fill="#32DA6D"/><path d="M147.494 146.128c2.717 0 4.919-2.191 4.919-4.893 0-2.703-2.202-4.893-4.919-4.893-2.717 0-4.92 2.19-4.92 4.893 0 2.702 2.203 4.893 4.92 4.893zM173.736 146.128c2.717 0 4.919-2.191 4.919-4.893 0-2.703-2.202-4.893-4.919-4.893-2.717 0-4.92 2.19-4.92 4.893 0 2.702 2.203 4.893 4.92 4.893z" fill="#fff"/><path d="M144.883 171.175c1.059 0 1.894-.92 1.774-1.958-.432-3.677-2.266-11.639-10.33-16.428-8.839-5.25-4.637 8.703-2.879 13.793a2.273 2.273 0 0 1-1.003 2.72l-.576.331c-.745.43-.432 1.542.418 1.542h12.596zM176.917 171.175c-.954 0-1.699-.92-1.595-1.958.373-3.662 2.043-11.639 9.317-16.428 8.054-5.291 4.137 8.921 2.571 13.91a2.266 2.266 0 0 0 .939 2.598l.53.336c.671.43.388 1.542-.372 1.542h-11.39z" fill="#32DA6D"/><path d="M147.493 144.163a2.935 2.935 0 1 0 0-5.87 2.935 2.935 0 0 0 0 5.87zM173.736 144.163a2.935 2.935 0 1 0-.001-5.87 2.935 2.935 0 0 0 .001 5.87zM167.149 152.436c.729.063 1.281.71 1.097 1.419a7.885 7.885 0 0 1-2.561 4.063 7.912 7.912 0 0 1-5.764 1.827 7.898 7.898 0 0 1-6.854-5.486 7.86 7.86 0 0 1-.367-2.181c-.013-.488.421-.849.907-.807l6.991.602 6.551.563z" fill="#092511"/></svg>