<svg width="24" height="25" viewBox="0 0 24 25" fill="none" xmlns="http://www.w3.org/2000/svg">
<g id="more_horiz_FILL0_wght200_GRAD0_opsz24 1">
<rect x="0.5" y="1" width="23" height="23" rx="11.5" stroke="url(#paint0_linear_1023_25786)"/>
<path id="Vector" d="M6.46143 13.5C6.18643 13.5 5.95101 13.4021 5.75518 13.2063C5.55934 13.0104 5.46143 12.775 5.46143 12.5C5.46143 12.225 5.55934 11.9896 5.75518 11.7938C5.95101 11.5979 6.18643 11.5 6.46143 11.5C6.73644 11.5 6.97187 11.5979 7.1677 11.7938C7.36353 11.9896 7.46145 12.225 7.46145 12.5C7.46145 12.775 7.36353 13.0104 7.1677 13.2063C6.97187 13.4021 6.73644 13.5 6.46143 13.5ZM11.9999 13.5C11.7249 13.5 11.4895 13.4021 11.2937 13.2063C11.0978 13.0104 10.9999 12.775 10.9999 12.5C10.9999 12.225 11.0978 11.9896 11.2937 11.7938C11.4895 11.5979 11.7249 11.5 11.9999 11.5C12.2749 11.5 12.5103 11.5979 12.7062 11.7938C12.902 11.9896 12.9999 12.225 12.9999 12.5C12.9999 12.775 12.902 13.0104 12.7062 13.2063C12.5103 13.4021 12.2749 13.5 11.9999 13.5ZM17.5384 13.5C17.2634 13.5 17.0279 13.4021 16.8321 13.2063C16.6363 13.0104 16.5384 12.775 16.5384 12.5C16.5384 12.225 16.6363 11.9896 16.8321 11.7938C17.0279 11.5979 17.2634 11.5 17.5384 11.5C17.8134 11.5 18.0488 11.5979 18.2446 11.7938C18.4405 11.9896 18.5384 12.225 18.5384 12.5C18.5384 12.775 18.4405 13.0104 18.2446 13.2063C18.0488 13.4021 17.8134 13.5 17.5384 13.5Z" fill="white"/>
</g>
<defs>
<linearGradient id="paint0_linear_1023_25786" x1="12" y1="0.5" x2="12" y2="24.5" gradientUnits="userSpaceOnUse">
<stop stop-color="#4453DF"/>
<stop offset="1" stop-color="#7F5CED"/>
</linearGradient>
</defs>
</svg>
