<svg width="24" height="24" viewBox="0 0 24 24" fill="none" xmlns="http://www.w3.org/2000/svg">
<g id="more_horiz_FILL0_wght200_GRAD0_opsz24 1">
<rect x="0.5" y="0.5" width="23" height="23" rx="11.5" stroke="url(#paint0_linear_874_3700)"/>
<path id="Vector" d="M6.46143 13C6.18643 13 5.95101 12.9021 5.75518 12.7063C5.55934 12.5104 5.46143 12.275 5.46143 12C5.46143 11.725 5.55934 11.4896 5.75518 11.2938C5.95101 11.0979 6.18643 11 6.46143 11C6.73644 11 6.97187 11.0979 7.1677 11.2938C7.36353 11.4896 7.46145 11.725 7.46145 12C7.46145 12.275 7.36353 12.5104 7.1677 12.7063C6.97187 12.9021 6.73644 13 6.46143 13ZM11.9999 13C11.7249 13 11.4895 12.9021 11.2937 12.7063C11.0978 12.5104 10.9999 12.275 10.9999 12C10.9999 11.725 11.0978 11.4896 11.2937 11.2938C11.4895 11.0979 11.7249 11 11.9999 11C12.2749 11 12.5103 11.0979 12.7062 11.2938C12.902 11.4896 12.9999 11.725 12.9999 12C12.9999 12.275 12.902 12.5104 12.7062 12.7063C12.5103 12.9021 12.2749 13 11.9999 13ZM17.5384 13C17.2634 13 17.0279 12.9021 16.8321 12.7063C16.6363 12.5104 16.5384 12.275 16.5384 12C16.5384 11.725 16.6363 11.4896 16.8321 11.2938C17.0279 11.0979 17.2634 11 17.5384 11C17.8134 11 18.0488 11.0979 18.2446 11.2938C18.4405 11.4896 18.5384 11.725 18.5384 12C18.5384 12.275 18.4405 12.5104 18.2446 12.7063C18.0488 12.9021 17.8134 13 17.5384 13Z" fill="white"/>
</g>
<defs>
<linearGradient id="paint0_linear_874_3700" x1="12" y1="0" x2="12" y2="24" gradientUnits="userSpaceOnUse">
<stop stop-color="#4453DF"/>
<stop offset="1" stop-color="#7F5CED"/>
</linearGradient>
</defs>
</svg>
