<svg width="41" height="41" viewBox="0 0 41 41" fill="none" xmlns="http://www.w3.org/2000/svg">
<rect x="0.5" y="0.5" width="40" height="40" rx="8" fill="url(#paint0_linear_2594_23994)"/>
<path d="M17.8846 16.8846V15.8846H26.1154V16.8846H17.8846ZM17.8846 19.6538V18.6539H26.1154V19.6538H17.8846ZM22.7308 29.5V27.2904L28.0635 21.9827C28.1622 21.8968 28.2648 21.8333 28.3712 21.7923C28.4776 21.7513 28.584 21.7308 28.6904 21.7308C28.8006 21.7308 28.9122 21.7523 29.025 21.7952C29.1378 21.8382 29.2372 21.9026 29.3231 21.9885L30.2481 22.9327C30.3301 23.0314 30.3926 23.134 30.4356 23.2404C30.4785 23.3468 30.5 23.4532 30.5 23.5596C30.5 23.666 30.4827 23.7734 30.4481 23.8817C30.4135 23.9901 30.3468 24.0936 30.2481 24.1923L24.9404 29.5H22.7308ZM28.6904 24.5154L29.6154 23.5596L28.6904 22.6154L27.7404 23.5654L28.6904 24.5154ZM14.5 29.5C13.9359 29.5 13.4615 29.3077 13.0769 28.9231C12.6923 28.5385 12.5 28.0641 12.5 27.5V24.7308H15.5V11.5H28.5V19.3712C28.3205 19.3763 28.1497 19.3952 27.9875 19.4279C27.8253 19.4606 27.6628 19.5071 27.5 19.5673V12.5H16.5V24.7308H21.8462L20.3462 26.2308V29.5H14.5Z" fill="white"/>
<defs>
<linearGradient id="paint0_linear_2594_23994" x1="20.5" y1="0.5" x2="20.5" y2="40.5" gradientUnits="userSpaceOnUse">
<stop stop-color="#4AA29C"/>
<stop offset="1" stop-color="#8B3DA7"/>
</linearGradient>
</defs>
</svg>
