<svg width="24" height="24" viewBox="0 0 24 24" fill="none" xmlns="http://www.w3.org/2000/svg">
<g id="description_FILL0_wght200_GRAD0_opsz24 1">
<path id="Vector" d="M8.5 17.5H15.5V16.5H8.5V17.5ZM8.5 13.5H15.5V12.5H8.5V13.5ZM6.61537 21C6.15512 21 5.77083 20.8458 5.4625 20.5375C5.15417 20.2292 5 19.8449 5 19.3846V4.61537C5 4.15512 5.15417 3.77083 5.4625 3.4625C5.77083 3.15417 6.15512 3 6.61537 3H14.5L19 7.5V19.3846C19 19.8449 18.8458 20.2292 18.5375 20.5375C18.2292 20.8458 17.8449 21 17.3846 21H6.61537ZM14 8V4H6.61537C6.46154 4 6.32052 4.0641 6.1923 4.1923C6.0641 4.32052 6 4.46154 6 4.61537V19.3846C6 19.5385 6.0641 19.6795 6.1923 19.8077C6.32052 19.9359 6.46154 20 6.61537 20H17.3846C17.5385 20 17.6795 19.9359 17.8077 19.8077C17.9359 19.6795 18 19.5385 18 19.3846V8H14Z" fill="white"/>
</g>
</svg>
