<svg width="41" height="41" viewBox="0 0 41 41" fill="none" xmlns="http://www.w3.org/2000/svg">
<g id="draw_FILL1_wght400_GRAD0_opsz24 1">
<path id="Vector" d="M13.8889 28V24.2222L25.6 12.5333C25.7778 12.3556 25.9778 12.2222 26.2 12.1333C26.4222 12.0444 26.6444 12 26.8667 12C27.1037 12 27.3296 12.0444 27.5444 12.1333C27.7593 12.2222 27.9481 12.3556 28.1111 12.5333L29.3556 13.7778C29.5333 13.9407 29.6667 14.1296 29.7556 14.3444C29.8444 14.5593 29.8889 14.7852 29.8889 15.0222C29.8889 15.2444 29.8444 15.4667 29.7556 15.6889C29.6667 15.9111 29.5333 16.1111 29.3556 16.2889L17.6667 28H13.8889ZM26.9111 16.2444L28.1111 15.0444L26.8444 13.7778L25.6444 14.9778L26.9111 16.2444ZM22.7778 28C23.8741 28 24.8889 27.7259 25.8222 27.1778C26.7556 26.6296 27.2222 25.8667 27.2222 24.8889C27.2222 24.3556 27.0815 23.8963 26.8 23.5111C26.5185 23.1259 26.1407 22.7926 25.6667 22.5111L24.3556 23.8222C24.6963 23.9704 24.963 24.1333 25.1556 24.3111C25.3481 24.4889 25.4444 24.6815 25.4444 24.8889C25.4444 25.2296 25.1741 25.537 24.6333 25.8111C24.0926 26.0852 23.4741 26.2222 22.7778 26.2222C22.5259 26.2222 22.3148 26.3074 22.1444 26.4778C21.9741 26.6481 21.8889 26.8593 21.8889 27.1111C21.8889 27.363 21.9741 27.5741 22.1444 27.7444C22.3148 27.9148 22.5259 28 22.7778 28ZM14.4 21.2L15.7333 19.8667C15.437 19.7481 15.2037 19.6259 15.0333 19.5C14.863 19.3741 14.7778 19.2444 14.7778 19.1111C14.7778 18.9333 14.9111 18.7556 15.1778 18.5778C15.4444 18.4 16.0074 18.1259 16.8667 17.7556C18.1704 17.1926 19.037 16.6815 19.4667 16.2222C19.8963 15.763 20.1111 15.2444 20.1111 14.6667C20.1111 13.8519 19.7852 13.2037 19.1333 12.7222C18.4815 12.2407 17.6222 12 16.5556 12C15.8889 12 15.2926 12.1185 14.7667 12.3556C14.2407 12.5926 13.837 12.8815 13.5556 13.2222C13.3926 13.4148 13.3259 13.6296 13.3556 13.8667C13.3852 14.1037 13.4963 14.2963 13.6889 14.4444C13.8815 14.6074 14.0963 14.6741 14.3333 14.6444C14.5704 14.6148 14.7704 14.5185 14.9333 14.3556C15.1407 14.1481 15.3704 14 15.6222 13.9111C15.8741 13.8222 16.1852 13.7778 16.5556 13.7778C17.163 13.7778 17.6111 13.8667 17.9 14.0444C18.1889 14.2222 18.3333 14.4296 18.3333 14.6667C18.3333 14.8741 18.2037 15.063 17.9444 15.2333C17.6852 15.4037 17.0889 15.7037 16.1556 16.1333C14.9704 16.6519 14.1481 17.1222 13.6889 17.5444C13.2296 17.9667 13 18.4889 13 19.1111C13 19.5852 13.1259 19.9889 13.3778 20.3222C13.6296 20.6556 13.9704 20.9481 14.4 21.2Z" fill="url(#paint0_linear_114_5062)" fill-opacity="0.6"/>
</g>
<defs>
<linearGradient id="paint0_linear_114_5062" x1="21.4444" y1="12" x2="21.4444" y2="28" gradientUnits="userSpaceOnUse">
<stop stop-color="#4AA29C"/>
<stop offset="1" stop-color="#8B3DA7"/>
</linearGradient>
</defs>
</svg>
