<svg width="24" height="24" viewBox="0 0 24 24" fill="none" xmlns="http://www.w3.org/2000/svg">
<g id="public_24dp_FILL0_wght200_GRAD0_opsz24 1">
<path id="Vector" d="M12.0033 21C10.7588 21 9.58867 20.7638 8.493 20.2915C7.3975 19.8192 6.4445 19.1782 5.634 18.3685C4.8235 17.5588 4.18192 16.6067 3.70925 15.512C3.23642 14.4175 3 13.2479 3 12.0033C3 10.7588 3.23617 9.58867 3.7085 8.493C4.18083 7.3975 4.82183 6.4445 5.6315 5.634C6.44117 4.8235 7.39333 4.18192 8.488 3.70925C9.5825 3.23642 10.7521 3 11.9967 3C13.2413 3 14.4113 3.23617 15.507 3.7085C16.6025 4.18083 17.5555 4.82183 18.366 5.6315C19.1765 6.44117 19.8181 7.39333 20.2908 8.488C20.7636 9.5825 21 10.7521 21 11.9967C21 13.2413 20.7638 14.4113 20.2915 15.507C19.8192 16.6025 19.1782 17.5555 18.3685 18.366C17.5588 19.1765 16.6067 19.8181 15.512 20.2908C14.4175 20.7636 13.2479 21 12.0033 21ZM11 19.95V18C10.45 18 9.97917 17.8042 9.5875 17.4125C9.19583 17.0208 9 16.55 9 16V15L4.2 10.2C4.15 10.5 4.10417 10.8 4.0625 11.1C4.02083 11.4 4 11.7 4 12C4 14.0167 4.6625 15.7833 5.9875 17.3C7.3125 18.8167 8.98333 19.7 11 19.95ZM17.9 17.4C18.2333 17.0333 18.5333 16.6375 18.8 16.2125C19.0667 15.7875 19.2875 15.3458 19.4625 14.8875C19.6375 14.4292 19.7708 13.9583 19.8625 13.475C19.9542 12.9917 20 12.5 20 12C20 10.357 19.549 8.8565 18.647 7.4985C17.7452 6.1405 16.5295 5.1615 15 4.5615V5C15 5.55 14.8042 6.02083 14.4125 6.4125C14.0208 6.80417 13.55 7 13 7H11V9C11 9.28333 10.9042 9.52083 10.7125 9.7125C10.5208 9.90417 10.2833 10 10 10H8V12H14C14.2833 12 14.5208 12.0958 14.7125 12.2875C14.9042 12.4792 15 12.7167 15 13V16H16C16.4333 16 16.825 16.1292 17.175 16.3875C17.525 16.6458 17.7667 16.9833 17.9 17.4Z" fill="#E8EAED"/>
</g>
</svg>
