<svg width="16" height="16" viewBox="0 0 16 16" fill="none" xmlns="http://www.w3.org/2000/svg">
<g id="search_FILL1_wght400_GRAD0_opsz24 (1) 1">
<rect width="16" height="16" rx="8" fill="url(#paint0_linear_924_37313)"/>
<path id="Vector" d="M4.08205 11.8359V11.3026H5.73333L5.17128 10.7467C4.75692 10.3446 4.45812 9.90359 4.27487 9.42359C4.09162 8.94359 4 8.45743 4 7.96512C4 7.10837 4.24427 6.33316 4.73281 5.63948C5.22136 4.94581 5.86598 4.4506 6.66667 4.15384V4.72C6.01983 4.99213 5.50257 5.42307 5.11488 6.01281C4.72718 6.60256 4.53333 7.25333 4.53333 7.96512C4.53333 8.39932 4.61573 8.82068 4.78052 9.22923C4.9453 9.63778 5.20137 10.0157 5.54872 10.3631L6.09231 10.9067V9.29231H6.62564V11.8359H4.08205ZM9.33333 11.6821V11.1159C9.98017 10.8438 10.4974 10.4128 10.8851 9.82308C11.2728 9.23333 11.4667 8.58256 11.4667 7.87077C11.4667 7.43658 11.3843 7.01521 11.2195 6.60667C11.0547 6.19812 10.7986 5.82016 10.4513 5.47281L9.90769 4.92923V6.54359H9.37436V4H11.9179V4.53333H10.2667L10.8287 5.08923C11.2369 5.49743 11.5342 5.94 11.7205 6.41692C11.9068 6.89384 12 7.37846 12 7.87077C12 8.72752 11.7557 9.50273 11.2672 10.1964C10.7786 10.8901 10.134 11.3853 9.33333 11.6821Z" fill="white"/>
</g>
<defs>
<linearGradient id="paint0_linear_924_37313" x1="8" y1="0" x2="8" y2="16" gradientUnits="userSpaceOnUse">
<stop stop-color="#4AA29C"/>
<stop offset="1" stop-color="#8B3DA7"/>
</linearGradient>
</defs>
</svg>
