<svg xmlns="http://www.w3.org/2000/svg" width="24" height="24" viewBox="0 0 24 24" fill="none">
  <path d="M5.46153 20C5.05191 20 4.70592 19.8588 4.42355 19.5765C4.14118 19.2941 4 18.9481 4 18.5385V5.46153C4 5.05191 4.14118 4.70592 4.42355 4.42355C4.70592 4.14118 5.05191 4 5.46153 4H18.5385C18.9481 4 19.2941 4.14118 19.5765 4.42355C19.8588 4.70592 20 5.05191 20 5.46153V18.5385C20 18.9481 19.8588 19.2941 19.5765 19.5765C19.2941 19.8588 18.9481 20 18.5385 20H5.46153ZM5.46153 19.1539H11.5769V4.84615H5.46153C5.30768 4.84615 5.16665 4.91025 5.03845 5.03845C4.91025 5.16665 4.84615 5.30768 4.84615 5.46153V18.5385C4.84615 18.6923 4.91025 18.8334 5.03845 18.9616C5.16665 19.0898 5.30768 19.1539 5.46153 19.1539ZM12.4231 19.1539H18.5385C18.6923 19.1539 18.8334 19.0898 18.9616 18.9616C19.0898 18.8334 19.1539 18.6923 19.1539 18.5385V11.9962H12.4231V19.1539ZM12.4231 11.15H19.1539V5.46153C19.1539 5.30768 19.0898 5.16665 18.9616 5.03845C18.8334 4.91025 18.6923 4.84615 18.5385 4.84615H12.4231V11.15Z" fill="white"/>
</svg>