<svg width="36" height="36" viewBox="0 0 36 36" fill="none" xmlns="http://www.w3.org/2000/svg">
<g id="account_circle_FILL1_wght400_GRAD0_opsz40 1">
<path id="Vector" d="M8.475 26.175C9.95 25.1834 11.4625 24.4229 13.0125 23.8938C14.5625 23.3646 16.225 23.1 18 23.1C19.775 23.1 21.4417 23.3646 23 23.8938C24.5583 24.4229 26.075 25.1834 27.55 26.175C28.575 24.9333 29.3229 23.6375 29.7938 22.2875C30.2646 20.9375 30.5 19.5083 30.5 18C30.5 14.475 29.2979 11.5104 26.8938 9.10624C24.4896 6.70206 21.525 5.49998 18 5.49998C14.475 5.49998 11.5104 6.70206 9.10624 9.10624C6.70206 11.5104 5.49998 14.475 5.49998 18C5.49998 19.5083 5.73956 20.9375 6.21874 22.2875C6.69791 23.6375 7.45 24.9333 8.475 26.175ZM17.9954 19.25C16.5401 19.25 15.3146 18.7505 14.3187 17.7516C13.3229 16.7527 12.825 15.5256 12.825 14.0703C12.825 12.6151 13.3245 11.3896 14.3234 10.3938C15.3223 9.39791 16.5494 8.89999 18.0047 8.89999C19.4599 8.89999 20.6854 9.39946 21.6813 10.3984C22.6771 11.3973 23.175 12.6244 23.175 14.0796C23.175 15.5349 22.6755 16.7604 21.6766 17.7563C20.6777 18.7521 19.4506 19.25 17.9954 19.25ZM17.9899 33C15.9125 33 13.9602 32.6063 12.133 31.8188C10.3059 31.0313 8.71649 29.9583 7.36489 28.6C6.01329 27.2417 4.94791 25.6513 4.16876 23.829C3.38959 22.0067 3 20.0595 3 17.9875C3 15.9155 3.39375 13.9684 4.18125 12.146C4.96875 10.3237 6.04166 8.7375 7.39999 7.3875C8.75834 6.0375 10.3487 4.96875 12.171 4.18125C13.9934 3.39375 15.9405 3 18.0125 3C20.0845 3 22.0317 3.39375 23.854 4.18125C25.6763 4.96875 27.2625 6.0375 28.6125 7.3875C29.9625 8.7375 31.0313 10.325 31.8188 12.15C32.6063 13.975 33 15.9228 33 17.9934C33 20.0639 32.6063 22.0097 31.8188 23.8308C31.0313 25.6519 29.9625 27.2417 28.6125 28.6C27.2625 29.9583 25.6739 31.0313 23.8468 31.8188C22.0196 32.6063 20.0673 33 17.9899 33Z" fill="url(#paint0_linear_42_49228)" fill-opacity="0.6"/>
</g>
<defs>
<linearGradient id="paint0_linear_42_49228" x1="18" y1="3" x2="18" y2="33" gradientUnits="userSpaceOnUse">
<stop stop-color="#4AA29C"/>
<stop offset="1" stop-color="#8B3DA7"/>
</linearGradient>
</defs>
</svg>
