<svg width="16" height="17" viewBox="0 0 16 17" fill="none" xmlns="http://www.w3.org/2000/svg">
<g id="radio_button_checked_24dp_FILL0_wght200_GRAD0_opsz24 1">
<path id="Vector" d="M8 10.7917C8.74278 10.7917 9.37289 10.5329 9.89033 10.0153C10.4079 9.49789 10.6667 8.86778 10.6667 8.125C10.6667 7.38222 10.4079 6.75211 9.89033 6.23467C9.37289 5.71711 8.74278 5.45833 8 5.45833C7.25722 5.45833 6.62711 5.71711 6.10967 6.23467C5.59211 6.75211 5.33333 7.38222 5.33333 8.125C5.33333 8.86778 5.59211 9.49789 6.10967 10.0153C6.62711 10.5329 7.25722 10.7917 8 10.7917ZM8.00217 14.125C7.1725 14.125 6.39244 13.9676 5.662 13.6527C4.93167 13.3378 4.29633 12.9104 3.756 12.3707C3.21567 11.8309 2.78794 11.1961 2.47283 10.4663C2.15761 9.73667 2 8.95694 2 8.12717C2 7.2975 2.15744 6.51744 2.47233 5.787C2.78722 5.05667 3.21456 4.42133 3.75433 3.881C4.29411 3.34067 4.92889 2.91294 5.65867 2.59783C6.38833 2.28261 7.16806 2.125 7.99783 2.125C8.8275 2.125 9.60756 2.28244 10.338 2.59733C11.0683 2.91222 11.7037 3.33956 12.244 3.87933C12.7843 4.41911 13.2121 5.05389 13.5272 5.78367C13.8424 6.51333 14 7.29306 14 8.12283C14 8.9525 13.8426 9.73256 13.5277 10.463C13.2128 11.1933 12.7854 11.8287 12.2457 12.369C11.7059 12.9093 11.0711 13.3371 10.3413 13.6522C9.61167 13.9674 8.83194 14.125 8.00217 14.125ZM8 13.4583C9.48889 13.4583 10.75 12.9417 11.7833 11.9083C12.8167 10.875 13.3333 9.61389 13.3333 8.125C13.3333 6.63611 12.8167 5.375 11.7833 4.34167C10.75 3.30833 9.48889 2.79167 8 2.79167C6.51111 2.79167 5.25 3.30833 4.21667 4.34167C3.18333 5.375 2.66667 6.63611 2.66667 8.125C2.66667 9.61389 3.18333 10.875 4.21667 11.9083C5.25 12.9417 6.51111 13.4583 8 13.4583Z" fill="url(#paint0_linear_1023_25132)"/>
</g>
<defs>
<linearGradient id="paint0_linear_1023_25132" x1="8" y1="2.125" x2="8" y2="14.125" gradientUnits="userSpaceOnUse">
<stop stop-color="#4453DF"/>
<stop offset="1" stop-color="#7F5CED"/>
</linearGradient>
</defs>
</svg>
