<svg width="12" height="13" viewBox="0 0 12 13" fill="none" xmlns="http://www.w3.org/2000/svg">
<g id="radio_button_unchecked_24dp_FILL0_wght200_GRAD0_opsz24 1">
<path id="Vector" d="M6.00163 10.625C5.37938 10.625 4.79433 10.5069 4.2465 10.2708C3.69875 10.0346 3.22225 9.71408 2.817 9.30925C2.41175 8.90442 2.09096 8.42833 1.85462 7.881C1.61821 7.33375 1.5 6.74896 1.5 6.12663C1.5 5.50438 1.61808 4.91933 1.85425 4.3715C2.09042 3.82375 2.41092 3.34725 2.81575 2.942C3.22058 2.53675 3.69667 2.21596 4.244 1.97962C4.79125 1.74321 5.37604 1.625 5.99837 1.625C6.62063 1.625 7.20567 1.74308 7.7535 1.97925C8.30125 2.21542 8.77775 2.53592 9.183 2.94075C9.58825 3.34558 9.90904 3.82167 10.1454 4.369C10.3818 4.91625 10.5 5.50104 10.5 6.12337C10.5 6.74563 10.3819 7.33067 10.1458 7.8785C9.90958 8.42625 9.58908 8.90275 9.18425 9.308C8.77942 9.71325 8.30333 10.034 7.756 10.2704C7.20875 10.5068 6.62396 10.625 6.00163 10.625ZM6 10.125C7.11667 10.125 8.0625 9.7375 8.8375 8.9625C9.6125 8.1875 10 7.24167 10 6.125C10 5.00833 9.6125 4.0625 8.8375 3.2875C8.0625 2.5125 7.11667 2.125 6 2.125C4.88333 2.125 3.9375 2.5125 3.1625 3.2875C2.3875 4.0625 2 5.00833 2 6.125C2 7.24167 2.3875 8.1875 3.1625 8.9625C3.9375 9.7375 4.88333 10.125 6 10.125Z" fill="white"/>
</g>
</svg>
