<svg width="21" height="20" viewBox="0 0 21 20" fill="none" xmlns="http://www.w3.org/2000/svg">
<g id="Group 26">
<path id="Vector" d="M19.176 0H7.42357C6.52817 0 5.7998 0.629907 5.7998 1.40497V3.67537H7.24285V1.48439C7.27845 1.46522 7.34142 1.44331 7.42357 1.44331H19.176C19.2582 1.44331 19.3212 1.46522 19.3568 1.48439V13.5156C19.3212 13.5348 19.2582 13.5567 19.176 13.5567H16.7308V15H19.176C20.0714 15 20.7998 14.3701 20.7998 13.595V1.40497C20.7998 0.629907 20.0687 0 19.176 0Z" fill="#B0B0B0"/>
<path id="Vector_2" d="M15.7998 19.2797V5.72302C15.7998 5.32317 15.4767 5 15.0769 5H1.5227C1.12565 5 0.799805 5.32317 0.799805 5.72302V19.2797C0.799805 19.6796 1.12292 20 1.5227 20H15.0769C15.4767 20 15.7998 19.6768 15.7998 19.2797ZM14.3568 18.5567H2.24559V6.44331H14.3568V18.5567Z" fill="#B0B0B0"/>
<path id="Vector_3" d="M4.27234 16.25L11.5565 9.52381V16.0895H12.0498V8.97516C12.0498 8.91563 12.0246 8.8587 11.9797 8.8147C11.9321 8.77329 11.8704 8.75 11.8032 8.75H4.09857V9.20549L11.209 9.2029L3.9248 15.9291L4.27234 16.25Z" fill="#B0B0B0"/>
</g>
</svg>
