<svg width="14" height="19" viewBox="0 0 14 19" fill="none" xmlns="http://www.w3.org/2000/svg">
<path id="Vector" d="M1.61537 18.5C1.15512 18.5 0.770833 18.3458 0.4625 18.0375C0.154167 17.7292 0 17.3449 0 16.8846V2.11537C0 1.65512 0.154167 1.27083 0.4625 0.9625C0.770833 0.654167 1.15512 0.5 1.61537 0.5H9.5L14 5V16.8846C14 17.3449 13.8458 17.7292 13.5375 18.0375C13.2292 18.3458 12.8449 18.5 12.3846 18.5H1.61537ZM9 5.5V1.5H1.61537C1.46154 1.5 1.32052 1.5641 1.1923 1.6923C1.0641 1.82052 1 1.96154 1 2.11537V16.8846C1 17.0385 1.0641 17.1795 1.1923 17.3077C1.32052 17.4359 1.46154 17.5 1.61537 17.5H12.3846C12.5385 17.5 12.6795 17.4359 12.8077 17.3077C12.9359 17.1795 13 17.0385 13 16.8846V5.5H9Z" fill="white"/>
</svg>
