<svg width="33" height="32" viewBox="0 0 33 32" fill="none" xmlns="http://www.w3.org/2000/svg">
<g id="lightbulb_circle_FILL0_wght200_GRAD0_opsz24 1">
<path id="Vector" d="M16.5035 25C15.1898 25 13.9548 24.7507 12.7983 24.2522C11.6418 23.7536 10.6358 23.077 9.78031 22.2223C8.92483 21.3676 8.24758 20.3626 7.74855 19.2072C7.24952 18.0518 7 16.8172 7 15.5035C7 14.1898 7.24928 12.9548 7.74783 11.7983C8.24641 10.6418 8.92304 9.6358 9.77772 8.78031C10.6324 7.92483 11.6374 7.24758 12.7928 6.74855C13.9482 6.24952 15.1828 6 16.4965 6C17.8102 6 19.0452 6.24928 20.2017 6.74783C21.3582 7.24641 22.3642 7.92304 23.2197 8.77772C24.0752 9.6324 24.7524 10.6374 25.2515 11.7928C25.7505 12.9482 26 14.1828 26 15.4965C26 16.8102 25.7507 18.0452 25.2522 19.2017C24.7536 20.3582 24.077 21.3642 23.2223 22.2197C22.3676 23.0752 21.3626 23.7524 20.2072 24.2515C19.0518 24.7505 17.8172 25 16.5035 25ZM16.5 23.9444C18.8574 23.9444 20.8542 23.1264 22.4903 21.4903C24.1264 19.8542 24.9444 17.8574 24.9444 15.5C24.9444 13.1426 24.1264 11.1458 22.4903 9.50972C20.8542 7.87361 18.8574 7.05556 16.5 7.05556C14.1426 7.05556 12.1458 7.87361 10.5097 9.50972C8.87361 11.1458 8.05556 13.1426 8.05556 15.5C8.05556 17.8574 8.87361 19.8542 10.5097 21.4903C12.1458 23.1264 14.1426 23.9444 16.5 23.9444ZM16.5 22.3205C16.791 22.3205 17.0464 22.2343 17.2663 22.0617C17.4862 21.8892 17.63 21.6642 17.6977 21.3868H15.3023C15.37 21.6642 15.5138 21.8892 15.7337 22.0617C15.9536 22.2343 16.209 22.3205 16.5 22.3205ZM13.6581 19.9252H19.3419V18.9915H13.6581V19.9252ZM13.4612 17.5299H19.5388C20.1217 17.0881 20.5865 16.5277 20.9331 15.8487C21.2797 15.1696 21.453 14.4309 21.453 13.6325C21.453 12.2621 20.9701 11.0941 20.0042 10.1282C19.0384 9.16239 17.8703 8.67948 16.5 8.67948C15.1297 8.67948 13.9616 9.16239 12.9958 10.1282C12.0299 11.0941 11.547 12.2621 11.547 13.6325C11.547 14.4309 11.7203 15.1696 12.0669 15.8487C12.4135 16.5277 12.8783 17.0881 13.4612 17.5299ZM13.8185 16.5961C13.4037 16.1947 13.077 15.7381 12.8385 15.2263C12.6 14.7145 12.4808 14.1815 12.4808 13.6272C12.4808 12.5186 12.8731 11.5724 13.6578 10.7888C14.4425 10.0051 15.3899 9.61325 16.5 9.61325C17.6101 9.61325 18.5575 10.0051 19.3422 10.7888C20.1269 11.5724 20.5192 12.5186 20.5192 13.6272C20.5192 14.1815 20.4 14.7145 20.1615 15.2263C19.923 15.7381 19.5963 16.1947 19.1815 16.5961H13.8185Z" fill="url(#paint0_linear_1274_15977)"/>
</g>
<defs>
<linearGradient id="paint0_linear_1274_15977" x1="16.5" y1="6" x2="16.5" y2="25" gradientUnits="userSpaceOnUse">
<stop stop-color="#4AA29C"/>
<stop offset="1" stop-color="#8B3DA7"/>
</linearGradient>
</defs>
</svg>
