<svg width="33" height="32" viewBox="0 0 33 32" fill="none" xmlns="http://www.w3.org/2000/svg">
<g id="lightbulb_FILL0_wght200_GRAD0_opsz24 1">
<path id="Vector" d="M16.803 26C16.3213 26 15.9023 25.8386 15.546 25.5159C15.1898 25.1932 14.9781 24.791 14.911 24.3093H18.6949C18.6278 24.791 18.4162 25.1932 18.0599 25.5159C17.7037 25.8386 17.2847 26 16.803 26ZM13.1398 22.4576V21.411H20.4661V22.4576H13.1398ZM13.2002 19.5593C12.2113 18.9112 11.4307 18.0894 10.8584 17.0937C10.2861 16.0981 10 15.0012 10 13.803C10 11.9043 10.6592 10.2958 11.9775 8.97749C13.2958 7.65916 14.9043 7 16.803 7C18.7016 7 20.3101 7.65916 21.6284 8.97749C22.9468 10.2958 23.6059 11.9043 23.6059 13.803C23.6059 15.0012 23.3198 16.0981 22.7475 17.0937C22.1752 18.0894 21.3946 18.9112 20.4057 19.5593H13.2002ZM13.5061 18.5127H20.0998C20.8847 17.9545 21.4909 17.2655 21.9183 16.4457C22.3456 15.6258 22.5593 14.7449 22.5593 13.803C22.5593 12.1982 22.0011 10.8376 20.8847 9.72119C19.7684 8.6048 18.4078 8.04661 16.803 8.04661C15.1982 8.04661 13.8376 8.6048 12.7212 9.72119C11.6048 10.8376 11.0466 12.1982 11.0466 13.803C11.0466 14.7449 11.2603 15.6258 11.6877 16.4457C12.115 17.2655 12.7212 17.9545 13.5061 18.5127Z" fill="url(#paint0_linear_1359_977)"/>
</g>
<defs>
<linearGradient id="paint0_linear_1359_977" x1="16.803" y1="7" x2="16.803" y2="26" gradientUnits="userSpaceOnUse">
<stop stop-color="#4AA29C"/>
<stop offset="1" stop-color="#8B3DA7"/>
</linearGradient>
</defs>
</svg>
