<?xml version="1.0" encoding="UTF-8"?>
<svg version="1.1" xmlns="http://www.w3.org/2000/svg" width="2645" height="692">
<path d="M0 0 C1.37064606 0.00090637 1.37064606 0.00090637 2.76898193 0.00183105 C53.75789166 0.09294419 105.81143104 8.98090053 146.25 42.1875 C147.20648438 42.97125 148.16296875 43.755 149.1484375 44.5625 C155.28342498 49.84802767 160.32569595 55.77695146 165.25 62.1875 C165.91773438 63.02796875 166.58546875 63.8684375 167.2734375 64.734375 C191.33956621 96.12497767 197.75449319 138.64631848 193.00390625 177.1484375 C189.36859182 203.19385484 179.45985514 228.1467484 162.25 248.1875 C161.78722656 248.72858398 161.32445312 249.26966797 160.84765625 249.82714844 C135.54831922 279.05165361 99.02796366 297.7883941 61.25 305.1875 C59.58398691 305.23417063 57.91551902 305.24933998 56.25 305.1875 C59.11817084 310.39620647 62.28586731 315.23357158 65.75 320.0625 C66.82300151 321.57025212 67.89591573 323.07806637 68.96875 324.5859375 C69.51402344 325.3500293 70.05929688 326.11412109 70.62109375 326.90136719 C73.17657375 330.48792516 75.71274373 334.08803928 78.25 337.6875 C79.24989763 339.10423892 80.24989788 340.52090542 81.25 341.9375 C87.25 350.4375 87.25 350.4375 88.74975586 352.56225586 C89.75044188 353.97982654 90.75125583 355.39730692 91.75219727 356.81469727 C94.24275451 360.34180572 96.73111592 363.87042217 99.21484375 367.40234375 C104.32232086 374.65985112 109.47045023 381.88329586 114.6875 389.0625 C119.7137856 395.98442189 124.57203954 403.00687546 129.37695312 410.08374023 C133.57822919 416.25263073 137.91376839 422.31279399 142.3046875 428.34765625 C146.95647905 434.75084174 151.49320743 441.23018101 156.01708984 447.72412109 C159.89175637 453.27548104 163.82973546 458.77580445 167.8125 464.25 C173.43434546 471.98559776 178.8604398 479.84317239 184.2265625 487.7578125 C186.1061969 490.5267363 188.01056143 493.27264904 189.9609375 495.9921875 C200.32938857 510.47300283 200.32938857 510.47300283 199.25 520.1875 C197.65093249 524.34507553 196.10311765 526.8997114 192.25 529.1875 C189.19174594 530.20691802 187.0404267 530.3381337 183.83569336 530.38037109 C182.72701401 530.39643402 181.61833466 530.41249695 180.47605896 530.42904663 C175.39070298 530.47364697 170.30547686 530.51458772 165.2199707 530.53759766 C162.54356605 530.55088569 159.86897903 530.58135558 157.19262695 530.61962891 C153.32480066 530.67463416 149.45800952 530.69631246 145.58984375 530.7109375 C144.40406235 530.73360687 143.21828094 530.75627625 141.99656677 530.77963257 C133.16347212 530.75736879 126.74637133 528.87632211 119.8684082 523.23364258 C114.2329486 516.4435763 109.31744553 509.21384766 104.4375 501.875 C103.51390098 500.49715882 102.58957109 499.11980731 101.66455078 497.74291992 C99.77314189 494.92646398 97.88473791 492.10803083 95.99853516 489.28808594 C92.28861103 483.74667206 88.54127037 478.23081591 84.79165649 472.71621704 C82.8359766 469.83930239 80.88302019 466.96053983 78.9296875 464.08203125 C78.15072986 462.93439825 77.37175851 461.78677454 76.59277344 460.63916016 C73.0411603 455.40663795 69.49037419 450.17355453 65.93951416 444.94052124 C63.95970889 442.02282525 61.97985186 439.10516438 60 436.1875 C59.20833308 435.0208335 58.41666642 433.85416684 57.625 432.6875 C57.233125 432.11 56.84125 431.5325 56.4375 430.9375 C42.58333333 410.52083333 28.72916667 390.10416667 14.875 369.6875 C14.4831955 369.11010574 14.09139099 368.53271149 13.68771362 367.93782043 C12.89532792 366.77009038 12.10294918 365.60235559 11.31057739 364.43461609 C9.34246895 361.53418062 7.37424294 358.63382506 5.40576172 355.73364258 C1.71132327 350.29032144 -1.9819103 344.84619366 -5.67120361 339.39938354 C-7.40479088 336.84009355 -9.13901702 334.28123678 -10.87329102 331.72241211 C-11.69603819 330.50810981 -12.51847585 329.29359774 -13.34057617 328.07885742 C-14.48406742 326.3892705 -15.6286462 324.70042498 -16.7734375 323.01171875 C-17.42231934 322.05354248 -18.07120117 321.09536621 -18.73974609 320.1081543 C-19.40312988 319.14433838 -20.06651367 318.18052246 -20.75 317.1875 C-21.04823984 316.59853345 -21.34647968 316.0095669 -21.6537571 315.40275288 C-23.35729093 312.37228867 -24.61888014 310.50836545 -28.05235863 309.53438854 C-30.96722104 309.27976874 -33.81252341 309.24443182 -36.73828125 309.28515625 C-37.79661667 309.27286484 -38.85495209 309.26057343 -39.94535828 309.24790955 C-43.31844361 309.21617125 -46.68934616 309.23246027 -50.0625 309.25 C-52.35223387 309.23689176 -54.6419521 309.22065232 -56.93164062 309.20117188 C-62.53808611 309.16030982 -68.14350202 309.15885027 -73.75 309.1875 C-73.74631283 310.24694824 -73.74262566 311.30639648 -73.73882675 312.39794922 C-73.65002058 338.17904863 -73.58429319 363.9601282 -73.54275131 389.74134827 C-73.5221279 402.20896847 -73.49401135 414.67648762 -73.44824219 427.14404297 C-73.40836788 438.01101944 -73.38256558 448.87792272 -73.37364602 459.74497032 C-73.36843233 465.49877355 -73.35618251 471.2523674 -73.32707977 477.00610352 C-73.2999015 482.42332681 -73.29155999 487.84025475 -73.29756927 493.25753975 C-73.29647013 495.24409147 -73.28853076 497.23065322 -73.2731781 499.21714592 C-73.2532125 501.93410557 -73.25808473 504.6499569 -73.26898193 507.36694336 C-73.25733057 508.14906693 -73.2456792 508.93119049 -73.23367476 509.73701477 C-73.2938169 515.30245325 -74.68887392 519.51860338 -77.75 524.1875 C-83.87444489 530.15490784 -89.72095075 530.49618608 -97.87109375 530.48828125 C-99.33736961 530.49470894 -99.33736961 530.49470894 -100.83326721 530.50126648 C-102.89673082 530.50699904 -104.96021464 530.50751797 -107.02368164 530.50317383 C-110.17304094 530.5000145 -113.3214599 530.52348458 -116.47070312 530.54882812 C-118.47916549 530.55110135 -120.48763036 530.5518045 -122.49609375 530.55078125 C-123.43376083 530.559991 -124.37142792 530.56920074 -125.33750916 530.57868958 C-132.01736486 530.53164057 -136.20787041 529.31579454 -141.4375 524.9375 C-146.26747355 519.19374767 -147.19437032 513.97375289 -147.13031673 506.72723484 C-147.13497665 505.89762834 -147.13963657 505.06802185 -147.1444377 504.21327576 C-147.15638954 501.43308377 -147.14699152 498.65338029 -147.13768005 495.8731842 C-147.14185288 493.85993876 -147.14733011 491.84669566 -147.15399987 489.83345693 C-147.1684798 484.3007025 -147.16420175 478.7680967 -147.15683305 473.23533404 C-147.15211003 467.2686355 -147.16460354 461.30196953 -147.17485046 455.33528137 C-147.19106565 444.32180289 -147.19348033 433.3083669 -147.18854547 422.29487991 C-147.18398858 412.11992992 -147.18458712 401.94499757 -147.19038582 391.77004814 C-147.19114268 390.40528241 -147.19189866 389.04051668 -147.19265376 387.67575095 C-147.19379895 385.61918334 -147.19494883 383.56261573 -147.19611301 381.50604813 C-147.20681819 362.38575763 -147.21154304 343.26547301 -147.20364285 324.1451807 C-147.20319709 323.06402278 -147.20319709 323.06402278 -147.20274232 321.96102329 C-147.20029337 316.10781497 -147.19768179 310.25460672 -147.19505819 304.40139848 C-147.18495509 281.56843369 -147.19331225 258.73554243 -147.21655273 235.90258789 C-147.24262135 210.24958099 -147.25547439 184.59661837 -147.24836498 158.94359773 C-147.24764892 156.20865437 -147.24697453 153.473711 -147.24632454 150.73876762 C-147.24615473 150.06535508 -147.24598492 149.39194253 -147.24580997 148.69812354 C-147.24350647 138.53039691 -147.25148633 128.36271138 -147.26461601 118.19499397 C-147.27951996 106.63265077 -147.28000536 95.07040226 -147.2625451 83.50806052 C-147.25401279 77.60735488 -147.25194006 71.70683329 -147.26719666 65.80613708 C-147.28098705 60.40572599 -147.27635336 55.00565761 -147.25695742 49.60526662 C-147.25317974 47.65043496 -147.25616997 45.69557621 -147.26656907 43.74076856 C-147.27969557 41.08463384 -147.26819463 38.42968957 -147.25057125 35.7736063 C-147.26022176 35.01370277 -147.26987227 34.25379923 -147.27981523 33.47086832 C-147.19195927 27.02704628 -145.01828066 22.05378192 -141.03125 17.015625 C-132.3116415 9.29035782 -121.52891763 7.6264703 -110.25 6.6875 C-108.39689209 6.51758545 -108.39689209 6.51758545 -106.50634766 6.34423828 C-101.92317188 5.93027536 -97.33684419 5.55823682 -92.75 5.1875 C-91.27581604 5.06731506 -91.27581604 5.06731506 -89.77185059 4.94470215 C-81.89067011 4.3030802 -74.00829401 3.677588 -66.125 3.0625 C-65.01874268 2.97605225 -63.91248535 2.88960449 -62.77270508 2.80053711 C-41.83652043 1.17597731 -21.00374571 -0.02599533 0 0 Z M-40.75 58.5625 C-41.55053802 58.62562378 -42.35107605 58.68874756 -43.1758728 58.75378418 C-53.42962136 59.57963914 -63.53511692 60.82551559 -73.75 62.1875 C-73.75 125.5475 -73.75 188.9075 -73.75 254.1875 C13.04075798 259.51851971 13.04075798 259.51851971 90.87109375 224.66015625 C110.12033126 204.6523281 115.79351323 179.03496212 115.60327148 152.11254883 C115.02666542 126.32647744 107.93546326 101.77953595 89.25 83.1875 C65.31392757 61.61179027 32.54661579 56.97013243 1.5625 56.9375 C0.72195068 56.93582825 -0.11859863 56.93415649 -0.98461914 56.93243408 C-14.28689305 56.93086999 -27.4907869 57.50834255 -40.75 58.5625 Z " fill="#FEFEFE" transform="translate(155.75,122.8125)"/>
<path d="M0 0 C0.90105469 0.82177734 0.90105469 0.82177734 1.8203125 1.66015625 C31.21858739 29.48596527 44.64501313 73.8078507 48 113 C48.08612549 113.98919434 48.17225098 114.97838867 48.26098633 115.99755859 C48.98879883 125.12923993 49.20146268 134.22091375 49.1875 143.375 C49.18689575 144.11433777 49.1862915 144.85367554 49.18566895 145.61541748 C49.10548446 182.02797385 43.81875668 217.53300043 29 251 C28.68836914 251.70850098 28.37673828 252.41700195 28.05566406 253.14697266 C20.78064088 269.38682598 10.38844854 283.30985409 -2 296 C-2.71285156 296.77472656 -3.42570312 297.54945313 -4.16015625 298.34765625 C-30.74027005 326.51760863 -70.25678245 336.96222035 -107.828125 338.19140625 C-149.50093496 338.99873285 -189.85423079 327.66382374 -220.39453125 298.51171875 C-221.68423828 297.26841797 -221.68423828 297.26841797 -223 296 C-223.96486328 295.11248047 -223.96486328 295.11248047 -224.94921875 294.20703125 C-255.85815509 265.02726617 -269.44250811 218.0607279 -273 177 C-273.08612549 176.04270996 -273.17225098 175.08541992 -273.26098633 174.09912109 C-274.07787905 164.06217921 -274.20059465 154.0653028 -274.1875 144 C-274.18689575 143.13972198 -274.1862915 142.27944397 -274.18566895 141.39309692 C-274.09605671 94.31771124 -265.26232195 45.26609931 -233 9 C-232.28328125 8.16339844 -231.5665625 7.32679688 -230.828125 6.46484375 C-204.19730365 -24.08505237 -166.84816352 -38.84514785 -126.97949219 -41.60107422 C-79.04421164 -44.21843417 -35.38112184 -33.30358265 0 0 Z M-172.375 34.3125 C-188.88689304 53.60790365 -196.36517342 78.27512744 -200 103 C-200.10441406 103.6914209 -200.20882813 104.3828418 -200.31640625 105.09521484 C-207.32530386 154.3016685 -204.32908262 215.64619775 -174.33203125 257.0390625 C-163.6371447 270.61816469 -150.60317663 279.28453934 -134 284 C-133.14664062 284.24492188 -132.29328125 284.48984375 -131.4140625 284.7421875 C-110.60114406 289.53506777 -87.59011155 285.72460737 -69.4375 274.8125 C-44.33806167 258.01935062 -32.506981 229.52119385 -26.6875 200.8125 C-17.24816273 151.14557061 -16.59256383 89.11812795 -44 45 C-46.45097076 41.43153682 -49.0736278 38.18674574 -52 35 C-53.04607422 33.83404297 -53.04607422 33.83404297 -54.11328125 32.64453125 C-67.8570339 18.07078288 -87.51938672 10.48941074 -107.375 9.796875 C-132.51120448 9.36982981 -154.65501935 15.75386378 -172.375 34.3125 Z " fill="#FEFEFE" transform="translate(1365,321)"/>
<path d="M0 0 C0.86179367 -0.0066568 1.72358734 -0.0133136 2.61149597 -0.02017212 C4.43116124 -0.03027423 6.25086336 -0.0349899 8.07055664 -0.03466797 C10.83607991 -0.0390319 13.5999941 -0.07535064 16.36523438 -0.11328125 C18.1393175 -0.11915202 19.91340815 -0.12311967 21.6875 -0.125 C22.91446342 -0.14655655 22.91446342 -0.14655655 24.16621399 -0.16854858 C30.50344407 -0.11881609 35.73491383 1.43486683 40.57234192 5.67715454 C46.16631058 11.79349421 46.33716459 19.01404798 46.30125427 26.83297729 C46.30492998 27.77026425 46.30860568 28.7075512 46.31239277 29.67324078 C46.32234769 32.80418905 46.31822681 35.93495884 46.31420898 39.06591797 C46.3185977 41.31520272 46.32390039 43.56448585 46.33004761 45.81376648 C46.3415411 50.6547533 46.34700659 55.49569639 46.347929 60.33669662 C46.34987272 68.00389315 46.3679448 75.67099965 46.38868713 83.33816528 C46.4164544 94.10011363 46.43943489 104.8620532 46.45629883 115.62402344 C46.45790785 116.64764477 46.45790785 116.64764477 46.45954937 117.69194533 C46.4713506 125.29257361 46.48155796 132.89320269 46.48999023 140.49383545 C46.49306386 143.2439372 46.49615273 145.99403892 46.49926758 148.74414062 C46.50041559 149.76195822 46.50041559 149.76195822 46.50158679 150.80033778 C46.51471788 162.15843099 46.53958217 173.51645839 46.57301098 184.87451279 C46.59469398 192.48256706 46.60285379 200.09047461 46.60061824 207.69855762 C46.60229566 212.45322354 46.61641016 217.20779532 46.63383102 221.96242714 C46.63938824 224.15158841 46.63995526 226.34076955 46.63489342 228.52993202 C46.58103189 254.57461121 50.04976561 280.17570636 69.1171875 299.6015625 C82.20741235 312.24399819 97.83506407 314.84929222 115.25390625 314.609375 C142.76346175 313.69750591 169.12197546 297.28891566 188.46658325 278.68550014 C191.04296875 276.3359375 191.04296875 276.3359375 193.65841675 274.53777409 C198.5754683 270.75258525 201.12832884 267.66188672 201.95684814 261.52671623 C202.43533294 255.2753093 202.32350942 249.02555738 202.23828125 242.76147461 C202.24205169 240.35097715 202.25024914 237.94048317 202.26252747 235.53001404 C202.28137143 229.67771098 202.25475336 223.82689562 202.20829123 217.97477644 C202.1568338 211.15186318 202.16392448 204.32938014 202.17487133 197.50632722 C202.19304886 185.32847698 202.16823832 173.15112094 202.11474609 160.97338867 C202.06302509 149.17161765 202.02653779 137.36999741 202.01416016 125.56811523 C202.01338911 124.84103019 202.01261806 124.11394514 202.01182365 123.36482721 C202.00378446 115.4206183 201.99943699 107.47640934 201.99676514 99.532197 C201.99599618 97.42257336 201.99521197 95.31294973 201.99440765 93.2033261 C201.9939054 91.81231578 201.99346512 90.42130544 201.99308777 89.03029508 C201.99042175 80.19986034 201.97172752 71.36966144 201.93561649 62.5393008 C201.91603833 57.47478567 201.90402088 52.41026865 201.89328575 47.34572792 C201.88639391 44.99999041 201.87598295 42.65426015 201.86176491 40.3085556 C201.84262404 37.10233914 201.83581654 33.89631409 201.83178711 30.69004822 C201.82303118 29.76591171 201.81427525 28.8417752 201.80525398 27.88963455 C201.8176777 19.57846769 202.53775479 11.91160973 208.04296875 5.3359375 C214.08102339 0.77659012 218.63660948 0.16138336 226.0234375 0.09765625 C227.35366692 0.08554863 227.35366692 0.08554863 228.71076965 0.07319641 C230.58946789 0.05936569 232.46819115 0.04863901 234.34692383 0.04077148 C237.20247924 0.02360575 240.05686231 -0.02028328 242.91210938 -0.06445312 C244.74087694 -0.07458483 246.56965431 -0.08309944 248.3984375 -0.08984375 C249.66762276 -0.11610588 249.66762276 -0.11610588 250.96244812 -0.14289856 C257.99269191 -0.11752429 263.38953907 1.68250782 268.41796875 6.7109375 C272.34881248 13.06076199 272.33123012 19.01346009 272.3079834 26.26010132 C272.31236467 27.36310408 272.31674594 28.46610685 272.32125998 29.60253394 C272.33358644 33.30065627 272.33177131 36.99863684 272.33007812 40.69677734 C272.33610248 43.34834942 272.34292458 45.99990791 272.3507843 48.651474 C272.36623393 54.36606403 272.37464823 60.0806294 272.37849426 65.79523849 C272.38425614 74.08369273 272.40286936 82.37208112 272.4249348 90.6605062 C272.46066122 104.14312614 272.48896316 117.62574983 272.51123047 131.10839844 C272.51256546 131.91514781 272.51390045 132.72189718 272.5152759 133.55309351 C272.52469307 139.27237454 272.53385122 144.99165598 272.54296875 150.7109375 C272.55334912 157.21289096 272.56387447 163.71484415 272.57470703 170.21679688 C272.57603777 171.01710065 272.57736852 171.81740443 272.57873958 172.64195983 C272.60128004 186.0532715 272.63153402 199.46455559 272.66709948 212.87583888 C272.68860946 221.12627096 272.70334133 229.37666007 272.70893824 237.6271186 C272.71323161 243.30254577 272.72458797 248.97793217 272.74116218 254.65333663 C272.75043699 257.91300518 272.75561453 261.17258452 272.75409889 264.43226814 C272.74672233 286.64911137 274.12719083 308.39278299 277.71875 330.32421875 C281.07908962 352.07799626 281.07908962 352.07799626 276.04296875 360.3359375 C270.26519464 364.78963838 265.82550058 365.50781913 258.71875 365.57421875 C257.89851852 365.5822905 257.07828705 365.59036224 256.23320007 365.59867859 C254.49573877 365.61250618 252.75825046 365.62323426 251.02075195 365.63110352 C249.25276676 365.64260182 247.48481568 365.66301955 245.71704102 365.69262695 C243.15487206 365.73553352 240.59373473 365.75150591 238.03125 365.76171875 C236.86049675 365.78798088 236.86049675 365.78798088 235.66609192 365.81477356 C229.11355113 365.78923076 223.84070028 364.03995021 219.06787109 359.42700195 C215.00517572 353.1185766 213.2342984 346.82013708 211.66796875 339.5234375 C211.40886719 338.40517578 211.14976562 337.28691406 210.8828125 336.13476562 C209.88688552 331.74267496 209.04296875 327.85589537 209.04296875 323.3359375 C203.71050024 327.55944132 198.45363528 331.84109085 193.29296875 336.2734375 C161.00149324 363.20362078 119.6199496 374.15808103 78.05786133 370.87133789 C48.50303391 368.11481961 20.34339857 355.83217497 0.94140625 332.828125 C-20.44200201 304.75690181 -24.44369895 272.61229654 -24.34521484 238.29150391 C-24.34929166 235.86777003 -24.3546397 233.44403802 -24.36114502 231.02030945 C-24.37328547 225.18253334 -24.37167619 219.3448881 -24.3629071 213.50710835 C-24.35607874 208.76179282 -24.35523578 204.01650969 -24.35847855 199.27119064 C-24.35893825 198.59096698 -24.35939794 197.91074331 -24.35987157 197.20990681 C-24.36083089 195.8274074 -24.36180354 194.444908 -24.36278935 193.06240861 C-24.3712959 180.17210296 -24.36157936 167.28186186 -24.34538825 154.3915668 C-24.3319467 143.34792656 -24.33435379 132.30438079 -24.34814453 121.26074219 C-24.36421113 108.38882502 -24.37051689 95.5169638 -24.36130774 82.64503801 C-24.3603522 81.27244656 -24.35940909 79.89985511 -24.35847855 78.52726364 C-24.35801572 77.85214383 -24.35755289 77.17702402 -24.35707604 76.48144604 C-24.35449256 71.73852864 -24.35884234 66.995647 -24.36591721 62.25273514 C-24.37458421 55.87492443 -24.36856964 49.49729251 -24.35123444 43.11950111 C-24.34727056 40.7814126 -24.34840192 38.44330902 -24.35502243 36.10522652 C-24.36323025 32.91228431 -24.35292563 29.71991391 -24.33798218 26.52700806 C-24.34467434 25.60425319 -24.35136651 24.68149833 -24.35826147 23.7307812 C-24.30011605 17.31841095 -23.50204731 11.45991456 -19.30859375 6.3125 C-18.73882813 5.86648438 -18.1690625 5.42046875 -17.58203125 4.9609375 C-17.01742188 4.49945313 -16.4528125 4.03796875 -15.87109375 3.5625 C-10.65784354 0.22176415 -6.01954373 0.016258 0 0 Z " fill="#FEFEFE" transform="translate(1735.95703125,287.6640625)"/>
<path d="M0 0 C1.12148438 0.91072266 1.12148438 0.91072266 2.265625 1.83984375 C7.00871556 5.83164325 11.08748911 10.19937314 15 15 C15.78503906 15.9590625 16.57007813 16.918125 17.37890625 17.90625 C41.92001995 48.47857417 49.62713392 86.24831707 49.33618164 124.65966797 C49.31232521 128.02465386 49.31568469 131.38885553 49.32226562 134.75390625 C49.28138027 166.70213317 49.28138027 166.70213317 41.51171875 174.4921875 C36.44624855 178.94175686 32.35210461 179.14421542 25.89460754 179.12025452 C24.64119561 179.12153615 24.64119561 179.12153615 23.36246222 179.12284368 C20.55257369 179.12449544 17.74274439 179.11898204 14.93286133 179.11352539 C12.92259218 179.11324343 10.91232292 179.11340143 8.90205383 179.1139679 C3.4354547 179.11425551 -2.03112262 179.1083645 -7.49771667 179.10139394 C-13.20724233 179.09515451 -18.91676845 179.09455613 -24.626297 179.09336853 C-35.44223834 179.09025696 -46.25816961 179.0820459 -57.07410651 179.07201904 C-69.38591147 179.06085251 -81.6977169 179.05534609 -94.00952566 179.05032361 C-119.33968936 179.03986316 -144.66984412 179.02226707 -170 179 C-169.71300446 183.43158788 -169.41412476 187.86230113 -169.11328125 192.29296875 C-169.03307739 193.53365112 -168.95287354 194.7743335 -168.87023926 196.0526123 C-167.02602322 222.8619677 -160.14492861 248.78908041 -143 270 C-142.40960938 270.76570313 -141.81921875 271.53140625 -141.2109375 272.3203125 C-127.98305046 288.47522135 -108.38834321 296.39916498 -88.04443359 298.80151367 C-58.40246136 301.67934069 -31.70634778 291.77096641 -5.890625 278.3828125 C-0.16632535 275.64443131 5.84762179 274.89851036 12.046875 276.54296875 C20.95835069 280.33925739 27.65069923 289.59264629 32 298 C33.58935702 302.76807106 34.05509789 307.50454026 32.05859375 312.2265625 C20.51429448 331.55150234 -12.84425859 340.30979812 -33.35888672 345.609375 C-76.35887524 356.16108203 -124.20993076 352.79821032 -163.1328125 330.76171875 C-167.98773329 327.77865434 -172.53409379 324.53753168 -177 321 C-177.54269531 320.57090332 -178.08539063 320.14180664 -178.64453125 319.69970703 C-216.26778851 289.62445652 -233.41006955 243.70386887 -239 197 C-245.50878068 136.89990012 -240.58194182 70.64270384 -201.49658203 21.83251953 C-178.47046775 -6.36226249 -146.5431841 -23.63096537 -110.3515625 -27.65625 C-70.64570582 -31.62714932 -31.53741572 -25.94669203 0 0 Z M-112 25 C-112.85207031 25.2784375 -113.70414063 25.556875 -114.58203125 25.84375 C-121.15657912 28.18675324 -126.52897077 31.70866145 -132 36 C-132.825 36.64710938 -133.65 37.29421875 -134.5 37.9609375 C-156.46416749 56.4245658 -164.32481416 84.88092054 -167.5546875 112.33984375 C-168.06881829 118.87471664 -168 125.44493371 -168 132 C-117.18 132 -66.36 132 -14 132 C-14 98.70853458 -18.38824046 63.69781464 -43 39 C-43.61359375 38.36320312 -44.2271875 37.72640625 -44.859375 37.0703125 C-57.71340569 24.71066761 -74.37434318 21.53819429 -91.55908203 21.64379883 C-98.72202352 21.80496794 -105.22917282 22.53401585 -112 25 Z " fill="#FEFEFE" transform="translate(645,308)"/>
<path d="M0 0 C0.88945312 0.43957031 1.77890625 0.87914062 2.6953125 1.33203125 C34.10077448 17.57160775 54.08636283 47.21428176 65 80 C71.21726565 99.56519226 72.48711146 119.74873633 72.33618164 140.1418457 C72.31230795 143.59024007 72.31568599 147.03787033 72.32226562 150.48632812 C72.31669483 152.7213587 72.30958873 154.95638609 72.30078125 157.19140625 C72.30169266 158.20102921 72.30260406 159.21065216 72.30354309 160.25086975 C72.09147775 181.8843347 72.09147775 181.8843347 65.35546875 188.65234375 C59.9931894 193.45017264 56.07271563 194.14688039 48.93257141 194.12025452 C47.68528481 194.12153615 47.68528481 194.12153615 46.41280049 194.12284368 C43.61673139 194.1244954 40.82072181 194.11898211 38.0246582 194.11352539 C36.02424114 194.11324343 34.02382398 194.11340143 32.02340698 194.1139679 C26.58366645 194.11425551 21.14394785 194.10836455 15.70421243 194.10139394 C10.02271399 194.09515445 4.34121508 194.09455613 -1.34028625 194.09336853 C-12.10310367 194.09025698 -22.86591097 194.08204594 -33.62872392 194.07201904 C-45.88007053 194.06085246 -58.13141761 194.05534608 -70.38276803 194.05032361 C-95.58851764 194.0398632 -120.79425825 194.02226714 -146 194 C-145.84676164 197.21242555 -145.6906033 200.4247029 -145.53393555 203.63696289 C-145.49078972 204.54219948 -145.44764389 205.44743607 -145.40319061 206.38010406 C-145.10596464 212.43618024 -144.70503008 218.43589384 -143.8125 224.4375 C-143.68576904 225.29182617 -143.55903809 226.14615234 -143.4284668 227.02636719 C-139.31239302 252.70316247 -129.05964168 281.01636887 -107.43701172 297.16748047 C-84.85917384 313.2386241 -59.23366155 316.66648178 -32.33203125 312.41015625 C-14.32553551 309.27372153 1.98802133 301.7434215 18.109375 293.3828125 C23.52969193 290.78985008 29.06181519 289.97195979 34.9453125 291.5078125 C44.09040131 295.32135156 51.28248803 304.7419927 55.22265625 313.58984375 C56.93631012 318.90303189 56.97610953 323.65443067 54.4375 328.6875 C49.69796064 335.62978857 42.7061737 339.60697269 35.375 343.375 C34.4569458 343.84832764 33.5388916 344.32165527 32.59301758 344.80932617 C-11.41030861 367.01552498 -64.16133994 372.95250149 -111.52636719 358.21386719 C-126.51939211 353.12683923 -140.61609694 345.90022334 -153 336 C-153.53979492 335.57235352 -154.07958984 335.14470703 -154.63574219 334.70410156 C-192.26543897 304.63005737 -209.40954341 258.70826477 -215 212 C-221.50878068 151.89990012 -216.58194182 85.64270384 -177.49658203 36.83251953 C-154.46764747 8.63428416 -122.51922057 -8.65554432 -86.31640625 -12.65625 C-56.62699607 -15.60722854 -26.98775754 -13.65793809 0 0 Z M-121.1875 63.625 C-139.49337726 87.68960115 -144 117.59194039 -144 147 C-93.18 147 -42.36 147 10 147 C10 114.89147214 5.90970105 82.04563154 -16 57 C-16.88945312 55.95005859 -16.88945312 55.95005859 -17.796875 54.87890625 C-28.34925897 43.31186997 -43.34745399 37.42893132 -58.7578125 36.625 C-84.70315431 35.84014368 -104.20495949 43.92391051 -121.1875 63.625 Z " fill="#FEFEFE" transform="translate(2573,293)"/>
<path d="M0 0 C0.9679248 0.39912598 1.93584961 0.79825195 2.93310547 1.20947266 C11.75300158 4.97935351 20.56028104 8.85968215 26.125 16.9375 C28.21028592 23.19335776 28.04580942 29.78343121 25.3125 35.8125 C22.87697186 40.14232781 19.89568599 43.98357596 16.75 47.8125 C16.30422607 48.36019043 15.85845215 48.90788086 15.39916992 49.47216797 C11.26845429 54.27836053 6.28668829 58.18638043 -0.25 58.8125 C-0.91773438 58.89242187 -1.58546875 58.97234375 -2.2734375 59.0546875 C-9.98783477 58.70719213 -16.01038657 56.09562961 -22.625 52.3125 C-43.4351516 40.9646928 -65.66342266 33.57399175 -89.5 33.4375 C-90.55405029 33.43105469 -91.60810059 33.42460937 -92.6940918 33.41796875 C-107.68925409 33.66400439 -121.92379017 38.24503842 -132.90625 48.75 C-141.07057767 57.82147519 -144.56237465 69.01193449 -144.16015625 81.1484375 C-142.89293955 93.54285841 -138.15083716 104.4861817 -128.875 112.9375 C-108.848704 128.60215915 -84.34759646 137.41542571 -60.84082031 146.41650391 C-45.52860786 152.28149632 -30.3106006 158.11805196 -15.875 165.9375 C-15.26092285 166.26459961 -14.6468457 166.59169922 -14.01416016 166.92871094 C-5.99303208 171.22312529 1.20591602 176.01756172 8.125 181.9375 C9.04152344 182.63746094 9.04152344 182.63746094 9.9765625 183.3515625 C26.40414723 196.17858071 34.32089378 217.95611744 36.80859375 237.9921875 C39.08191466 266.33853466 35.00132921 295.29358029 16.0703125 317.6796875 C15.42835938 318.42476562 14.78640625 319.16984375 14.125 319.9375 C13.60679687 320.60007812 13.08859375 321.26265625 12.5546875 321.9453125 C-7.87251658 347.29968139 -42.78563087 357.54658144 -73.875 360.9375 C-119.5036031 365.37290611 -169.28390339 358.91863374 -210.8125 338.875 C-211.45695068 338.57094238 -212.10140137 338.26688477 -212.76538086 337.95361328 C-217.84726511 335.37356927 -221.3113687 332.06476259 -223.875 326.9375 C-225.79044707 315.18362027 -219.58923637 305.79010455 -213.3125 296.375 C-210.12352037 292.00810897 -206.77806796 288.38903398 -201.875 285.9375 C-200.02626197 285.76156705 -198.16904389 285.67005023 -196.3125 285.625 C-195.32121094 285.58761719 -194.32992187 285.55023437 -193.30859375 285.51171875 C-188.66397916 286.08767209 -185.04360616 287.88088617 -180.875 289.9375 C-179.66493286 290.52446655 -179.66493286 290.52446655 -178.43041992 291.12329102 C-176.74601547 291.94271769 -175.06317966 292.76537582 -173.38183594 293.59106445 C-141.07577552 309.3515071 -102.7154454 317.02885273 -67.76171875 305.421875 C-62.01290579 303.33653513 -56.89459641 300.4114042 -51.875 296.9375 C-51.20082031 296.47730469 -50.52664063 296.01710938 -49.83203125 295.54296875 C-41.97918859 289.5276566 -36.3025931 279.68847076 -34.875 269.9375 C-33.76884396 257.3611204 -34.41377201 245.64191506 -42.125 235.125 C-58.43964823 216.03411961 -84.31750829 207.03568886 -107.0625 198.0625 C-136.68247616 186.37486364 -165.41093426 174.03054354 -188.875 151.9375 C-189.92494141 151.00164062 -189.92494141 151.00164062 -190.99609375 150.046875 C-208.80074899 133.52637618 -213.83512225 109.18005688 -214.875 85.9375 C-215.21424013 68.79202699 -212.05763888 52.09281361 -203.875 36.9375 C-203.41222656 36.05707031 -202.94945312 35.17664063 -202.47265625 34.26953125 C-198.78939617 27.6886372 -194.08169885 22.35780701 -188.875 16.9375 C-188.21371094 16.22464844 -187.55242188 15.51179688 -186.87109375 14.77734375 C-174.21828736 1.51106796 -156.4707448 -7.40429447 -138.875 -12.0625 C-138.18277344 -12.24651367 -137.49054688 -12.43052734 -136.77734375 -12.62011719 C-91.77745671 -24.15184137 -42.49783034 -17.53175927 0 0 Z " fill="#FEFEFE" transform="translate(985.875,297.0625)"/>
<path d="M0 0 C4.73806758 3.33212922 6.84505819 7.10023491 8.30126953 12.6184082 C8.57076371 15.7245191 8.55445328 18.81238495 8.52832031 21.9284668 C8.52861237 22.84617859 8.52890442 23.76389038 8.52920532 24.70941162 C8.52781718 27.72865406 8.5122802 30.74764662 8.49658203 33.7668457 C8.49285007 35.86577215 8.49000396 37.96470034 8.48800659 40.06362915 C8.48038457 45.57754356 8.46074831 51.09135197 8.43859863 56.60522461 C8.41810941 62.23590664 8.40899829 67.86660586 8.39892578 73.49731445 C8.37750111 84.53772551 8.34338239 95.57805803 8.30126953 106.6184082 C9.38597534 106.60952576 10.47068115 106.60064331 11.58825684 106.5914917 C21.82814259 106.51028115 32.06796269 106.45038294 42.30809784 106.41115952 C47.57223469 106.39031616 52.83611083 106.3620578 58.10009766 106.31665039 C63.18350271 106.27307686 68.26665753 106.24924665 73.35023499 106.23889923 C75.28625933 106.23152852 77.22227052 106.21713522 79.15818787 106.19548798 C81.87740294 106.16630092 84.59559401 106.16245857 87.31494141 106.16430664 C88.10904419 106.14992554 88.90314697 106.13554443 89.72131348 106.12072754 C95.92612096 106.166131 101.10220386 107.81550487 105.83208466 111.95965195 C111.52754133 118.1935238 111.70944357 125.36384786 111.54345703 133.39575195 C111.06660113 139.74101187 109.81800337 144.58796008 105.11376953 149.0559082 C99.48553615 153.86250167 91.62360741 153.91147699 84.59033203 153.84545898 C83.76011032 153.84575104 82.92988861 153.84604309 82.07450867 153.84634399 C79.3583188 153.84496205 76.64241087 153.82945491 73.92626953 153.8137207 C72.03198395 153.80998653 70.13769642 153.80714147 68.2434082 153.80514526 C63.27861111 153.79754067 58.31393264 153.77791966 53.34918213 153.7557373 C48.27463383 153.73521027 43.20006621 153.72612892 38.12548828 153.71606445 C28.18403016 153.69467059 18.24265974 153.66057325 8.30126953 153.6184082 C8.36048314 182.66377854 8.43488848 211.70907521 8.53025581 240.75435043 C8.54152285 244.18991164 8.55266148 247.62547327 8.5637207 251.06103516 C8.56592439 251.7449419 8.56812807 252.42884864 8.57039853 253.13347983 C8.60569053 264.18109483 8.63060024 275.22870977 8.65161655 286.2763601 C8.67344335 297.62745402 8.70677785 308.97846457 8.74997109 320.32950109 C8.77384797 326.6988112 8.79261303 333.0680413 8.79888344 339.4373951 C8.8049593 345.44151056 8.82504935 351.44542145 8.85554504 357.44946098 C8.86428527 359.64428661 8.86805625 361.83913901 8.86627769 364.03398132 C8.85681072 381.11879798 9.72580116 395.40232645 18.30126953 410.6184082 C18.60935547 411.34672852 18.91744141 412.07504883 19.23486328 412.82543945 C20.60731659 415.13297084 21.84806597 415.58921611 24.30126953 416.6184082 C25.02443359 417.0205957 25.74759766 417.4227832 26.49267578 417.8371582 C36.38868776 423.18459136 46.20182593 424.80983681 57.30126953 422.6184082 C65.14185075 420.1559141 71.60886119 416.27505663 78.30126953 411.6184082 C84.25176497 407.65141125 89.04731189 405.35499875 96.30126953 406.6184082 C103.4817266 409.45719356 107.83202132 417.24459147 112.11376953 423.3684082 C112.51112305 423.93543457 112.90847656 424.50246094 113.31787109 425.08666992 C117.4386387 431.0822976 118.44796003 436.43182206 117.30126953 443.6184082 C110.15706222 457.29516125 89.82531749 466.52175871 75.80126953 471.4309082 C46.60091396 480.50256679 12.66853046 481.09289333 -14.98657227 466.81640625 C-35.45288476 455.79685843 -49.42597798 437.87919768 -56.30810547 415.65014648 C-61.6338612 396.9695185 -61.99467377 377.81755051 -61.92578125 358.53173828 C-61.92521563 356.28265895 -61.92553662 354.03357924 -61.92666626 351.78450012 C-61.92723491 345.74033028 -61.91556052 339.69624149 -61.90151834 333.65209031 C-61.88892873 327.3127168 -61.88783405 320.97334099 -61.88546753 314.63395691 C-61.87997804 304.01360527 -61.86752625 293.39328525 -61.84960938 282.77294922 C-61.83119168 271.84423975 -61.81706418 260.9155383 -61.80859375 249.98681641 C-61.80780558 248.97275154 -61.80780558 248.97275154 -61.80700149 247.93820051 C-61.80439101 244.54597437 -61.80186369 241.15374817 -61.79937768 237.76152194 C-61.77871558 209.71379698 -61.74340148 181.66610443 -61.69873047 153.6184082 C-63.30929321 153.64197388 -63.30929321 153.64197388 -64.95239258 153.66601562 C-68.97233446 153.72070774 -72.99224409 153.75489978 -77.01245117 153.78320312 C-78.74558053 153.79820089 -80.47867251 153.81860593 -82.21166992 153.84472656 C-84.71656572 153.88151023 -87.22095567 153.89822472 -89.72607422 153.91137695 C-90.87039162 153.93460274 -90.87039162 153.93460274 -92.03782654 153.95829773 C-98.33520679 153.9602258 -104.70497521 152.89542647 -109.81982422 149.00512695 C-110.25423828 148.44438477 -110.68865234 147.88364258 -111.13623047 147.3059082 C-111.81492187 146.47639648 -111.81492187 146.47639648 -112.50732422 145.63012695 C-117.07602215 137.91576815 -116.99927232 127.33456223 -115.04638672 118.7512207 C-112.87294774 113.21035051 -109.790586 110.58094233 -104.69873047 107.6184082 C-101.99248677 106.71632697 -100.46022061 106.49613221 -97.6862793 106.50488281 C-96.88567581 106.50495834 -96.08507233 106.50503387 -95.26020813 106.50511169 C-93.97100716 106.51285362 -93.97100716 106.51285362 -92.65576172 106.52075195 C-91.77216476 106.5221669 -90.88856781 106.52358185 -89.97819519 106.52503967 C-87.15583919 106.53063751 -84.3335625 106.54318959 -81.51123047 106.5559082 C-79.59782016 106.56092348 -77.6844086 106.56548634 -75.77099609 106.56958008 C-71.08021033 106.58060623 -66.38948384 106.59786937 -61.69873047 106.6184082 C-61.7053923 105.63836823 -61.71205414 104.65832825 -61.71891785 103.64859009 C-61.77992056 94.38057016 -61.82479472 85.11259134 -61.85416698 75.84441566 C-61.86977557 71.08035492 -61.89092534 66.31645719 -61.92504883 61.55249023 C-61.95781461 56.94889108 -61.97561958 52.34544801 -61.9833622 47.74174118 C-61.98887495 45.99159669 -61.99963951 44.24146005 -62.01592064 42.4913826 C-62.19077854 22.90409473 -62.19077854 22.90409473 -57.13623047 13.8059082 C-50.12317883 7.51214392 -40.70549158 5.15831027 -31.78613281 2.82324219 C-29.8281518 2.30707377 -27.87913397 1.76369547 -25.92919922 1.21801758 C-7.31213283 -3.74338336 -7.31213283 -3.74338336 0 0 Z " fill="#FEFEFE" transform="translate(2198.69873046875,181.381591796875)"/>
<path d="M0 0 C2.20107236 0.01605734 4.40030232 0.0001027 6.60131836 -0.01904297 C15.25504094 -0.03339236 23.76867877 0.06408923 31.20874023 5.01220703 C39.95481301 15.17951663 38.05701235 29.93323974 38.02279663 42.57865906 C38.02493778 44.517134 38.02796511 46.45560813 38.03179705 48.39408046 C38.03980628 53.69695455 38.03554502 58.99975772 38.02927828 64.3026315 C38.02473268 70.03066796 38.03179072 75.75869117 38.0375824 81.48672485 C38.0462038 91.40504628 38.04802637 101.32334986 38.04563522 111.24167442 C38.04253491 125.59160591 38.05418534 139.94149803 38.07018502 154.2914196 C38.07763843 160.98376558 38.08455456 167.67611209 38.09136391 174.36845875 C38.0920479 175.03829645 38.0927319 175.70813416 38.09343662 176.39826998 C38.10959851 192.32565067 38.12044499 208.25303384 38.12963867 224.18041992 C38.13004471 224.87692968 38.13045074 225.57343943 38.13086908 226.29105555 C38.14030069 242.54804053 38.14716472 258.80502412 38.14959717 275.06201172 C38.14975701 276.11153982 38.14975701 276.11153982 38.14992009 277.18227052 C38.15045328 280.71070811 38.15096802 284.2391457 38.15148146 287.76758329 C38.15158367 288.46497824 38.15168588 289.16237319 38.15179119 289.88090132 C38.15199675 291.28853009 38.1521993 292.69615885 38.15239885 294.10378761 C38.15587564 318.02118339 38.17455025 341.93853068 38.20719397 365.85590488 C38.22611594 380.17192638 38.23206551 394.48783817 38.22137679 408.80386875 C38.21506324 418.6084083 38.22308255 428.41286907 38.24243091 438.21739133 C38.25312414 443.87522332 38.25724502 449.53286404 38.24395943 455.19069481 C38.23191898 460.37015068 38.23824345 465.54924771 38.25915141 470.72867236 C38.26345777 472.60194425 38.26100948 474.47524644 38.25111024 476.34849712 C37.98085743 489.4385651 37.98085743 489.4385651 42.77124023 501.39111328 C43.32811523 502.29861328 43.88499023 503.20611328 44.45874023 504.14111328 C51.1658799 510.6669789 58.33301886 512.18847042 67.38696289 513.13964844 C71.48312167 513.64870101 73.41780753 514.11354833 76.75561523 516.73486328 C80.74847936 521.99677724 80.13908909 528.02298836 79.77124023 534.39111328 C79.22453929 538.17551323 78.41085076 541.86149794 77.52124023 545.57861328 C77.3162793 546.51125 77.11131836 547.44388672 76.90014648 548.40478516 C75.16823195 555.87301055 73.03268796 563.59665935 66.57983398 568.35986328 C52.45577866 576.41332031 32.23217617 572.33245378 17.14624023 568.76611328 C-0.62013024 563.64954963 -14.2711897 553.41500179 -23.28295898 537.20410156 C-32.05752222 520.38430121 -32.67966861 501.30028273 -32.61643982 482.7539978 C-32.62062235 480.73125878 -32.62610487 478.70852211 -32.63275963 476.6857897 C-32.64711069 471.17788728 -32.64300225 465.67013581 -32.63559282 460.16222548 C-32.63083805 454.20321896 -32.64339083 448.24424401 -32.65361023 442.2852478 C-32.66976597 431.30601705 -32.67225445 420.32683632 -32.66730524 409.34759604 C-32.66273718 399.20839519 -32.66336089 389.06921204 -32.66914558 378.93001175 C-32.66990246 377.56675146 -32.67065844 376.20349118 -32.67141353 374.84023089 C-32.67255878 372.7856861 -32.67370866 370.73114131 -32.67487277 368.67659652 C-32.68556362 349.59951258 -32.69031688 330.52243449 -32.68240261 311.44534874 C-32.68210544 310.72750297 -32.68180826 310.00965719 -32.68150209 309.27005852 C-32.67905344 303.44157474 -32.67644172 297.61309103 -32.67381795 291.78460732 C-32.66370348 269.02369461 -32.67209939 246.26285558 -32.6953125 223.50195312 C-32.72137993 197.90123767 -32.73423567 172.30056655 -32.72712475 146.69983733 C-32.72640872 143.97124395 -32.72573433 141.24265056 -32.7250843 138.51405716 C-32.7249145 137.84225612 -32.72474469 137.17045507 -32.72456973 136.47829642 C-32.72226723 126.33964391 -32.73024069 116.20103263 -32.74337578 106.06238937 C-32.75827666 94.54057029 -32.75876803 83.01884624 -32.74130487 71.49702863 C-32.73277303 65.61852421 -32.73069906 59.74020454 -32.74595642 53.86170959 C-32.75974658 48.48209159 -32.75511355 43.10281764 -32.73571718 37.72321983 C-32.73193967 35.77611933 -32.73492926 33.82899164 -32.74532884 31.88191526 C-32.75845585 29.23635897 -32.74695409 26.59199779 -32.72933102 23.94649315 C-32.73898153 23.18973394 -32.74863204 22.43297473 -32.75857499 21.65328342 C-32.66892682 15.10390529 -30.56141052 9.85705836 -26.04125977 5.07861328 C-17.69115937 0.06855305 -9.42830188 -0.08177555 0 0 Z " fill="#FDFDFD" transform="translate(1541.228759765625,86.60888671875)"/>
</svg>
