<?xml version="1.0" encoding="UTF-8"?>
<svg id="Layer_2" data-name="Layer 2" xmlns="http://www.w3.org/2000/svg" viewBox="0 0 3928.4 692.65">
  <defs>
    <style>
      .cls-1 {
        fill: #fff;
        stroke-width: 0px;
      }
    </style>
  </defs>
  <g id="Layer_1-2" data-name="Layer 1">
    <path class="cls-1" d="M26.74.38c8.08-1.71,14.62,4.14,21.46,8.51,7.48,4.78,14.44,10.35,21.56,15.67,3.43,2.56,6.6,5.46,10.06,7.97,10.92,7.9,22.53,15,32.69,23.77,6.59,5.69,14.59,9.32,20.56,15.93,3.9,4.32,9.66,6.94,14.46,10.49,12.31,9.12,24.48,18.42,36.85,27.47,7.05,5.16,14.45,9.83,21.53,14.96,6.75,4.89,13.2,10.18,19.92,15.13,10.45,7.7,21.1,15.14,31.5,22.91,6.93,5.18,13.5,10.86,20.38,16.11,4.93,3.77,10.04,7.3,15.19,10.77,9.35,6.31,18.37,13,27.11,20.16,5.43,4.45,11.79,7.73,17.54,11.82,5.19,3.69,10.05,7.84,15.16,11.64,7.32,5.44,14.8,10.66,22.09,16.13,2.71,2.04,4.92,4.75,7.66,6.75,6.05,4.41,12.57,8.21,18.37,12.91,7.41,6,15.87,10.54,22.8,17.27,4.41,4.28,10.11,7.19,15.11,10.88,9.06,6.69,18.01,13.54,27.05,20.27,4.61,3.43,9.31,6.75,13.98,10.1,7.47,5.34,14.97,10.62,22.42,15.99,6.79,4.9,13.6,9.77,20.24,14.85,7.56,5.79,14.83,11.98,22.45,17.68,6.68,5,13.72,9.52,20.55,14.33,2.56,1.8,5.02,3.76,7.42,5.76,2.61,2.17,4.99,2.13,7.72.06,6.91-5.24,13.96-10.3,20.93-15.46,7.71-5.71,15.44-11.39,23.06-17.22,10.29-7.87,19.9-16.82,30.88-23.54,11.2-6.85,20.74-15.78,31.89-22.66,10.09-6.24,19.05-14.3,28.57-21.49,8.47-6.41,17-12.74,25.54-19.06,6.48-4.8,13-9.55,19.52-14.29,6.87-4.99,13.84-9.83,20.63-14.93,6.79-5.1,13.34-10.51,20.1-15.64,12.03-9.15,23.88-18.57,36.3-27.17,10.87-7.52,21.01-16.02,31.97-23.32,6.75-4.49,12.66-10,19.61-14.24,9.25-5.64,18.41-11.76,26.43-18.97,9.24-8.31,19.74-14.83,29.23-22.75,9.15-7.64,19.26-14.14,28.99-21.08,6.95-4.96,14.67-9.07,20.78-14.89,7.34-7,16.39-11.45,23.88-18.11,3.96-3.52,8.66-6.21,12.91-9.42,8.3-6.27,16.45-12.72,24.78-18.94,5.29-3.95,10.86-7.53,16.18-11.44,2.55-1.87,4.7-4.28,7.23-6.19,3.4-2.57,7.01-4.87,10.5-7.34,5.77-4.08,11.62-8.05,17.22-12.35,7.87-6.05,17.08-7.38,25.98-5.18,7.29,1.8,14.09,6.29,16.02,14.9.76,3.37,2.37,6.8,2.12,10.09-.4,5.16-1.68,10.35-3.24,15.32-2.19,6.99-5.39,13.6-7.05,20.83-1.25,5.44-3.87,10.55-5.54,15.91-1.48,4.75-2.45,9.65-3.75,14.45-.44,1.63-1.16,3.21-1.88,4.75-.35.75-1.26,1.3-1.48,2.06-1.49,5.21-2.73,10.5-4.3,15.68-1.69,5.58-3.69,11.06-5.46,16.61-1.11,3.49-2.03,7.04-3.09,10.55-1.66,5.53-3.3,11.07-5.06,16.57-1.65,5.15-3.44,10.25-5.17,15.36-.35,1.03-.91,2.02-1.07,3.07-1.06,7.16-3.75,13.74-6.71,20.28-1.41,3.13-2.13,6.58-3.07,9.92-1.59,5.62-2.66,11.45-4.79,16.85-2.03,5.15-1.64,11.21-5.75,15.57-.28.3-.41.77-.52,1.18-1.43,5.45-2.73,10.95-4.29,16.36-1.51,5.21-3.27,10.35-4.96,15.5-1.2,3.69-2.55,7.33-3.67,11.04-1.73,5.73-3.29,11.52-5,17.26-1.3,4.36-2.71,8.69-4.06,13.04-2.05,6.59-3.63,13.37-6.29,19.71-2.02,4.82-3.65,9.66-4.96,14.7-1.58,6.05-3,12.25-5.6,17.87-2.44,5.28-1.79,11.42-5.77,16.34-2.15,2.66-2.4,6.88-3.39,10.43-1.46,5.23-2.75,10.5-4.22,15.73-1.48,5.23-3.18,10.39-4.62,15.62-1.76,6.4-5.12,12.2-6.37,18.87-.98,5.21-3.67,10.08-5.37,15.19-1.58,4.75-2.74,9.63-4.27,14.4-1.96,6.12-4.16,12.17-6.15,18.28-1.54,4.74-2.91,9.54-4.37,14.31-1.97,6.39-3.98,12.76-5.93,19.15-2.7,8.87-5.29,17.76-8.04,26.62-1.67,5.38-3.58,10.68-5.3,16.04-1.83,5.72-3.47,11.5-5.36,17.2-1.7,5.12-3.94,10.07-5.34,15.26-1.3,4.83-2.31,9.66-4.32,14.33-2.63,6.11-4.56,12.53-6.53,18.9-1.66,5.38-2.87,10.89-4.4,16.31-3.22,11.4-6.01,23.1-14.05,32.28-2.88,3.29-6.96,5.42-10.92,7.69-5.43,3.12-10.74,2.99-16.34,3.13-8.26.2-15.04-3.88-21.4-8.26-11.39-7.84-22.4-16.25-33.54-24.45-8.55-6.29-17.1-12.59-25.59-18.97-5.8-4.37-11.37-9.06-17.26-13.29-7.25-5.21-14.85-9.93-22.09-15.16-6.55-4.73-12.73-9.97-19.22-14.8-8.7-6.46-17.56-12.71-26.3-19.11-7.74-5.67-15.45-11.37-23.12-17.14-12.8-9.62-25.37-19.53-38.84-28.26-6.6-4.27-12.71-9.34-18.78-14.36-8.14-6.75-17.1-12.38-25.04-19.48-6.31-5.64-14.28-9.38-21.18-14.42-7.19-5.24-13.84-11.21-20.98-16.53-6.34-4.72-12.97-9.05-19.57-13.4-3-1.97-6.2-1.8-9.22.22-12.64,8.45-24.67,17.81-36.86,26.84-10.73,7.95-21.73,15.61-32.24,23.91-12.68,10.03-25.54,19.88-38.75,29.19-9.76,6.88-18.93,14.56-28.73,21.31-13.82,9.53-27.1,19.77-40.58,29.73-8.32,6.15-16.96,11.9-24.64,19.03-5.89,5.47-13.43,9.13-19.98,13.95-7.5,5.53-14.65,11.53-22.07,17.17-4.6,3.5-9.43,6.69-14.15,10.04-4.16,2.95-8.33,5.88-12.46,8.86-10.73,7.76-21.84,15.08-32,23.54-5.19,4.32-10.9,7.24-16.49,10.67-4.67,2.86-9.52,2.91-14.53,3.23-9.77.62-17.39-3.84-24.43-9.98-4.92-4.3-6.62-10.41-9.14-15.98-2.19-4.82-3.35-10.12-4.94-15.22-1.99-6.39-3.89-12.82-5.93-19.19-1.72-5.35-3.65-10.64-5.39-15.98-1.79-5.47-3.41-11.01-5.21-16.47-1.69-5.11-3.58-10.15-5.28-15.26-1.22-3.68-2.29-7.41-3.41-11.12-1.67-5.54-3.23-11.11-5.03-16.61-1.67-5.11-3.7-10.1-5.33-15.22-1.71-5.37-3.14-10.84-4.66-16.27-.24-.84-.08-1.85-.47-2.58-5.31-10.05-7.28-21.19-10.49-31.93-2.16-7.24-3.49-14.92-6.91-21.51-2.24-4.31-2.97-8.91-4.96-13.19-2.18-4.66-3.45-9.79-4.71-14.82-1.63-6.5-3.21-12.9-6.23-19.03-2.35-4.79-3.14-10.34-4.62-15.56-1.12-3.94-2.08-7.94-3.37-11.82-1.63-4.91-3.68-9.68-5.29-14.59-1.87-5.7-3.44-11.49-5.17-17.23-1.31-4.36-2.69-8.7-4.03-13.05-2.04-6.6-4.05-13.21-6.12-19.81-.38-1.22-.98-2.38-1.52-3.55-.7-1.53-1.61-3-2.15-4.58-2.02-5.91-4.02-11.84-5.85-17.82-.64-2.08-.5-4.4-1.16-6.47-2.48-7.76-5.11-15.47-7.73-23.18-1.75-5.13-3.71-10.19-5.36-15.34-2.12-6.6-3.87-13.32-6.04-19.9-2.49-7.55-5.43-14.96-7.86-22.52-1.52-4.73-1.74-9.99-3.85-14.39-2.63-5.48-2.43-11.78-6.09-16.98-2-2.85-2.34-6.87-3.41-10.37-1.4-4.58-2.76-9.18-4.19-13.75-1.99-6.4-4.05-12.78-6.02-19.18-1.71-5.54-3.22-11.15-5.03-16.66-1.68-5.11-3.73-10.11-5.46-15.21-1.18-3.46-2.08-7.02-3.13-10.53-1.66-5.55-3.23-11.13-5.02-16.64-1.67-5.11-3.66-10.11-5.36-15.21-1.58-4.75-2.93-9.57-4.41-14.36-1.84-5.94-3.34-12.03-5.66-17.78C-2.23,25.43.44,13.31,8.98,6.21,15.87.49,16.55.25,26.74.38ZM57.87,70.21c1.67,12.03,6.97,21.82,9.62,32.47,2.07,8.31,5.94,16.16,8.2,24.44,2.11,7.73,4.64,15.21,7.54,22.68,2.8,7.2,4.27,14.92,6.95,22.27,3.17,8.68,4.91,17.89,8.18,26.53,2.46,6.5,4.26,13.13,6.1,19.78,1.21,4.4,1.81,9.24,4.12,13,3.65,5.93,4.36,12.57,6.37,18.89,1.58,4.97,3.07,9.97,4.71,14.92,1.63,4.92,3.5,9.76,5.08,14.69,1.76,5.5,3.28,11.07,4.94,16.6,1.05,3.51,2.1,7.02,3.27,10.49,1.79,5.3,3.78,10.53,5.52,15.85,1.73,5.29,2.74,10.87,4.97,15.93,2.74,6.22,4.2,12.74,5.97,19.2,1.27,4.62,2.72,9.18,4.13,13.76,1.08,3.5,1.43,7.55,3.49,10.35,3.52,4.81,3.65,10.61,5.77,15.79,3.48,8.54,5.19,17.8,7.65,26.76.12.42.2.9.45,1.23,3.86,4.98,4.37,11.16,6.11,16.89,1.57,5.18,3.1,10.37,4.74,15.53,1.17,3.71,2.44,7.4,3.74,11.07,1.8,5.08,3.86,10.09,5.46,15.23,1.61,5.17,2.68,10.5,4.19,15.7,1.86,6.42,3.91,12.79,5.94,19.16.39,1.22,1.13,2.32,1.62,3.5.74,1.75,1.51,3.5,2.07,5.31.45,1.46.42,3.07.91,4.5,2.95,8.6,6.58,17.01,8.82,25.78,1.77,6.93,4.77,13.35,6.82,20.12,1.38,4.56,2.85,9.1,4.12,13.7,1.39,5,2.5,10.08,3.93,15.07,1.13,3.95,1.84,8.28,4.02,11.6,3.34,5.1,3.9,10.94,5.56,16.42,1.06,3.48,1.68,6.71,4.82,8.77,5.42-.05,8.09-4.57,11.89-7.13,6.92-4.67,14.03-9.2,20.26-14.69,5.61-4.94,11.91-8.76,17.81-13.2,7.7-5.79,15.64-11.29,23.13-17.34,3.3-2.67,6.17-5.82,10.3-7.3.57-.21,1-.79,1.51-1.18,11.52-8.74,23.02-17.53,34.59-26.21,8.51-6.39,17.09-12.67,25.67-18.96,9.27-6.8,18.85-13.2,27.77-20.43,7.91-6.4,16.5-11.83,24.19-18.59,7.96-6.99,17.35-12.33,25.98-18.58,7.08-5.13,13.95-10.55,20.94-15.82,6.43-4.85,12.81-9.77,19.33-14.49,10.18-7.37,20.5-14.54,30.65-21.95,1.26-.92,1.84-2.76,2.88-4.41-3-1.93-5.55-3.52-8.04-5.19-5.34-3.58-10.82-6.97-15.93-10.86-7.07-5.37-13.71-11.3-20.79-16.65-7.95-6.02-16.24-11.59-24.29-17.49-7.57-5.55-14.91-11.43-22.55-16.88-5.87-4.18-11.69-8.33-17.2-13.04-5.64-4.82-12.58-8.09-18.64-12.47-9.65-6.96-19.04-14.26-28.54-21.42-7.29-5.5-14.54-11.06-21.89-16.48-6-4.42-12.13-8.66-18.18-13-3.44-2.47-7.01-4.8-10.25-7.51-4.42-3.7-8.61-7.54-13.84-10.29-5.21-2.74-9.16-7.36-14.23-10.62-10.16-6.54-19.53-14.33-29.25-21.56-10.38-7.72-20.8-15.4-31.21-23.09-4.81-3.56-9.99-6.72-14.38-10.73-7.94-7.24-17.22-12.63-25.63-19.21-7.84-6.13-16.08-11.95-24.19-17.83-8.93-6.48-17.86-12.97-26.64-19.65-9.12-6.95-18.42-13.65-27.47-20.71-8.65-6.74-18.2-12.45-26.82-19.4-3.99-3.22-8.37-5.95-12.5-8.99-1.55-1.14-2.83-2.65-4.38-3.8-7.31-5.42-14.64-10.8-22.05-16.08-.86-.61-2.25-.47-3.89-.76ZM613.24,424.35c2.84,4.87,7.64,7.56,11.71,10.76,6.87,5.39,14.31,10.05,21.4,15.16,2.39,1.73,4.3,4.12,6.68,5.86,4.65,3.4,9.56,6.46,14.22,9.85,9.25,6.74,18.38,13.63,27.59,20.42,5,3.69,10.09,7.27,15.09,10.97,6.64,4.93,13.22,9.95,19.84,14.91,7.83,5.86,15.66,11.73,23.53,17.55,7.88,5.83,15.66,11.79,23.73,17.35,8.41,5.8,16.24,12.34,24.75,18.03,9.57,6.4,18.7,13.55,27.84,20.54,8.59,6.56,17.24,13.21,25.86,19.71,15.09,11.38,30.62,22.2,45.54,33.86,2.99,2.34,6.62,6.25,11.66,4.25,2.06-6.46,4.05-12.83,6.13-19.17,1.74-5.32,3.74-10.56,5.33-15.92,1.41-4.76,2.32-9.67,3.65-14.46,1.16-4.19,1.7-8.97,4.14-12.28,3.87-5.26,3.22-11.59,5.76-17.12,2.34-5.07,3.17-10.83,4.72-16.28,1-3.51,1.32-7.55,3.32-10.38,3.68-5.19,3.51-11.47,6.08-16.95,2.08-4.44,2.01-9.87,3.96-14.41,1.58-3.69,2.61-7.33,3.42-11.21.88-4.23,1.71-8.82,4.01-12.31,3.13-4.74,3.13-10.29,5.5-15.22,2.3-4.77,2.64-10.45,4.09-15.66,1.16-4.17,2.64-8.26,4.11-12.33,1.89-5.27,4.13-10.41,5.8-15.74,1.81-5.79,2.42-12.06,4.91-17.5,2.05-4.49,1.18-10.11,5.42-13.67.25-.21.11-.85.22-1.28,1.47-5.67,2.87-11.36,4.46-16.99,1.05-3.73,2.35-7.39,3.58-11.06,1.73-5.14,3.59-10.24,5.23-15.42,1.82-5.74,3.31-11.58,5.18-17.29,2.88-8.83,6.6-17.44,8.74-26.43,1.52-6.39,4.71-12.04,6.29-18.33,1.32-5.24,3.18-10.35,4.62-15.56,1.45-5.22,2.58-10.53,4.06-15.74,1.12-3.96,2.52-7.84,3.9-11.71,1.87-5.24,4.03-10.39,5.7-15.7,1.83-5.79,3.19-11.73,4.86-17.57.95-3.32,1.68-6.81,3.29-9.81,3-5.6,3.91-11.83,6.06-17.68,1.71-4.66,2.52-9.63,3.92-14.42,1.15-3.94,1.87-8.26,4.02-11.61,3.3-5.16,3.45-11.13,5.6-16.55,2.08-5.23,3.13-10.86,4.67-16.3,1-3.52,1.97-7.06,3.14-10.53,2.19-6.5,4.53-12.95,6.77-19.43,1.84-5.3,3.61-10.62,5.44-15.92.92-2.66,1.87-5.3-.32-7.96-159.75,118.23-319.24,236.26-479.22,354.66Z"/>
    <g>
      <path class="cls-1" d="M1298.42,647.29c-3.98-3.72-5.96-9.05-5.96-16.01V155.33c0-6.95,2.72-12.53,8.19-16.76,5.46-4.21,13.15-6.82,23.09-7.82,52.14-4.96,91.11-7.45,116.94-7.45,60.58,0,107.5,13.53,140.77,40.59,33.26,27.07,49.9,65.17,49.9,114.33,0,38.24-12.05,70.51-36.12,96.83-24.09,26.32-57.98,43.94-101.67,52.88v2.23l138.54,195.89c2.98,4.47,4.47,8.94,4.47,13.41,0,8.94-5.96,13.41-17.88,13.41h-39.48c-10.93,0-19.37-4.96-25.32-14.9l-140.03-206.32h-49.9v199.61c0,6.96-1.86,12.29-5.59,16.01s-9.07,5.59-16.01,5.59h-27.56c-6.96,0-12.42-1.86-16.39-5.59ZM1433.24,377.29c80.93,0,121.41-33.02,121.41-99.06s-37.99-99.06-113.96-99.06c-20.86,0-46.44,1.75-76.72,5.21v192.91h69.27Z"/>
      <path class="cls-1" d="M1730.41,607.44c-28.3-33.76-42.46-81.19-42.46-142.26s13.52-103.53,40.59-136.3c27.06-32.77,64.43-49.16,112.1-49.16,41.21,0,74.11,13.78,98.69,41.34,24.58,27.56,36.87,64.43,36.87,110.61,0,14.41-.5,26.07-1.49,35.01-1.49,13.41-8.69,20.11-21.6,20.11h-196.63c0,38.24,8.31,68.04,24.95,89.38,16.63,21.36,39.35,32.03,68.15,32.03,25.32,0,48.66-6.7,70.01-20.11,5.96-2.48,10.43-3.72,13.41-3.72,5.96,0,11.17,2.98,15.64,8.94l5.21,5.96c3.97,4.97,5.96,9.68,5.96,14.15,0,5.47-2.98,10.43-8.94,14.9-14.9,9.44-31.28,16.76-49.16,21.97s-35.75,7.82-53.63,7.82c-50.16,0-89.38-16.88-117.68-50.65ZM1914.39,439.85c.49-34.75-5.84-61.94-18.99-81.56-13.16-19.61-31.91-29.42-56.23-29.42s-44.45,10.06-58.84,30.17c-14.41,20.11-21.6,47.3-21.6,81.56l155.67-.75Z"/>
      <path class="cls-1" d="M2110.28,651.76c-19.87-4.21-37.5-10.06-52.88-17.5-7.95-3.47-11.92-8.94-11.92-16.39,0-2.98,1.23-6.95,3.72-11.92l7.45-11.92c4.47-7.45,9.93-11.17,16.39-11.17,3.47,0,7.94,1.49,13.41,4.47,11.42,6.96,24.21,12.29,38.36,16.01,14.15,3.72,27.68,5.59,40.59,5.59,21.84,0,39.1-4.59,51.77-13.78,12.66-9.18,18.99-21.72,18.99-37.61,0-14.4-5.84-26.19-17.5-35.38-11.67-9.18-33.4-19.74-65.17-31.66-36.25-14.4-61.7-29.67-76.35-45.81-14.65-16.13-21.97-37.61-21.97-64.43,0-30.28,11.04-54.62,33.14-72.99,22.09-18.36,52.51-27.56,91.24-27.56,17.88,0,35.87,2.23,54,6.7,18.12,4.47,35.12,10.93,51.02,19.37,6.95,3.98,10.43,9.44,10.43,16.39,0,5.47-1.75,10.18-5.21,14.15l-7.45,9.68c-4.97,5.96-10.43,8.94-16.39,8.94-3.98,0-8.45-1.23-13.41-3.72-11.92-6.95-24.33-12.41-37.24-16.39-12.92-3.97-24.84-5.96-35.75-5.96-16.89,0-30.54,4.22-40.97,12.66-10.43,8.45-15.64,19.62-15.64,33.52,0,14.9,5.59,26.94,16.76,36.12,11.17,9.19,32.14,19.74,62.94,31.66,37.24,12.42,63.55,26.44,78.95,42.08,15.39,15.64,23.09,37.37,23.09,65.17,0,33.27-12.05,59.59-36.12,78.95-24.09,19.37-56.98,29.05-98.69,29.05-19.87,0-39.73-2.12-59.59-6.33Z"/>
      <path class="cls-1" d="M2653.27,328.5c28.3,32.53,42.46,77.83,42.46,135.93,0,61.08-14.15,108.63-42.46,142.63-28.3,34.02-67.54,51.02-117.68,51.02s-89.51-17-118.06-51.02c-28.56-34.01-42.83-81.56-42.83-142.63s14.27-103.4,42.83-135.93c28.55-32.52,67.9-48.79,118.06-48.79s89.38,16.27,117.68,48.79ZM2467.8,364.25c-15.4,22.6-23.09,55.99-23.09,100.18,0,46.68,7.69,82.19,23.09,106.51,15.39,24.33,37.99,36.5,67.78,36.5s52.38-12.16,67.78-36.5c15.39-24.32,23.09-59.83,23.09-106.51,0-44.19-7.7-77.58-23.09-100.18-15.4-22.59-37.99-33.89-67.78-33.89s-52.39,11.3-67.78,33.89Z"/>
      <path class="cls-1" d="M2812.65,637.61c-13.41-13.65-20.11-34.88-20.11-63.68V109.15c0-6.95,1.98-12.29,5.96-16.01,3.97-3.72,9.18-5.59,15.64-5.59h24.58c6.95,0,12.29,1.86,16.01,5.59,3.72,3.72,5.59,9.07,5.59,16.01v460.3c0,9.94,2.85,17.63,8.57,23.09,5.7,5.47,13.52,8.19,23.46,8.19,6.95,0,10.43,4.73,10.43,14.15,0,3.48-.26,5.96-.75,7.45l-3.72,17.13c-2.49,12.42-10.43,18.62-23.83,18.62-27.81,0-48.41-6.82-61.82-20.48Z"/>
      <path class="cls-1" d="M3027.52,626.43c-21.11-21.1-31.66-50.76-31.66-89.01v-227.92c0-6.95,1.98-12.29,5.96-16.01,3.97-3.72,9.18-5.59,15.64-5.59h24.58c6.95,0,12.29,1.86,16.01,5.59,3.72,3.72,5.59,9.07,5.59,16.01v210.79c0,26.81,5.96,47.42,17.88,61.82,11.92,14.41,27.56,21.6,46.92,21.6,16.39,0,32.77-4.59,49.16-13.78,16.39-9.18,31.28-21.47,44.69-36.87v-243.56c0-6.95,1.98-12.29,5.96-16.01,3.97-3.72,9.18-5.59,15.64-5.59h24.58c6.95,0,12.29,1.86,16.01,5.59,3.72,3.72,5.59,9.07,5.59,16.01v253.99c0,19.37,2.23,41.47,6.7,66.29,2.48,15.4-3.98,23.09-19.37,23.09h-21.6c-11.43,0-18.62-5.7-21.6-17.13l-5.96-26.07h-2.23c-32.28,32.28-70.27,48.41-113.96,48.41-35.26,0-63.44-10.54-84.54-31.66Z"/>
      <path class="cls-1" d="M3446.12,630.9c-16.64-18.12-24.95-43.32-24.95-75.6v-221.21h-33.52c-6.46,0-11.54-1.86-15.27-5.59-3.72-3.72-5.59-8.81-5.59-15.27v-3.72c0-6.95,1.86-12.29,5.59-16.01,3.72-3.72,8.81-5.59,15.27-5.59h33.52v-75.97c0-12.91,6.2-20.86,18.62-23.83l25.32-6.7c3.97-.99,6.7-1.49,8.19-1.49,4.96,0,8.81,1.75,11.54,5.21,2.72,3.48,4.1,8.19,4.1,14.15v88.63h81.93c6.45,0,11.54,1.86,15.27,5.59,3.72,3.72,5.59,9.07,5.59,16.01v3.72c0,13.91-6.96,20.85-20.86,20.85h-81.93v220.47c0,34.26,13.65,51.39,40.97,51.39,10.43,0,20.35-3.72,29.79-11.17,5.46-4.47,10.17-6.7,14.15-6.7,4.47,0,8.44,2.49,11.92,7.45l5.96,8.94c4.47,4.97,6.7,9.94,6.7,14.9s-2.49,9.19-7.45,12.66c-9.44,8.45-20.61,14.9-33.52,19.37-12.92,4.47-26.57,6.7-40.97,6.7-30.29,0-53.76-9.05-70.39-27.19Z"/>
      <path class="cls-1" d="M3682.6,607.44c-28.3-33.76-42.46-81.19-42.46-142.26s13.52-103.53,40.59-136.3c27.06-32.77,64.43-49.16,112.1-49.16,41.21,0,74.11,13.78,98.69,41.34,24.58,27.56,36.87,64.43,36.87,110.61,0,14.41-.5,26.07-1.49,35.01-1.49,13.41-8.69,20.11-21.6,20.11h-196.63c0,38.24,8.31,68.04,24.95,89.38,16.63,21.36,39.35,32.03,68.15,32.03,25.32,0,48.66-6.7,70.01-20.11,5.96-2.48,10.43-3.72,13.41-3.72,5.96,0,11.17,2.98,15.64,8.94l5.21,5.96c3.97,4.97,5.96,9.68,5.96,14.15,0,5.47-2.98,10.43-8.94,14.9-14.9,9.44-31.28,16.76-49.16,21.97-17.88,5.21-35.75,7.82-53.63,7.82-50.16,0-89.38-16.88-117.68-50.65ZM3866.57,439.85c.49-34.75-5.84-61.94-18.99-81.56-13.16-19.61-31.91-29.42-56.23-29.42s-44.45,10.06-58.84,30.17c-14.41,20.11-21.6,47.3-21.6,81.56l155.67-.75Z"/>
    </g>
  </g>
</svg>