<svg width="20" height="20" viewBox="0 0 20 20" fill="none" xmlns="http://www.w3.org/2000/svg">
<g id="check_circle_FILL0_wght200_GRAD0_opsz24 (1) 1">
<path id="Vector" d="M8.60151 13.7992L14.82 7.58067L14.1319 6.89263L8.60151 12.4231L5.83067 9.65224L5.14263 10.3403L8.60151 13.7992ZM10.0033 18.75C8.79328 18.75 7.6557 18.5204 6.59051 18.0612C5.52533 17.602 4.59876 16.9788 3.81081 16.1916C3.02287 15.4044 2.39909 14.4787 1.93945 13.4145C1.47982 12.3503 1.25 11.2132 1.25 10.0033C1.25 8.79328 1.4796 7.6557 1.9388 6.59051C2.39801 5.52533 3.02122 4.59876 3.80843 3.81081C4.59564 3.02287 5.52133 2.39909 6.58551 1.93945C7.6497 1.47982 8.78678 1.25 9.99674 1.25C11.2067 1.25 12.3443 1.4796 13.4095 1.93879C14.4747 2.39801 15.4012 3.02122 16.1892 3.80843C16.9771 4.59564 17.6009 5.52133 18.0605 6.58551C18.5202 7.6497 18.75 8.78678 18.75 9.99674C18.75 11.2067 18.5204 12.3443 18.0612 13.4095C17.602 14.4747 16.9788 15.4012 16.1916 16.1892C15.4044 16.9771 14.4787 17.6009 13.4145 18.0605C12.3503 18.5202 11.2132 18.75 10.0033 18.75ZM10 17.7778C12.1713 17.7778 14.0104 17.0243 15.5174 15.5174C17.0243 14.0104 17.7778 12.1713 17.7778 10C17.7778 7.8287 17.0243 5.98958 15.5174 4.48264C14.0104 2.97569 12.1713 2.22222 10 2.22222C7.8287 2.22222 5.98958 2.97569 4.48264 4.48264C2.97569 5.98958 2.22222 7.8287 2.22222 10C2.22222 12.1713 2.97569 14.0104 4.48264 15.5174C5.98958 17.0243 7.8287 17.7778 10 17.7778Z" fill="#4AA29C"/>
</g>
</svg>
