<svg width="24" height="24" viewBox="0 0 24 24" fill="none" xmlns="http://www.w3.org/2000/svg">
<g id="noun-search-3549244 1">
<path id="Vector" d="M11.6538 17.36C13.1982 17.361 14.6972 16.8376 15.9055 15.8754L20.0571 20.0284L21.1747 18.9104L17.0231 14.7574C17.9857 13.54 18.5069 12.0319 18.5014 10.4797C18.4958 8.92751 17.9639 7.42314 16.9926 6.21267C16.0213 5.00219 14.6681 4.15727 13.1544 3.8161C11.6407 3.47493 10.056 3.65771 8.65967 4.33454C7.26329 5.01137 6.13784 6.14219 5.46742 7.54202C4.79699 8.94186 4.62127 10.5279 4.96899 12.0406C5.31671 13.5533 6.1673 14.9032 7.38163 15.8695C8.59595 16.8358 10.1021 17.3613 11.6538 17.36ZM11.6538 5.23054C12.6964 5.23054 13.7157 5.53984 14.5826 6.11931C15.4496 6.69879 16.1253 7.52242 16.5243 8.48606C16.9233 9.4497 17.0277 10.5101 16.8243 11.533C16.6209 12.556 16.1188 13.4957 15.3815 14.2332C14.6442 14.9708 13.7049 15.473 12.6823 15.6765C11.6596 15.88 10.5996 15.7756 9.63634 15.3764C8.67304 14.9773 7.8497 14.3013 7.27042 13.4341C6.69115 12.5668 6.38196 11.5472 6.38196 10.5042C6.38196 9.10554 6.93738 7.76416 7.92604 6.77516C8.9147 5.78616 10.2556 5.23054 11.6538 5.23054Z" fill="white" fill-opacity="0.5"/>
</g>
</svg>
