<svg width="24" height="24" viewBox="0 0 24 24" fill="none" xmlns="http://www.w3.org/2000/svg">
<g id="search_FILL0_wght200_GRAD0_opsz24 (2) 1">
<path id="Vector" d="M19.4846 20.1539L13.223 13.8924C12.723 14.318 12.148 14.6475 11.498 14.8808C10.848 15.1142 10.1948 15.2308 9.53839 15.2308C7.93673 15.2308 6.58118 14.6764 5.47177 13.5676C4.36233 12.4588 3.80762 11.104 3.80762 9.50319C3.80762 7.90239 4.36203 6.54654 5.47084 5.43564C6.57966 4.32474 7.93447 3.76929 9.53527 3.76929C11.1361 3.76929 12.4919 4.324 13.6028 5.43341C14.7137 6.54283 15.2692 7.89838 15.2692 9.50006C15.2692 10.1949 15.1461 10.8674 14.8999 11.5174C14.6538 12.1674 14.3307 12.7231 13.9307 13.1847L20.1923 19.4462L19.4846 20.1539ZM9.53839 14.2308C10.8653 14.2308 11.9855 13.7741 12.899 12.8606C13.8124 11.9472 14.2692 10.827 14.2692 9.50006C14.2692 8.17315 13.8124 7.05296 12.899 6.13949C11.9855 5.22602 10.8653 4.76929 9.53839 4.76929C8.21147 4.76929 7.09128 5.22602 6.17782 6.13949C5.26437 7.05296 4.80764 8.17315 4.80764 9.50006C4.80764 10.827 5.26437 11.9472 6.17782 12.8606C7.09128 13.7741 8.21147 14.2308 9.53839 14.2308Z" fill="url(#paint0_linear_32_43802)"/>
</g>
<defs>
<linearGradient id="paint0_linear_32_43802" x1="11.9999" y1="3.76929" x2="11.9999" y2="20.1539" gradientUnits="userSpaceOnUse">
<stop stop-color="#fff"/>
</linearGradient>
</defs>
</svg>
