<svg width="24" height="24" viewBox="0 0 24 24" fill="none" xmlns="http://www.w3.org/2000/svg">
<g id="hotel_class_FILL1_wght400_GRAD0_opsz24 1">
<path id="Vector" d="M12 11.4444C14.6389 11.4444 16.8819 11.031 18.7292 10.2042C20.5764 9.37731 21.5 8.38333 21.5 7.22222C21.5 6.06111 20.5764 5.06713 18.7292 4.24028C16.8819 3.41343 14.6389 3 12 3C9.36111 3 7.11806 3.41343 5.27083 4.24028C3.42361 5.06713 2.5 6.06111 2.5 7.22222C2.5 8.38333 3.42361 9.37731 5.27083 10.2042C7.11806 11.031 9.36111 11.4444 12 11.4444ZM12 14.0833C12.7213 14.0833 13.6229 14.0086 14.7049 13.859C15.7868 13.7095 16.8292 13.4676 17.8319 13.1333C18.8347 12.7991 19.6968 12.3637 20.4181 11.8271C21.1394 11.2905 21.5 10.6352 21.5 9.86111V12.5C21.5 13.2741 21.1394 13.9294 20.4181 14.466C19.6968 15.0025 18.8347 15.438 17.8319 15.7722C16.8292 16.1065 15.7868 16.3484 14.7049 16.4979C13.6229 16.6475 12.7213 16.7222 12 16.7222C11.2787 16.7222 10.3771 16.6475 9.29514 16.4979C8.21319 16.3484 7.17083 16.1065 6.16806 15.7722C5.16528 15.438 4.30324 15.0025 3.58194 14.466C2.86065 13.9294 2.5 13.2741 2.5 12.5V9.86111C2.5 10.6352 2.86065 11.2905 3.58194 11.8271C4.30324 12.3637 5.16528 12.7991 6.16806 13.1333C7.17083 13.4676 8.21319 13.7095 9.29514 13.859C10.3771 14.0086 11.2787 14.0833 12 14.0833ZM12 19.3611C12.7213 19.3611 13.6229 19.2863 14.7049 19.1368C15.7868 18.9873 16.8292 18.7454 17.8319 18.4111C18.8347 18.0769 19.6968 17.6414 20.4181 17.1049C21.1394 16.5683 21.5 15.913 21.5 15.1389V17.7778C21.5 18.5519 21.1394 19.2072 20.4181 19.7437C19.6968 20.2803 18.8347 20.7157 17.8319 21.05C16.8292 21.3843 15.7868 21.6262 14.7049 21.7757C13.6229 21.9252 12.7213 22 12 22C11.2787 22 10.3771 21.9252 9.29514 21.7757C8.21319 21.6262 7.17083 21.3843 6.16806 21.05C5.16528 20.7157 4.30324 20.2803 3.58194 19.7437C2.86065 19.2072 2.5 18.5519 2.5 17.7778V15.1389C2.5 15.913 2.86065 16.5683 3.58194 17.1049C4.30324 17.6414 5.16528 18.0769 6.16806 18.4111C7.17083 18.7454 8.21319 18.9873 9.29514 19.1368C10.3771 19.2863 11.2787 19.3611 12 19.3611Z" fill="url(#paint0_linear_269_5715)"/>
</g>
<defs>
<linearGradient id="paint0_linear_269_5715" x1="12" y1="3" x2="12" y2="22" gradientUnits="userSpaceOnUse">
<stop stop-color="#4AA29C"/>
<stop offset="1" stop-color="#8B3DA7"/>
</linearGradient>
</defs>
</svg>
