<svg width="25" height="25" viewBox="0 0 25 25" fill="none" xmlns="http://www.w3.org/2000/svg">
<g id="check_circle_24dp_E8EAED_FILL1_wght200_GRAD0_opsz24 2">
<path id="Vector" d="M11.0615 16.4078L17.4578 10.0115L16.75 9.30375L11.0615 14.9923L8.2115 12.1423L7.50375 12.85L11.0615 16.4078ZM12.5033 21.5C11.2587 21.5 10.0887 21.2638 8.993 20.7915C7.8975 20.3192 6.9445 19.6782 6.134 18.8685C5.3235 18.0588 4.68192 17.1067 4.20925 16.012C3.73642 14.9175 3.5 13.7479 3.5 12.5033C3.5 11.2587 3.73617 10.0887 4.2085 8.993C4.68083 7.8975 5.32183 6.9445 6.1315 6.134C6.94117 5.3235 7.89333 4.68192 8.988 4.20925C10.0825 3.73642 11.2521 3.5 12.4967 3.5C13.7413 3.5 14.9113 3.73617 16.007 4.2085C17.1025 4.68083 18.0555 5.32183 18.866 6.1315C19.6765 6.94117 20.3181 7.89333 20.7908 8.988C21.2636 10.0825 21.5 11.2521 21.5 12.4967C21.5 13.7413 21.2638 14.9113 20.7915 16.007C20.3192 17.1025 19.6782 18.0555 18.8685 18.866C18.0588 19.6765 17.1067 20.3181 16.012 20.7908C14.9175 21.2636 13.7479 21.5 12.5033 21.5Z" fill="#2BA472"/>
</g>
</svg>
