<svg width="40" height="41" viewBox="0 0 40 41" fill="none" xmlns="http://www.w3.org/2000/svg">
<g id="send_money_FILL0_wght200_GRAD0_opsz24 1">
<path id="Vector" d="M12.7143 27.6703C10.748 27.0681 9.30405 26.0161 8.38243 24.5143C7.46081 23.0125 7 21.5077 7 20C7 18.4923 7.46081 16.9875 8.38243 15.4857C9.30405 13.9839 10.748 12.9319 12.7143 12.3297V13.5429C11.3619 14 10.2619 14.819 9.41429 16C8.56667 17.181 8.14286 18.5143 8.14286 20C8.14286 21.4857 8.56667 22.819 9.41429 24C10.2619 25.181 11.3619 26 12.7143 26.4571V27.6703ZM21.8571 28C19.6315 28 17.7418 27.2231 16.1879 25.6692C14.6341 24.1154 13.8571 22.2256 13.8571 20C13.8571 17.7744 14.6341 15.8846 16.1879 14.3308C17.7418 12.7769 19.6315 12 21.8571 12C22.8945 12 23.8813 12.1868 24.8176 12.5604C25.7539 12.9341 26.5898 13.4593 27.3253 14.1363L26.5165 14.9451C25.9026 14.3751 25.2033 13.9322 24.4187 13.6165C23.6341 13.3007 22.7802 13.1429 21.8571 13.1429C19.9524 13.1429 18.3333 13.8095 17 15.1429C15.6667 16.4762 15 18.0952 15 20C15 21.9048 15.6667 23.5238 17 24.8571C18.3333 26.1905 19.9524 26.8571 21.8571 26.8571C22.7802 26.8571 23.6341 26.6993 24.4187 26.3835C25.2033 26.0678 25.9026 25.6249 26.5165 25.0549L27.3253 25.8637C26.5898 26.5407 25.7539 27.0659 24.8176 27.4396C23.8813 27.8132 22.8945 28 21.8571 28ZM28.2747 23.7802L27.4659 22.9714L29.8659 20.5714H20.8462V19.4286H29.8659L27.4659 17.0286L28.2747 16.2198L32.055 20L28.2747 23.7802Z" fill="url(#paint0_linear_32_35818)"/>
</g>
<defs>
<linearGradient id="paint0_linear_32_35818" x1="19.5275" y1="12" x2="19.5275" y2="28" gradientUnits="userSpaceOnUse">
<stop stop-color="#4AA29C"/>
<stop offset="1" stop-color="#8B3DA7"/>
</linearGradient>
</defs>
</svg>
