<svg width="24" height="25" viewBox="0 0 24 25" fill="none" xmlns="http://www.w3.org/2000/svg">
<g id="update_FILL1_wght200_GRAD0_opsz24 1">
<path id="Vector" d="M12.0192 20.5C10.9103 20.5 9.87083 20.2914 8.90095 19.8741C7.93108 19.4567 7.08365 18.8856 6.35865 18.1606C5.63365 17.4356 5.06249 16.5881 4.64518 15.6183C4.22788 14.6484 4.01923 13.609 4.01923 12.5C4.01923 11.391 4.22788 10.3516 4.64518 9.38172C5.06249 8.41186 5.63365 7.56443 6.35865 6.83943C7.08365 6.11443 7.93108 5.54327 8.90095 5.12595C9.87083 4.70865 10.9103 4.5 12.0192 4.5C13.1679 4.5 14.2619 4.73717 15.301 5.21152C16.3401 5.68589 17.2462 6.34743 18.0192 7.19615V4.8077H19.0193V8.96155H14.8654V7.96155H17.3462C16.65 7.19488 15.8468 6.59296 14.9366 6.15578C14.0263 5.71859 13.0538 5.5 12.0192 5.5C10.0692 5.5 8.41506 6.17917 7.05673 7.5375C5.69839 8.89583 5.01923 10.55 5.01923 12.5C5.01923 14.45 5.69839 16.1042 7.05673 17.4625C8.41506 18.8208 10.0692 19.5 12.0192 19.5C13.7692 19.5 15.292 18.9301 16.5875 17.7904C17.883 16.6506 18.6667 15.2205 18.9385 13.5H19.95C19.7128 15.5141 18.8394 17.1843 17.3298 18.5106C15.8202 19.8369 14.05 20.5 12.0192 20.5ZM15.1654 16.3539L11.5192 12.7077V7.5H12.5192V12.2923L15.8731 15.6462L15.1654 16.3539Z" fill="url(#paint0_linear_115_7036)"/>
</g>
<defs>
<linearGradient id="paint0_linear_115_7036" x1="11.9846" y1="4.5" x2="11.9846" y2="20.5" gradientUnits="userSpaceOnUse">
<stop stop-color="#4AA29C"/>
<stop offset="1" stop-color="#8B3DA7"/>
</linearGradient>
</defs>
</svg>
