<svg width="16" height="17" viewBox="0 0 16 17" fill="none" xmlns="http://www.w3.org/2000/svg">
<g id="hourglass_top_FILL0_wght200_GRAD0_opsz24 (1) 1">
<path id="Vector" d="M5.20521 13.4993H10.7949V11.4993C10.7949 10.7147 10.5252 10.0442 9.98587 9.48785C9.44665 8.93141 8.78471 8.65318 8.00004 8.65318C7.21537 8.65318 6.55343 8.93141 6.01421 9.48785C5.47487 10.0442 5.20521 10.7147 5.20521 11.4993V13.4993ZM3.33337 14.166V13.4993H4.53854V11.4993C4.53854 10.6762 4.79087 9.94613 5.29554 9.30902C5.80021 8.67179 6.44698 8.29079 7.23587 8.16602C6.44698 8.03268 5.80021 7.64957 5.29554 7.01668C4.79087 6.38379 4.53854 5.65579 4.53854 4.83268V2.83268H3.33337V2.16602H12.6667V2.83268H11.4615V4.83268C11.4615 5.65579 11.2092 6.38379 10.7045 7.01668C10.1999 7.64957 9.5531 8.03268 8.76421 8.16602C9.5531 8.29079 10.1999 8.67179 10.7045 9.30902C11.2092 9.94613 11.4615 10.6762 11.4615 11.4993V13.4993H12.6667V14.166H3.33337Z" fill="white" fill-opacity="0.25"/>
</g>
</svg>
