<svg width="24" height="24" viewBox="0 0 24 24" fill="none" xmlns="http://www.w3.org/2000/svg">
<g id="token_FILL0_wght200_GRAD0_opsz24 1">
<path id="Vector" d="M12 21.4231L3.5 16.7116V7.28846L12 2.57693L20.5 7.28846V16.7116L12 21.4231ZM9.19615 9.86538C9.54102 9.43975 9.95704 9.10578 10.4442 8.86346C10.9314 8.62116 11.45 8.50001 12 8.50001C12.55 8.50001 13.0686 8.62116 13.5558 8.86346C14.043 9.10578 14.459 9.43975 14.8039 9.86538L18.9192 7.57501L12 3.72308L5.08078 7.57501L9.19615 9.86538ZM11.5 19.9962V15.4904C10.6385 15.334 9.92308 14.9295 9.35385 14.2769C8.78462 13.6244 8.5 12.8654 8.5 12C8.5 11.7782 8.51795 11.5689 8.55385 11.3721C8.58975 11.1753 8.64552 10.9744 8.72115 10.7692L4.5 8.40386V16.1135L11.5 19.9962ZM12 14.5C12.7038 14.5 13.2965 14.2593 13.7779 13.7779C14.2593 13.2965 14.5 12.7039 14.5 12C14.5 11.2962 14.2593 10.7035 13.7779 10.2221C13.2965 9.74072 12.7038 9.50001 12 9.50001C11.2962 9.50001 10.7035 9.74072 10.2221 10.2221C9.74071 10.7035 9.5 11.2962 9.5 12C9.5 12.7039 9.74071 13.2965 10.2221 13.7779C10.7035 14.2593 11.2962 14.5 12 14.5ZM12.5 19.9962L19.5 16.1135V8.40386L15.2788 10.7692C15.3545 10.9744 15.4103 11.1753 15.4462 11.3721C15.482 11.5689 15.5 11.7782 15.5 12C15.5 12.8654 15.2154 13.6244 14.6462 14.2769C14.0769 14.9295 13.3615 15.334 12.5 15.4904V19.9962Z" fill="white"/>
</g>
</svg>
