<svg width="24" height="24" viewBox="0 0 24 24" fill="none" xmlns="http://www.w3.org/2000/svg">
<g id="arrow_circle_right_24dp_FILL0_wght200_GRAD0_opsz24 2">
<path id="Vector" d="M15.2885 12L12 8.7115L8.7115 12L9.4 12.6885L11.5 10.5885V15.5H12.5V10.5885L14.6 12.6885L15.2885 12ZM21 11.9967C21 13.2412 20.7638 14.4113 20.2915 15.507C19.8192 16.6025 19.1782 17.5555 18.3685 18.366C17.5588 19.1765 16.6067 19.8181 15.512 20.2908C14.4175 20.7636 13.2479 21 12.0033 21C10.7588 21 9.58867 20.7638 8.493 20.2915C7.3975 19.8192 6.4445 19.1782 5.634 18.3685C4.8235 17.5588 4.18192 16.6067 3.70925 15.512C3.23642 14.4175 3 13.2479 3 12.0033C3 10.7587 3.23617 9.58867 3.7085 8.493C4.18083 7.3975 4.82183 6.4445 5.6315 5.634C6.44117 4.8235 7.39333 4.18192 8.488 3.70925C9.5825 3.23642 10.7521 3 11.9967 3C13.2413 3 14.4113 3.23617 15.507 3.7085C16.6025 4.18083 17.5555 4.82183 18.366 5.6315C19.1765 6.44117 19.8181 7.39333 20.2908 8.488C20.7636 9.5825 21 10.7521 21 11.9967ZM20 12C20 9.76667 19.225 7.875 17.675 6.325C16.125 4.775 14.2333 4 12 4C9.76667 4 7.875 4.775 6.325 6.325C4.775 7.875 4 9.76667 4 12C4 14.2333 4.775 16.125 6.325 17.675C7.875 19.225 9.76667 20 12 20C14.2333 20 16.125 19.225 17.675 17.675C19.225 16.125 20 14.2333 20 12Z" fill="#E8EAED"/>
</g>
</svg>
