<svg width="3" height="18" viewBox="0 0 3 18" fill="none" xmlns="http://www.w3.org/2000/svg">
<path id="Vector" d="M1.62354 18C1.24501 18 0.920966 17.8652 0.651408 17.5957C0.381849 17.3261 0.24707 17.0021 0.24707 16.6235C0.24707 16.245 0.381849 15.9209 0.651408 15.6514C0.920966 15.3818 1.24501 15.247 1.62354 15.247C2.00207 15.247 2.32611 15.3818 2.59567 15.6514C2.86523 15.9209 3.00001 16.245 3.00001 16.6235C3.00001 17.0021 2.86523 17.3261 2.59567 17.5957C2.32611 17.8652 2.00207 18 1.62354 18ZM1.62354 10.3765C1.24501 10.3765 0.920966 10.2417 0.651408 9.97213C0.381849 9.70257 0.24707 9.37853 0.24707 9C0.24707 8.62147 0.381849 8.29743 0.651408 8.02787C0.920966 7.75831 1.24501 7.62353 1.62354 7.62353C2.00207 7.62353 2.32611 7.75831 2.59567 8.02787C2.86523 8.29743 3.00001 8.62147 3.00001 9C3.00001 9.37853 2.86523 9.70257 2.59567 9.97213C2.32611 10.2417 2.00207 10.3765 1.62354 10.3765ZM1.62354 2.75297C1.24501 2.75297 0.920966 2.61819 0.651408 2.34863C0.381849 2.07907 0.24707 1.75502 0.24707 1.37647C0.24707 0.997939 0.381849 0.673896 0.651408 0.404337C0.920966 0.134779 1.24501 0 1.62354 0C2.00207 0 2.32611 0.134779 2.59567 0.404337C2.86523 0.673896 3.00001 0.997939 3.00001 1.37647C3.00001 1.75502 2.86523 2.07907 2.59567 2.34863C2.32611 2.61819 2.00207 2.75297 1.62354 2.75297Z" fill="#B0B0B0"/>
</svg>
