<svg width="24" height="25" viewBox="0 0 24 25" fill="none" xmlns="http://www.w3.org/2000/svg">
<g id="how_to_vote_FILL1_wght200_GRAD0_opsz24 1">
<path id="Vector" d="M5.38463 21.7308C4.92436 21.7308 4.54006 21.5766 4.23173 21.2683C3.92339 20.96 3.76923 20.5757 3.76923 20.1154V16.9115L6.28845 14.1135L7.00193 14.8269L4.80963 17.2692H19.1904L17.0096 14.8385L17.7231 14.125L20.2308 16.9115V20.1154C20.2308 20.5757 20.0766 20.96 19.7683 21.2683C19.4599 21.5766 19.0756 21.7308 18.6154 21.7308H5.38463ZM10.8885 14.4192L7.91345 11.3942C7.59422 11.075 7.43781 10.693 7.44423 10.2481C7.45064 9.80322 7.61346 9.42117 7.93268 9.10193L12.3135 4.72116C12.6327 4.40193 13.0115 4.24231 13.45 4.24231C13.8885 4.24231 14.2673 4.40193 14.5866 4.72116L17.5923 7.71538C17.9115 8.03462 18.0721 8.4125 18.0741 8.84903C18.076 9.28558 17.9173 9.66348 17.5981 9.98271L13.1558 14.425C12.8365 14.7442 12.4587 14.9029 12.0221 14.901C11.5856 14.8991 11.2077 14.7385 10.8885 14.4192ZM16.8654 9.28846C16.9679 9.18589 17.0192 9.03846 17.0192 8.84616C17.0192 8.65386 16.9679 8.50643 16.8654 8.40386L13.8923 5.44231C13.7897 5.33974 13.6423 5.28846 13.45 5.28846C13.2577 5.28846 13.1103 5.33974 13.0077 5.44231L8.61538 9.83463C8.51283 9.93718 8.46155 10.0846 8.46155 10.2769C8.46155 10.4692 8.51283 10.6167 8.61538 10.7192L11.5885 13.6808C11.691 13.7834 11.8385 13.8346 12.0308 13.8346C12.2231 13.8346 12.3705 13.7834 12.4731 13.6808L16.8654 9.28846Z" fill="url(#paint0_linear_115_7038)"/>
</g>
<defs>
<linearGradient id="paint0_linear_115_7038" x1="12" y1="4.24231" x2="12" y2="21.7308" gradientUnits="userSpaceOnUse">
<stop stop-color="#4AA29C"/>
<stop offset="1" stop-color="#8B3DA7"/>
</linearGradient>
</defs>
</svg>
