<svg width="32" height="32" viewBox="0 0 32 32" fill="none" xmlns="http://www.w3.org/2000/svg">
<g id="warning_FILL0_wght200_GRAD0_opsz24 1">
<path id="Vector" d="M3.64111 26.6667L16.0001 5.33334L28.3591 26.6667H3.64111ZM5.93345 25.3333H26.0668L16.0001 8.00001L5.93345 25.3333ZM16.0001 23.4872C16.2326 23.4872 16.4275 23.4086 16.5847 23.2513C16.742 23.094 16.8206 22.8992 16.8206 22.6667C16.8206 22.4342 16.742 22.2393 16.5847 22.082C16.4275 21.9248 16.2326 21.8462 16.0001 21.8462C15.7676 21.8462 15.5727 21.9248 15.4155 22.082C15.2582 22.2393 15.1796 22.4342 15.1796 22.6667C15.1796 22.8992 15.2582 23.094 15.4155 23.2513C15.5727 23.4086 15.7676 23.4872 16.0001 23.4872ZM15.3334 20.5128H16.6668V13.8462H15.3334V20.5128Z" fill="#EFFF34"/>
</g>
</svg>
