<svg width="32" height="33" viewBox="0 0 32 33" fill="none" xmlns="http://www.w3.org/2000/svg">
<g id="check_box_outline_blank_FILL0_wght200_GRAD0_opsz24 (1) 1">
<path id="Vector" d="M7.48709 27.1667C6.87342 27.1667 6.36103 26.9612 5.94992 26.55C5.53881 26.1389 5.33325 25.6265 5.33325 25.0129V7.98721C5.33325 7.37354 5.53881 6.86115 5.94992 6.45004C6.36103 6.03893 6.87342 5.83337 7.48709 5.83337H24.5128C25.1264 5.83337 25.6388 6.03893 26.0499 6.45004C26.461 6.86115 26.6666 7.37354 26.6666 7.98721V25.0129C26.6666 25.6265 26.461 26.1389 26.0499 26.55C25.6388 26.9612 25.1264 27.1667 24.5128 27.1667H7.48709ZM7.48709 25.8334H24.5128C24.7179 25.8334 24.9059 25.7479 25.0769 25.577C25.2478 25.406 25.3333 25.218 25.3333 25.0129V7.98721C25.3333 7.7821 25.2478 7.59406 25.0769 7.42311C24.9059 7.25217 24.7179 7.16671 24.5128 7.16671H7.48709C7.28197 7.16671 7.09394 7.25217 6.92299 7.42311C6.75205 7.59406 6.66659 7.7821 6.66659 7.98721V25.0129C6.66659 25.218 6.75205 25.406 6.92299 25.577C7.09394 25.7479 7.28197 25.8334 7.48709 25.8334Z" fill="white"/>
</g>
</svg>
