<svg width="32" height="33" viewBox="0 0 32 33" fill="none" xmlns="http://www.w3.org/2000/svg">
<g id="check_box_FILL0_wght200_GRAD0_opsz24 (1) 1">
<path id="Vector" d="M14.1333 21.1769L22.6615 12.6487L21.7179 11.7051L14.1333 19.2897L10.3333 15.4897L9.38965 16.4333L14.1333 21.1769ZM7.48709 27.1667C6.87342 27.1667 6.36103 26.9611 5.94992 26.55C5.53881 26.1389 5.33325 25.6265 5.33325 25.0128V7.98716C5.33325 7.37349 5.53881 6.86111 5.94992 6.44999C6.36103 6.03888 6.87342 5.83333 7.48709 5.83333H24.5128C25.1264 5.83333 25.6388 6.03888 26.0499 6.44999C26.461 6.86111 26.6666 7.37349 26.6666 7.98716V25.0128C26.6666 25.6265 26.461 26.1389 26.0499 26.55C25.6388 26.9611 25.1264 27.1667 24.5128 27.1667H7.48709ZM7.48709 25.8333H24.5128C24.7179 25.8333 24.9059 25.7479 25.0769 25.5769C25.2478 25.406 25.3333 25.2179 25.3333 25.0128V7.98716C25.3333 7.78205 25.2478 7.59402 25.0769 7.42306C24.9059 7.25213 24.7179 7.16666 24.5128 7.16666H7.48709C7.28197 7.16666 7.09394 7.25213 6.92299 7.42306C6.75205 7.59402 6.66659 7.78205 6.66659 7.98716V25.0128C6.66659 25.2179 6.75205 25.406 6.92299 25.5769C7.09394 25.7479 7.28197 25.8333 7.48709 25.8333Z" fill="white"/>
</g>
</svg>
