<svg width="24" height="24" viewBox="0 0 24 24" fill="none" xmlns="http://www.w3.org/2000/svg">
<g id="delete_FILL0_wght200_GRAD0_opsz24 (1) 1">
<path id="Vector" d="M7.61537 20C7.16794 20 6.78685 19.8426 6.4721 19.5279C6.15737 19.2131 6 18.832 6 18.3846V5.99996H5V4.99996H9V4.23071H15V4.99996H19V5.99996H18V18.3846C18 18.8448 17.8458 19.2291 17.5375 19.5375C17.2292 19.8458 16.8449 20 16.3846 20H7.61537ZM17 5.99996H7V18.3846C7 18.5641 7.05769 18.7115 7.17308 18.8269C7.28846 18.9423 7.43589 19 7.61537 19H16.3846C16.5385 19 16.6795 18.9359 16.8077 18.8077C16.9359 18.6794 17 18.5384 17 18.3846V5.99996ZM9.80768 17H10.8077V7.99996H9.80768V17ZM13.1923 17H14.1923V7.99996H13.1923V17Z" fill="white"/>
</g>
</svg>
