<svg width="40" height="41" viewBox="0 0 40 41" fill="none" xmlns="http://www.w3.org/2000/svg">
<g id="drag_indicator_FILL1_wght400_GRAD0_opsz24 1">
<path id="Vector" d="M16.5 30.5C15.8125 30.5 15.224 30.2552 14.7344 29.7656C14.2448 29.276 14 28.6875 14 28C14 27.3125 14.2448 26.724 14.7344 26.2344C15.224 25.7448 15.8125 25.5 16.5 25.5C17.1875 25.5 17.776 25.7448 18.2656 26.2344C18.7552 26.724 19 27.3125 19 28C19 28.6875 18.7552 29.276 18.2656 29.7656C17.776 30.2552 17.1875 30.5 16.5 30.5ZM24 30.5C23.3125 30.5 22.724 30.2552 22.2344 29.7656C21.7448 29.276 21.5 28.6875 21.5 28C21.5 27.3125 21.7448 26.724 22.2344 26.2344C22.724 25.7448 23.3125 25.5 24 25.5C24.6875 25.5 25.276 25.7448 25.7656 26.2344C26.2552 26.724 26.5 27.3125 26.5 28C26.5 28.6875 26.2552 29.276 25.7656 29.7656C25.276 30.2552 24.6875 30.5 24 30.5ZM16.5 23C15.8125 23 15.224 22.7552 14.7344 22.2656C14.2448 21.776 14 21.1875 14 20.5C14 19.8125 14.2448 19.224 14.7344 18.7344C15.224 18.2448 15.8125 18 16.5 18C17.1875 18 17.776 18.2448 18.2656 18.7344C18.7552 19.224 19 19.8125 19 20.5C19 21.1875 18.7552 21.776 18.2656 22.2656C17.776 22.7552 17.1875 23 16.5 23ZM24 23C23.3125 23 22.724 22.7552 22.2344 22.2656C21.7448 21.776 21.5 21.1875 21.5 20.5C21.5 19.8125 21.7448 19.224 22.2344 18.7344C22.724 18.2448 23.3125 18 24 18C24.6875 18 25.276 18.2448 25.7656 18.7344C26.2552 19.224 26.5 19.8125 26.5 20.5C26.5 21.1875 26.2552 21.776 25.7656 22.2656C25.276 22.7552 24.6875 23 24 23ZM16.5 15.5C15.8125 15.5 15.224 15.2552 14.7344 14.7656C14.2448 14.276 14 13.6875 14 13C14 12.3125 14.2448 11.724 14.7344 11.2344C15.224 10.7448 15.8125 10.5 16.5 10.5C17.1875 10.5 17.776 10.7448 18.2656 11.2344C18.7552 11.724 19 12.3125 19 13C19 13.6875 18.7552 14.276 18.2656 14.7656C17.776 15.2552 17.1875 15.5 16.5 15.5ZM24 15.5C23.3125 15.5 22.724 15.2552 22.2344 14.7656C21.7448 14.276 21.5 13.6875 21.5 13C21.5 12.3125 21.7448 11.724 22.2344 11.2344C22.724 10.7448 23.3125 10.5 24 10.5C24.6875 10.5 25.276 10.7448 25.7656 11.2344C26.2552 11.724 26.5 12.3125 26.5 13C26.5 13.6875 26.2552 14.276 25.7656 14.7656C25.276 15.2552 24.6875 15.5 24 15.5Z" fill="url(#paint0_linear_32_45525)"/>
</g>
<defs>
<linearGradient id="paint0_linear_32_45525" x1="20.25" y1="10.5" x2="20.25" y2="30.5" gradientUnits="userSpaceOnUse">
<stop stop-color="#4AA29C"/>
<stop offset="1" stop-color="#8B3DA7"/>
</linearGradient>
</defs>
</svg>
