<svg width="41" height="41" viewBox="0 0 41 41" fill="none" xmlns="http://www.w3.org/2000/svg">
<g id="how_to_reg_FILL1_wght400_GRAD0_opsz24 2">
<path id="Vector" d="M24.2195 28L20.8537 24.6341L22.2195 23.2683L24.2195 25.2683L29.1463 20.3415L30.5122 21.7073L24.2195 28ZM18.8049 19.8049C17.7317 19.8049 16.813 19.4228 16.0488 18.6585C15.2846 17.8943 14.9024 16.9756 14.9024 15.9024C14.9024 14.8293 15.2846 13.9106 16.0488 13.1463C16.813 12.3821 17.7317 12 18.8049 12C19.8781 12 20.7968 12.3821 21.561 13.1463C22.3252 13.9106 22.7073 14.8293 22.7073 15.9024C22.7073 16.9756 22.3252 17.8943 21.561 18.6585C20.7968 19.4228 19.8781 19.8049 18.8049 19.8049ZM21.5854 21.0732L18.0244 24.6341L21 27.6098H11V24.878C11 24.3415 11.1382 23.8374 11.4146 23.3659C11.6911 22.8943 12.0732 22.5366 12.561 22.2927C13.3902 21.8699 14.3252 21.5122 15.3659 21.2195C16.4065 20.9268 17.5528 20.7805 18.8049 20.7805C19.2927 20.7805 19.7683 20.8049 20.2317 20.8537C20.6951 20.9024 21.1463 20.9756 21.5854 21.0732Z" fill="url(#paint0_linear_1744_69345)" fill-opacity="0.6"/>
</g>
<defs>
<linearGradient id="paint0_linear_1744_69345" x1="20.7561" y1="12" x2="20.7561" y2="28" gradientUnits="userSpaceOnUse">
<stop stop-color="#4AA29C"/>
<stop offset="1" stop-color="#8B3DA7"/>
</linearGradient>
</defs>
</svg>
