<svg width="32" height="32" viewBox="0 0 32 32" fill="none" xmlns="http://www.w3.org/2000/svg">
<g id="donut_small_FILL1_wght400_GRAD0_opsz24 1">
<path id="Vector" d="M19.7666 14.6666C19.5666 14.0888 19.2611 13.5833 18.85 13.1499C18.4388 12.7166 17.9444 12.3999 17.3666 12.1999V2.73328C20.5444 3.04439 23.25 4.31661 25.4833 6.54994C27.7166 8.78328 28.9888 11.4888 29.3 14.6666H19.7666ZM14.7 29.2666C11.2777 28.9333 8.42217 27.4999 6.13328 24.9666C3.8444 22.4333 2.69995 19.4444 2.69995 15.9999C2.69995 12.5555 3.8444 9.56661 6.13328 7.03328C8.42217 4.49994 11.2777 3.06661 14.7 2.73328V12.1999C13.9 12.4888 13.2555 12.9833 12.7666 13.6833C12.2777 14.3833 12.0333 15.1555 12.0333 15.9999C12.0333 16.8444 12.2777 17.6055 12.7666 18.2833C13.2555 18.9611 13.9 19.4444 14.7 19.7333V29.2666ZM17.3666 29.2666V19.7333C17.9444 19.5333 18.4388 19.2277 18.85 18.8166C19.2611 18.4055 19.5666 17.9111 19.7666 17.3333H29.3C28.9888 20.5111 27.7166 23.2166 25.4833 25.4499C23.25 27.6833 20.5444 28.9555 17.3666 29.2666Z" fill="url(#paint0_linear_1_80)"/>
</g>
<defs>
<linearGradient id="paint0_linear_1_80" x1="16" y1="2.73328" x2="16" y2="29.2666" gradientUnits="userSpaceOnUse">
<stop stop-color="#4AA29C"/>
<stop offset="1" stop-color="#8B3DA7"/>
</linearGradient>
</defs>
</svg>
