<svg width="32" height="32" viewBox="0 0 32 32" fill="none" xmlns="http://www.w3.org/2000/svg">
<g id="deployed_code_history_FILL0_wght200_GRAD0_opsz24 1">
<path id="Vector" d="M14.9231 4.41791C15.2598 4.22475 15.6188 4.12817 16 4.12817C16.3812 4.12817 16.7402 4.22475 17.0769 4.41791L25.5898 9.32304C25.9265 9.5162 26.1902 9.7786 26.3808 10.1102C26.5714 10.4419 26.6667 10.8008 26.6667 11.1871V14.9051C26.4547 14.7872 26.2419 14.6825 26.0282 14.591C25.8145 14.4996 25.5829 14.4188 25.3333 14.3487V11.3641L20.3538 14.2333C19.3145 14.5102 18.3662 14.9483 17.509 15.5474C16.6517 16.1466 15.9265 16.8684 15.3333 17.7128V16.382L6.66667 11.3641V20.8051C6.66667 20.9419 6.70086 21.0701 6.76924 21.1897C6.83761 21.3094 6.94018 21.4119 7.07694 21.4974L14.041 25.5512C14.1299 25.9034 14.2453 26.2449 14.3872 26.5756C14.5291 26.9064 14.6949 27.2325 14.8846 27.5538C14.8744 27.5487 14.868 27.5449 14.8654 27.5423C14.8628 27.5397 14.8564 27.5359 14.8462 27.5307L6.41024 22.6769C6.0735 22.4838 5.80984 22.2214 5.61924 21.8897C5.42864 21.5581 5.33334 21.1991 5.33334 20.8128V11.1871C5.33334 10.8008 5.42864 10.4419 5.61924 10.1102C5.80984 9.7786 6.0735 9.5162 6.41024 9.32304L14.9231 4.41791ZM15.5897 5.56407L7.43334 10.2846L16 15.2359L24.5667 10.2846L16.4103 5.56407C16.2735 5.47861 16.1368 5.43587 16 5.43587C15.8632 5.43587 15.7265 5.47861 15.5897 5.56407ZM22.6667 28.3077C21.1812 28.3077 19.9209 27.7902 18.8859 26.7551C17.8509 25.7201 17.3333 24.4598 17.3333 22.9743C17.3333 21.4889 17.8509 20.2286 18.8859 19.1936C19.9209 18.1585 21.1812 17.641 22.6667 17.641C24.1521 17.641 25.4124 18.1585 26.4474 19.1936C27.4825 20.2286 28 21.4889 28 22.9743C28 24.4598 27.4825 25.7201 26.4474 26.7551C25.4124 27.7902 24.1521 28.3077 22.6667 28.3077ZM23.1795 22.7589V19.1282H22.1538V23.1897L24.8667 25.9025L25.5949 25.1743L23.1795 22.7589Z" fill="url(#paint0_linear_32_43996)"/>
</g>
<defs>
<linearGradient id="paint0_linear_32_43996" x1="16.6667" y1="4.12817" x2="16.6667" y2="28.3077" gradientUnits="userSpaceOnUse">
<stop stop-color="#4AA29C"/>
<stop offset="1" stop-color="#8B3DA7"/>
</linearGradient>
</defs>
</svg>
