<svg width="16" height="17" viewBox="0 0 16 17" fill="none" xmlns="http://www.w3.org/2000/svg">
<g id="draw_FILL0_wght200_GRAD0_opsz24 1">
<path id="Vector" d="M1.875 15.5V13.3125L13.4368 1.75576C13.5333 1.65929 13.6348 1.59255 13.7413 1.55552C13.8479 1.51851 13.9545 1.5 14.0611 1.5C14.171 1.5 14.2812 1.51851 14.3917 1.55552C14.5022 1.59255 14.5984 1.65929 14.6803 1.75576L15.6192 2.6947C15.7157 2.7766 15.7825 2.8728 15.8195 2.9833C15.8565 3.0938 15.875 3.20401 15.875 3.31394C15.875 3.42052 15.8565 3.52709 15.8195 3.63367C15.7825 3.74023 15.7157 3.84175 15.6192 3.93823L4.0625 15.5H1.875ZM2.75 14.625H3.68894L12.9252 5.39375L12.4642 4.91082L11.9812 4.44976L2.75 13.6861V14.625ZM12.4642 4.91082L11.9812 4.44976L12.9252 5.39375L12.4642 4.91082ZM9.98557 15.5C10.9526 15.5 11.8506 15.2695 12.6796 14.8084C13.5086 14.3474 13.9231 13.7029 13.9231 12.875C13.9231 12.3724 13.7537 11.926 13.4149 11.5356C13.0761 11.1452 12.5837 10.8227 11.9375 10.568L11.2695 11.2361C11.8292 11.4268 12.2656 11.6629 12.5786 11.9445C12.8916 12.226 13.0481 12.5362 13.0481 12.875C13.0481 13.3675 12.7455 13.7823 12.1403 14.1194C11.5351 14.4565 10.8168 14.625 9.98557 14.625C9.86106 14.625 9.75701 14.6668 9.67344 14.7504C9.58986 14.8339 9.54807 14.938 9.54807 15.0625C9.54807 15.187 9.58986 15.2911 9.67344 15.3746C9.75701 15.4582 9.86106 15.5 9.98557 15.5ZM2.41177 9.83269L3.0512 9.17644C2.65857 9.00369 2.36438 8.82448 2.16863 8.63882C1.97288 8.45316 1.875 8.26105 1.875 8.0625C1.875 7.79775 2.0371 7.53862 2.3613 7.28508C2.68549 7.03157 3.29855 6.7113 4.20049 6.32427C5.3492 5.83742 6.1238 5.3988 6.52427 5.00842C6.92476 4.61803 7.125 4.17772 7.125 3.6875C7.125 3.05368 6.84062 2.53064 6.27187 2.11838C5.70312 1.70613 4.96667 1.5 4.0625 1.5C3.51842 1.5 3.00156 1.59984 2.51189 1.79951C2.02223 1.99919 1.6669 2.2443 1.4459 2.53484C1.36401 2.63469 1.32924 2.74239 1.34158 2.85793C1.35392 2.97348 1.41 3.07052 1.50984 3.14905C1.60969 3.21972 1.71458 3.24888 1.82451 3.23655C1.93446 3.2242 2.03037 3.17708 2.11226 3.09519C2.35008 2.85737 2.63221 2.67788 2.95864 2.55674C3.28509 2.43558 3.65304 2.375 4.0625 2.375C4.75016 2.375 5.28666 2.50457 5.672 2.7637C6.05733 3.02283 6.25 3.33076 6.25 3.6875C6.25 3.99263 6.08874 4.2683 5.76621 4.51453C5.4437 4.76077 4.80624 5.09535 3.85383 5.51826C2.7657 5.99502 2.01803 6.41598 1.61082 6.78113C1.20361 7.14627 1 7.57339 1 8.0625C1 8.41699 1.12115 8.74147 1.36345 9.03594C1.60577 9.3304 1.95521 9.59599 2.41177 9.83269Z" fill="white"/>
</g>
</svg>
