<svg width="41" height="41" viewBox="0 0 41 41" fill="none" xmlns="http://www.w3.org/2000/svg">
<g id="database_FILL1_wght400_GRAD0_opsz24 1">
<path id="Vector" d="M21 19.1111C23.2222 19.1111 25.1111 18.763 26.6667 18.0667C28.2222 17.3704 29 16.5333 29 15.5556C29 14.5778 28.2222 13.7407 26.6667 13.0444C25.1111 12.3481 23.2222 12 21 12C18.7778 12 16.8889 12.3481 15.3333 13.0444C13.7778 13.7407 13 14.5778 13 15.5556C13 16.5333 13.7778 17.3704 15.3333 18.0667C16.8889 18.763 18.7778 19.1111 21 19.1111ZM21 21.3333C21.6074 21.3333 22.3667 21.2704 23.2778 21.1444C24.1889 21.0185 25.0667 20.8148 25.9111 20.5333C26.7556 20.2519 27.4815 19.8852 28.0889 19.4333C28.6963 18.9815 29 18.4296 29 17.7778V20C29 20.6519 28.6963 21.2037 28.0889 21.6556C27.4815 22.1074 26.7556 22.4741 25.9111 22.7556C25.0667 23.037 24.1889 23.2407 23.2778 23.3667C22.3667 23.4926 21.6074 23.5556 21 23.5556C20.3926 23.5556 19.6333 23.4926 18.7222 23.3667C17.8111 23.2407 16.9333 23.037 16.0889 22.7556C15.2444 22.4741 14.5185 22.1074 13.9111 21.6556C13.3037 21.2037 13 20.6519 13 20V17.7778C13 18.4296 13.3037 18.9815 13.9111 19.4333C14.5185 19.8852 15.2444 20.2519 16.0889 20.5333C16.9333 20.8148 17.8111 21.0185 18.7222 21.1444C19.6333 21.2704 20.3926 21.3333 21 21.3333ZM21 25.7778C21.6074 25.7778 22.3667 25.7148 23.2778 25.5889C24.1889 25.463 25.0667 25.2593 25.9111 24.9778C26.7556 24.6963 27.4815 24.3296 28.0889 23.8778C28.6963 23.4259 29 22.8741 29 22.2222V24.4444C29 25.0963 28.6963 25.6481 28.0889 26.1C27.4815 26.5519 26.7556 26.9185 25.9111 27.2C25.0667 27.4815 24.1889 27.6852 23.2778 27.8111C22.3667 27.937 21.6074 28 21 28C20.3926 28 19.6333 27.937 18.7222 27.8111C17.8111 27.6852 16.9333 27.4815 16.0889 27.2C15.2444 26.9185 14.5185 26.5519 13.9111 26.1C13.3037 25.6481 13 25.0963 13 24.4444V22.2222C13 22.8741 13.3037 23.4259 13.9111 23.8778C14.5185 24.3296 15.2444 24.6963 16.0889 24.9778C16.9333 25.2593 17.8111 25.463 18.7222 25.5889C19.6333 25.7148 20.3926 25.7778 21 25.7778Z" fill="url(#paint0_linear_114_5058)" fill-opacity="0.6"/>
</g>
<defs>
<linearGradient id="paint0_linear_114_5058" x1="21" y1="12" x2="21" y2="28" gradientUnits="userSpaceOnUse">
<stop stop-color="#4AA29C"/>
<stop offset="1" stop-color="#8B3DA7"/>
</linearGradient>
</defs>
</svg>
