<svg width="40" height="41" viewBox="0 0 40 41" fill="none" xmlns="http://www.w3.org/2000/svg">
<g id="toll_FILL0_wght200_GRAD0_opsz24 1">
<path id="Vector" d="M23.8606 28.5C21.6283 28.5 19.7363 27.7253 18.1846 26.176C16.633 24.6267 15.8571 22.7358 15.8571 20.5035C15.8571 18.2711 16.6318 16.3791 18.1811 14.8275C19.7304 13.2758 21.6213 12.5 23.8537 12.5C26.086 12.5 27.978 13.2747 29.5297 14.824C31.0813 16.3733 31.8571 18.2642 31.8571 20.4965C31.8571 22.7289 31.0825 24.6209 29.5332 26.1725C27.9838 27.7242 26.093 28.5 23.8606 28.5ZM14.7143 28.1703C12.9883 27.7103 11.6044 26.7674 10.5626 25.3418C9.52088 23.9161 9 22.3022 9 20.5C9 18.6978 9.52088 17.0839 10.5626 15.6582C11.6044 14.2326 12.9883 13.2897 14.7143 12.8297V14.0429C13.3429 14.519 12.2381 15.3476 11.4 16.5286C10.5619 17.7095 10.1429 19.0333 10.1429 20.5C10.1429 21.9667 10.5619 23.2905 11.4 24.4714C12.2381 25.6524 13.3429 26.481 14.7143 26.9571V28.1703ZM23.8571 27.3571C25.7619 27.3571 27.381 26.6905 28.7143 25.3571C30.0476 24.0238 30.7143 22.4048 30.7143 20.5C30.7143 18.5952 30.0476 16.9762 28.7143 15.6429C27.381 14.3095 25.7619 13.6429 23.8571 13.6429C21.9524 13.6429 20.3333 14.3095 19 15.6429C17.6667 16.9762 17 18.5952 17 20.5C17 22.4048 17.6667 24.0238 19 25.3571C20.3333 26.6905 21.9524 27.3571 23.8571 27.3571Z" fill="url(#paint0_linear_32_35832)"/>
</g>
<defs>
<linearGradient id="paint0_linear_32_35832" x1="20.4286" y1="12.5" x2="20.4286" y2="28.5" gradientUnits="userSpaceOnUse">
<stop stop-color="#4AA29C"/>
<stop offset="1" stop-color="#8B3DA7"/>
</linearGradient>
</defs>
</svg>
