<svg width="16" height="17" viewBox="0 0 16 17" fill="none" xmlns="http://www.w3.org/2000/svg">
<g id="open_in_new_FILL0_wght200_GRAD0_opsz24 (5) 1">
<path id="Vector" d="M3.74357 13.6833C3.43674 13.6833 3.18055 13.5805 2.97499 13.3749C2.76943 13.1694 2.66666 12.9132 2.66666 12.6064V4.09352C2.66666 3.78668 2.76943 3.53049 2.97499 3.32493C3.18055 3.11938 3.43674 3.0166 3.74357 3.0166H7.48717V3.68327H3.74357C3.64102 3.68327 3.547 3.726 3.46152 3.81147C3.37606 3.89695 3.33332 3.99096 3.33332 4.09352V12.6064C3.33332 12.7089 3.37606 12.8029 3.46152 12.8884C3.547 12.9739 3.64102 13.0166 3.74357 13.0166H12.2564C12.359 13.0166 12.453 12.9739 12.5385 12.8884C12.6239 12.8029 12.6667 12.7089 12.6667 12.6064V8.86275H13.3333V12.6064C13.3333 12.9132 13.2305 13.1694 13.025 13.3749C12.8194 13.5805 12.5632 13.6833 12.2564 13.6833H3.74357ZM6.49229 10.3294L6.02051 9.85764L12.1949 3.68327H9.33332V3.0166H13.3333V7.0166H12.6667V4.15507L6.49229 10.3294Z" fill="white"/>
</g>
</svg>
