<svg width="24" height="24" viewBox="0 0 24 24" fill="none" xmlns="http://www.w3.org/2000/svg">
<g id="open_in_new_24dp_FILL0_wght200_GRAD0_opsz24 1">
<path id="Vector" d="M5.6155 20C5.15517 20 4.77083 19.8458 4.4625 19.5375C4.15417 19.2292 4 18.8448 4 18.3845V5.6155C4 5.15517 4.15417 4.77083 4.4625 4.4625C4.77083 4.15417 5.15517 4 5.6155 4H11.2308V5H5.6155C5.4615 5 5.32042 5.06408 5.19225 5.19225C5.06408 5.32042 5 5.4615 5 5.6155V18.3845C5 18.5385 5.06408 18.6796 5.19225 18.8077C5.32042 18.9359 5.4615 19 5.6155 19H18.3845C18.5385 19 18.6796 18.9359 18.8077 18.8077C18.9359 18.6796 19 18.5385 19 18.3845V12.7692H20V18.3845C20 18.8448 19.8458 19.2292 19.5375 19.5375C19.2292 19.8458 18.8448 20 18.3845 20H5.6155ZM9.7385 14.9692L9.03075 14.2615L18.2923 5H14V4H20V10H19V5.70775L9.7385 14.9692Z" fill="#E8EAED"/>
</g>
</svg>
